<mxfile host="app.diagrams.net" agent="Mozilla/5.0 (Windows NT 10.0; Win64; x64) AppleWebKit/537.36 (KHTML, like Gecko) Chrome/127.0.0.0 Safari/537.36" version="24.7.5">
  <diagram name="Page-1" id="Ly6so0hUujXTnvOt8CVY">
    <mxGraphModel dx="2123" dy="2360" grid="1" gridSize="10" guides="1" tooltips="1" connect="1" arrows="1" fold="1" page="1" pageScale="1" pageWidth="827" pageHeight="1169" math="0" shadow="0">
      <root>
        <mxCell id="0" />
        <mxCell id="1" parent="0" />
        <mxCell id="Rx8Aes6J8T8P0xbG0pR--8" value="" style="rounded=1;whiteSpace=wrap;html=1;fillColor=#fff2cc;strokeColor=#d6b656;strokeWidth=2;" vertex="1" parent="1">
          <mxGeometry x="10" y="-100" width="420" height="680" as="geometry" />
        </mxCell>
        <mxCell id="Kk76nVAmAOadvZrQ_-mG-1" value="" style="rounded=1;whiteSpace=wrap;html=1;fillColor=#dae8fc;strokeColor=#1E2836;strokeWidth=2;" parent="1" vertex="1">
          <mxGeometry x="460" y="-50" width="360" height="620" as="geometry" />
        </mxCell>
        <mxCell id="JMF1npg3gaPe0KZ-YMBb-35" value="" style="rounded=1;whiteSpace=wrap;html=1;fillColor=#dae8fc;strokeColor=#1E2836;strokeWidth=2;" parent="1" vertex="1">
          <mxGeometry x="20" y="-50" width="400" height="620" as="geometry" />
        </mxCell>
        <mxCell id="JMF1npg3gaPe0KZ-YMBb-33" value="" style="rounded=1;whiteSpace=wrap;html=1;fillColor=#d5e8d4;strokeColor=#000000;strokeWidth=2;" parent="1" vertex="1">
          <mxGeometry x="30" width="380" height="560" as="geometry" />
        </mxCell>
        <mxCell id="JMF1npg3gaPe0KZ-YMBb-31" value="" style="rounded=1;whiteSpace=wrap;html=1;fillColor=#e1d5e7;strokeColor=#000000;strokeWidth=2;" parent="1" vertex="1">
          <mxGeometry x="40" y="50" width="360" height="500" as="geometry" />
        </mxCell>
        <mxCell id="JMF1npg3gaPe0KZ-YMBb-40" style="edgeStyle=orthogonalEdgeStyle;rounded=0;orthogonalLoop=1;jettySize=auto;html=1;exitX=0.25;exitY=1;exitDx=0;exitDy=0;entryX=0.25;entryY=0;entryDx=0;entryDy=0;strokeWidth=2;" parent="1" source="JMF1npg3gaPe0KZ-YMBb-1" target="JMF1npg3gaPe0KZ-YMBb-2" edge="1">
          <mxGeometry relative="1" as="geometry" />
        </mxCell>
        <mxCell id="JMF1npg3gaPe0KZ-YMBb-1" value="" style="rounded=1;whiteSpace=wrap;html=1;fillColor=#ffe6cc;strokeColor=#171100;strokeWidth=2;" parent="1" vertex="1">
          <mxGeometry x="50" y="90" width="340" height="200" as="geometry" />
        </mxCell>
        <mxCell id="JMF1npg3gaPe0KZ-YMBb-28" style="edgeStyle=orthogonalEdgeStyle;rounded=0;orthogonalLoop=1;jettySize=auto;html=1;exitX=0.25;exitY=1;exitDx=0;exitDy=0;entryX=0.25;entryY=0;entryDx=0;entryDy=0;" parent="1" source="JMF1npg3gaPe0KZ-YMBb-2" target="JMF1npg3gaPe0KZ-YMBb-4" edge="1">
          <mxGeometry relative="1" as="geometry" />
        </mxCell>
        <mxCell id="JMF1npg3gaPe0KZ-YMBb-39" style="edgeStyle=orthogonalEdgeStyle;rounded=0;orthogonalLoop=1;jettySize=auto;html=1;exitX=0.75;exitY=0;exitDx=0;exitDy=0;entryX=0.75;entryY=1;entryDx=0;entryDy=0;strokeWidth=2;" parent="1" source="JMF1npg3gaPe0KZ-YMBb-2" target="JMF1npg3gaPe0KZ-YMBb-1" edge="1">
          <mxGeometry relative="1" as="geometry" />
        </mxCell>
        <mxCell id="JMF1npg3gaPe0KZ-YMBb-2" value="" style="rounded=1;whiteSpace=wrap;html=1;strokeWidth=2;fillColor=#fff2cc;strokeColor=#000000;" parent="1" vertex="1">
          <mxGeometry x="50" y="340" width="340" height="100" as="geometry" />
        </mxCell>
        <mxCell id="JMF1npg3gaPe0KZ-YMBb-30" style="edgeStyle=orthogonalEdgeStyle;rounded=0;orthogonalLoop=1;jettySize=auto;html=1;exitX=0.75;exitY=0;exitDx=0;exitDy=0;entryX=0.75;entryY=1;entryDx=0;entryDy=0;" parent="1" source="JMF1npg3gaPe0KZ-YMBb-4" target="JMF1npg3gaPe0KZ-YMBb-2" edge="1">
          <mxGeometry relative="1" as="geometry" />
        </mxCell>
        <mxCell id="JMF1npg3gaPe0KZ-YMBb-59" style="edgeStyle=orthogonalEdgeStyle;rounded=0;orthogonalLoop=1;jettySize=auto;html=1;exitX=1;exitY=0.5;exitDx=0;exitDy=0;entryX=0.5;entryY=0;entryDx=0;entryDy=0;strokeWidth=2;" parent="1" source="JMF1npg3gaPe0KZ-YMBb-4" target="JMF1npg3gaPe0KZ-YMBb-42" edge="1">
          <mxGeometry relative="1" as="geometry">
            <Array as="points">
              <mxPoint x="440" y="500" />
              <mxPoint x="440" y="-70" />
              <mxPoint x="640" y="-70" />
            </Array>
          </mxGeometry>
        </mxCell>
        <mxCell id="JMF1npg3gaPe0KZ-YMBb-4" value="&lt;font style=&quot;font-size: 20px;&quot;&gt;&lt;b&gt;Services&lt;/b&gt;&lt;/font&gt;" style="rounded=1;whiteSpace=wrap;html=1;strokeWidth=2;fillColor=#f8cecc;strokeColor=#000000;" parent="1" vertex="1">
          <mxGeometry x="80" y="470" width="280" height="60" as="geometry" />
        </mxCell>
        <mxCell id="JMF1npg3gaPe0KZ-YMBb-16" value="&lt;font style=&quot;font-size: 20px;&quot;&gt;&lt;b&gt;Presentational&lt;/b&gt;&lt;/font&gt;&lt;div style=&quot;font-size: 20px;&quot;&gt;&lt;font style=&quot;font-size: 20px;&quot;&gt;&lt;b&gt;Component&lt;/b&gt;&lt;/font&gt;&lt;/div&gt;" style="text;html=1;align=center;verticalAlign=middle;whiteSpace=wrap;rounded=0;" parent="1" vertex="1">
          <mxGeometry x="88" y="104" width="130" height="40" as="geometry" />
        </mxCell>
        <mxCell id="JMF1npg3gaPe0KZ-YMBb-17" value="&lt;font style=&quot;font-size: 20px;&quot;&gt;&lt;b&gt;Presentational&lt;/b&gt;&lt;/font&gt;&lt;div style=&quot;font-size: 20px;&quot;&gt;&lt;font style=&quot;font-size: 20px;&quot;&gt;&lt;b&gt;Component&lt;/b&gt;&lt;/font&gt;&lt;/div&gt;" style="rounded=1;whiteSpace=wrap;html=1;fillColor=#ffe6cc;strokeColor=#000000;strokeWidth=2;" parent="1" vertex="1">
          <mxGeometry x="60" y="160" width="140" height="120" as="geometry" />
        </mxCell>
        <mxCell id="JMF1npg3gaPe0KZ-YMBb-18" value="&lt;font style=&quot;font-size: 20px;&quot;&gt;&lt;b&gt;Presentational&lt;/b&gt;&lt;/font&gt;&lt;div style=&quot;font-size: 20px;&quot;&gt;&lt;font style=&quot;font-size: 20px;&quot;&gt;&lt;b&gt;Component&lt;/b&gt;&lt;/font&gt;&lt;/div&gt;" style="rounded=1;whiteSpace=wrap;html=1;fillColor=#ffe6cc;strokeColor=#241A00;strokeWidth=2;" parent="1" vertex="1">
          <mxGeometry x="230" y="110" width="150" height="80" as="geometry" />
        </mxCell>
        <mxCell id="JMF1npg3gaPe0KZ-YMBb-19" value="&lt;font style=&quot;font-size: 20px;&quot;&gt;&lt;b&gt;Presentational&lt;/b&gt;&lt;/font&gt;&lt;div style=&quot;font-size: 20px;&quot;&gt;&lt;font style=&quot;font-size: 20px;&quot;&gt;&lt;b&gt;Component&lt;/b&gt;&lt;/font&gt;&lt;/div&gt;" style="rounded=1;whiteSpace=wrap;html=1;fillColor=#ffe6cc;strokeColor=#0A0700;strokeWidth=2;" parent="1" vertex="1">
          <mxGeometry x="230" y="200" width="150" height="80" as="geometry" />
        </mxCell>
        <mxCell id="JMF1npg3gaPe0KZ-YMBb-21" value="&lt;font style=&quot;font-size: 20px;&quot;&gt;&lt;b&gt;Custom Hook&lt;/b&gt;&lt;/font&gt;&lt;div style=&quot;font-size: 20px;&quot;&gt;&lt;font style=&quot;font-size: 20px;&quot;&gt;&lt;b&gt;Component&lt;/b&gt;&lt;/font&gt;&lt;/div&gt;" style="text;html=1;align=center;verticalAlign=middle;whiteSpace=wrap;rounded=0;" parent="1" vertex="1">
          <mxGeometry x="70" y="350" width="140" height="40" as="geometry" />
        </mxCell>
        <mxCell id="JMF1npg3gaPe0KZ-YMBb-22" value="&lt;font style=&quot;font-size: 20px;&quot;&gt;&lt;b&gt;State&lt;/b&gt;&lt;/font&gt;" style="rounded=1;whiteSpace=wrap;html=1;strokeWidth=2;fillColor=#f5f5f5;fontColor=#333333;strokeColor=#666666;" parent="1" vertex="1">
          <mxGeometry x="220" y="380" width="100" height="50" as="geometry" />
        </mxCell>
        <mxCell id="JMF1npg3gaPe0KZ-YMBb-25" value="&lt;font style=&quot;font-size: 20px;&quot;&gt;&lt;b&gt;Event&lt;/b&gt;&lt;/font&gt;" style="text;html=1;align=center;verticalAlign=middle;resizable=0;points=[];autosize=1;strokeColor=none;fillColor=none;" parent="1" vertex="1">
          <mxGeometry x="60" y="290" width="80" height="40" as="geometry" />
        </mxCell>
        <mxCell id="JMF1npg3gaPe0KZ-YMBb-27" value="&lt;b&gt;&lt;font style=&quot;font-size: 20px;&quot;&gt;State&lt;/font&gt;&lt;/b&gt;" style="text;html=1;align=center;verticalAlign=middle;resizable=0;points=[];autosize=1;strokeColor=none;fillColor=none;" parent="1" vertex="1">
          <mxGeometry x="235" y="290" width="70" height="40" as="geometry" />
        </mxCell>
        <mxCell id="JMF1npg3gaPe0KZ-YMBb-32" value="&lt;font style=&quot;font-size: 20px;&quot;&gt;&lt;b&gt;React Router&lt;/b&gt;&lt;/font&gt;" style="text;html=1;align=center;verticalAlign=middle;whiteSpace=wrap;rounded=0;" parent="1" vertex="1">
          <mxGeometry x="80" y="60" width="130" height="30" as="geometry" />
        </mxCell>
        <mxCell id="JMF1npg3gaPe0KZ-YMBb-34" value="&lt;font style=&quot;font-size: 20px;&quot;&gt;&lt;b&gt;App Component&lt;/b&gt;&lt;/font&gt;" style="text;html=1;align=center;verticalAlign=middle;whiteSpace=wrap;rounded=0;" parent="1" vertex="1">
          <mxGeometry x="60" y="10" width="170" height="30" as="geometry" />
        </mxCell>
        <mxCell id="JMF1npg3gaPe0KZ-YMBb-36" value="&lt;font size=&quot;1&quot; style=&quot;&quot;&gt;&lt;b style=&quot;font-size: 20px;&quot;&gt;AuthnContainer&lt;/b&gt;&lt;/font&gt;" style="text;html=1;align=center;verticalAlign=middle;whiteSpace=wrap;rounded=0;" parent="1" vertex="1">
          <mxGeometry x="80" y="-40" width="110" height="30" as="geometry" />
        </mxCell>
        <mxCell id="Kk76nVAmAOadvZrQ_-mG-4" style="edgeStyle=orthogonalEdgeStyle;rounded=0;orthogonalLoop=1;jettySize=auto;html=1;exitX=0.25;exitY=1;exitDx=0;exitDy=0;entryX=0.25;entryY=0;entryDx=0;entryDy=0;strokeWidth=2;" parent="1" source="JMF1npg3gaPe0KZ-YMBb-42" target="Kk76nVAmAOadvZrQ_-mG-2" edge="1">
          <mxGeometry relative="1" as="geometry" />
        </mxCell>
        <mxCell id="JMF1npg3gaPe0KZ-YMBb-42" value="&lt;font style=&quot;font-size: 20px;&quot;&gt;&lt;b&gt;Routes&lt;/b&gt;&lt;/font&gt;" style="rounded=1;whiteSpace=wrap;html=1;fillColor=#fff2cc;strokeColor=#050402;strokeWidth=2;" parent="1" vertex="1">
          <mxGeometry x="480" y="-30" width="320" height="60" as="geometry" />
        </mxCell>
        <mxCell id="JMF1npg3gaPe0KZ-YMBb-54" value="&lt;font style=&quot;font-size: 20px;&quot;&gt;&lt;b&gt;IPO Medication Database&lt;/b&gt;&lt;/font&gt;" style="text;html=1;align=center;verticalAlign=middle;whiteSpace=wrap;rounded=0;" parent="1" vertex="1">
          <mxGeometry x="896.81" y="340" width="80" height="60" as="geometry" />
        </mxCell>
        <mxCell id="Kk76nVAmAOadvZrQ_-mG-5" style="edgeStyle=orthogonalEdgeStyle;rounded=0;orthogonalLoop=1;jettySize=auto;html=1;exitX=0.75;exitY=0;exitDx=0;exitDy=0;entryX=0.75;entryY=1;entryDx=0;entryDy=0;strokeWidth=2;" parent="1" source="Kk76nVAmAOadvZrQ_-mG-2" target="JMF1npg3gaPe0KZ-YMBb-42" edge="1">
          <mxGeometry relative="1" as="geometry" />
        </mxCell>
        <mxCell id="Kk76nVAmAOadvZrQ_-mG-2" value="&lt;font style=&quot;font-size: 20px;&quot;&gt;&lt;b&gt;Service Interface&lt;/b&gt;&lt;/font&gt;" style="rounded=1;whiteSpace=wrap;html=1;strokeWidth=2;fillColor=#f8cecc;strokeColor=#000000;" parent="1" vertex="1">
          <mxGeometry x="480" y="70" width="320" height="60" as="geometry" />
        </mxCell>
        <mxCell id="Kk76nVAmAOadvZrQ_-mG-7" style="edgeStyle=orthogonalEdgeStyle;rounded=0;orthogonalLoop=1;jettySize=auto;html=1;exitX=0.25;exitY=1;exitDx=0;exitDy=0;entryX=0.25;entryY=0;entryDx=0;entryDy=0;strokeWidth=2;" parent="1" source="JMF1npg3gaPe0KZ-YMBb-43" target="Kk76nVAmAOadvZrQ_-mG-6" edge="1">
          <mxGeometry relative="1" as="geometry" />
        </mxCell>
        <mxCell id="JMF1npg3gaPe0KZ-YMBb-43" value="&lt;font style=&quot;font-size: 20px;&quot;&gt;&lt;b&gt;Service Implementation&lt;/b&gt;&lt;/font&gt;" style="rounded=1;whiteSpace=wrap;html=1;fillColor=#fff2cc;strokeColor=#1C180B;strokeWidth=2;" parent="1" vertex="1">
          <mxGeometry x="480" y="112" width="320" height="50" as="geometry" />
        </mxCell>
        <mxCell id="Kk76nVAmAOadvZrQ_-mG-8" style="edgeStyle=orthogonalEdgeStyle;rounded=0;orthogonalLoop=1;jettySize=auto;html=1;exitX=0.75;exitY=0;exitDx=0;exitDy=0;entryX=0.75;entryY=1;entryDx=0;entryDy=0;strokeWidth=2;" parent="1" source="Kk76nVAmAOadvZrQ_-mG-6" target="JMF1npg3gaPe0KZ-YMBb-43" edge="1">
          <mxGeometry relative="1" as="geometry" />
        </mxCell>
        <mxCell id="Kk76nVAmAOadvZrQ_-mG-6" value="&lt;font style=&quot;font-size: 20px;&quot;&gt;&lt;b&gt;Repository Interface&lt;/b&gt;&lt;/font&gt;" style="rounded=1;whiteSpace=wrap;html=1;strokeWidth=2;fillColor=#f8cecc;strokeColor=#000000;" parent="1" vertex="1">
          <mxGeometry x="480" y="200" width="330" height="60" as="geometry" />
        </mxCell>
        <mxCell id="Rx8Aes6J8T8P0xbG0pR--4" style="rounded=0;orthogonalLoop=1;jettySize=auto;html=1;exitX=0.25;exitY=1;exitDx=0;exitDy=0;entryX=0.25;entryY=0;entryDx=0;entryDy=0;strokeWidth=2;" edge="1" parent="1" source="JMF1npg3gaPe0KZ-YMBb-44" target="Rx8Aes6J8T8P0xbG0pR--3">
          <mxGeometry relative="1" as="geometry" />
        </mxCell>
        <mxCell id="JMF1npg3gaPe0KZ-YMBb-44" value="&lt;font style=&quot;font-size: 20px;&quot;&gt;&lt;b&gt;Repository&lt;/b&gt;&lt;/font&gt;&lt;div&gt;&lt;font style=&quot;font-size: 20px;&quot;&gt;&lt;b&gt;&amp;nbsp;Implementation&lt;/b&gt;&lt;/font&gt;&lt;/div&gt;" style="rounded=1;whiteSpace=wrap;html=1;fillColor=#fff2cc;strokeColor=#030201;strokeWidth=2;" parent="1" vertex="1">
          <mxGeometry x="480" y="250" width="165" height="60" as="geometry" />
        </mxCell>
        <mxCell id="Kk76nVAmAOadvZrQ_-mG-18" style="edgeStyle=orthogonalEdgeStyle;rounded=0;orthogonalLoop=1;jettySize=auto;html=1;exitX=0.5;exitY=1;exitDx=0;exitDy=0;" parent="1" edge="1">
          <mxGeometry relative="1" as="geometry">
            <mxPoint x="810" y="520" as="sourcePoint" />
            <mxPoint x="810" y="520" as="targetPoint" />
          </mxGeometry>
        </mxCell>
        <mxCell id="Rx8Aes6J8T8P0xbG0pR--1" value="&lt;span style=&quot;font-size: 20px;&quot;&gt;&lt;b&gt;Medication Database Client&lt;/b&gt;&lt;/span&gt;" style="rounded=1;whiteSpace=wrap;html=1;fillColor=#fff2cc;strokeColor=#030201;strokeWidth=2;" vertex="1" parent="1">
          <mxGeometry x="645" y="250" width="165" height="60" as="geometry" />
        </mxCell>
        <mxCell id="Rx8Aes6J8T8P0xbG0pR--2" style="edgeStyle=orthogonalEdgeStyle;rounded=0;orthogonalLoop=1;jettySize=auto;html=1;exitX=1;exitY=0.5;exitDx=0;exitDy=0;entryX=0;entryY=0.5;entryDx=0;entryDy=0;strokeWidth=2;" edge="1" parent="1" source="Rx8Aes6J8T8P0xbG0pR--1" target="Rx8Aes6J8T8P0xbG0pR--7">
          <mxGeometry relative="1" as="geometry">
            <mxPoint x="920" y="280" as="targetPoint" />
          </mxGeometry>
        </mxCell>
        <mxCell id="Rx8Aes6J8T8P0xbG0pR--5" style="rounded=0;orthogonalLoop=1;jettySize=auto;html=1;exitX=0.75;exitY=0;exitDx=0;exitDy=0;entryX=0.665;entryY=0.95;entryDx=0;entryDy=0;entryPerimeter=0;strokeWidth=2;" edge="1" parent="1" source="Rx8Aes6J8T8P0xbG0pR--3" target="JMF1npg3gaPe0KZ-YMBb-44">
          <mxGeometry relative="1" as="geometry" />
        </mxCell>
        <mxCell id="Rx8Aes6J8T8P0xbG0pR--6" value="" style="fontColor=#0066CC;verticalAlign=top;verticalLabelPosition=bottom;labelPosition=center;align=center;html=1;outlineConnect=0;fillColor=#CCCCCC;strokeColor=#6881B3;gradientColor=none;gradientDirection=north;strokeWidth=2;shape=mxgraph.networks.storage;" vertex="1" parent="1">
          <mxGeometry x="515" y="440" width="87.5" height="80" as="geometry" />
        </mxCell>
        <mxCell id="Rx8Aes6J8T8P0xbG0pR--3" value="" style="shape=image;verticalLabelPosition=bottom;labelBackgroundColor=default;verticalAlign=top;aspect=fixed;imageAspect=0;image=data:image/png,iVBORw0KGgoAAAANSUhEUgAAAfAAAAIACAMAAABKCM5QAAAABGdBTUEAALGPC/xhBQAAAAFzUkdCAK7OHOkAAAMAUExURUdwTAAAAAAAAAAAAAAAAAAAAAAAAAAAAAAAAAAAAAAAAAAAAAAAAAAAAAAAAAAAAAAAAAAAAAAAAAAAAAAAAAAAAAAAAAAAAAAAAAAAAAAAAAAAAAAAAAAAAAAAAAAAAAAAAAAAAAAAAAAAAAAAAAAAAAAAAAAAAAAAAAAAAAAAAAAAAAAAAAAAAAAAAAAAAAAAAAAAAAAAAAAAAAAAAAAAAAAAAAAAAAAAAAAAAAAAAAAAAAAAAAAAAAAAAAAAAAAAAP///zNnkTVokjhrlP7+/vr7/P7+//b4+jxulv39/e7y9kR0mkFxmeXs8Ul4nc7b5Y2rwgQEBDRokZWwxn+gupKuxeLq8PL1+LXI112HqLLG1m2SsGmQr+nv86K6zQICAnSXtLvM2vn6/EJCQszZ5K7D01uFp8HS3tni6nGVs6m/0QwMDD5vl0V1m/z8/eDo7lmEpnmbt2GKqpu0yYmnwOvw9GSMrIGhvNDQ0MbU4MnX4lWBpHeatgcHB1B9oai+0Nzl7Ofu8qzB0u3x9aG5zPT09FlZWSQkJE17n1VVVRMTE9Hd5trk6zZpk1eCpL3O3Iemv6W8z9/f301NTdPe51FRUX2euYSjvRYWFlF+or/Q3Ud2nPH09x0dHZ+3y9TU1LjL2YWkvS4uLgkJCWaNrVN/oyoqKvHx8Z22yurq6tXf6Iypwfb29t7n7ZCsw6KionuduNvb22dnZ9bh6aioqPX3+W+UshAQEGFhYdfX1+fn5+Xl5ff394uLi15eXrDE1Tk5OXx8fO/v7zIyMjY2NsTT35ubmxkZGcjW4U57oM3NzZ+fn/v7+/f5+7q6ujpslbGxsWpqamRkZHFxcSEhIe/z9nR0dMTExIGBgZeXl0ZGRpizyF+IqY6OjsnJye3t7UpKSry8vISEhG5ubvP2+ZGRkScnJ0x5noiIiKurq+Pj426TsYaGhmeOrfn5+bS0tKWlpb+/v5SUlMbGxq6urkp4nnZ2dre3tz4+Pqqqqnl5ecLCwmCIqXh4eOXq7lhEXfoAAABAdFJOUwAQFdzqAQT4/vALVxkIk+FdQ0zm9K/PovwvJtNqnQZHK9jCmiB9xss0Yqc5ZbiPUD8cvXGzbXZUl3qHqoKEPIudhfo0AAAgAElEQVR42uxceVxNaR/XetukZVqkkBZ1W2hRSTNz77k31ERSMaXxipARlSlEorSYkDaFYVosmTRRSmpslaU3kXUaxmSnwUvyMhlen7f3M8Zn5jzPOffce59zzq2379/3nt/z/L7n+e3PGTCgH/RCeaBaD4Yq9Wuij/LrYKWj5eTuxrWzHKKgq8rh/QkVjqqiwhBLO66bh5OW9nC5flX1bshbqbtoOusrqvAogqPgaGKhZdNPfG/D0OGuFtyRqjxJoWhpMkZbvl+PvQEOOhbjTA15KKCrZzGsn3VZtuA6H9sp8hDD1MTaqF+1NEDN3GaYuq2Lhbu9m1kP3NzsP/UY62SrNUrbykheWdS/lQYbcwfx6IIu19q8z3g7OQejwe8x3FxejfFMRX60tYfBCIWPSDWuoqow0tns4zGuNhpKELKdnFV5dMPUXntorz1Mg3Vsx9pzHYfoqoLOjqM6SN+Rq2lhrD7anN4dqtmMMbEUmynDQY4mY9Wt1N4/RMOaq8hjCB/pafWy+F15sJaHgSV1BakojtTTdHEdrIZ8JUbWJqYq0plZR03jYR76KjxGwbGz7iWcy2k7GehzJNymiq6jm5OOESJzb247TpHXe8HRcx0o42RruGoiOQkcfQMXKfMUZW17BV6vh6qblez661FmiDWs6+wxSkOyAFHHQJXXRzBkjCyadvMxdhx69qur5zJaPMOmpG3SZ9j+I4QzGyxjJScXfXp3bDjS3pWqgXewkAFLntD08FRYblrtpSttv7158+Zd271Ll9Nyw06VNE2V7IEjdGSm3yZn7chM/Grqpi6adG09FfZo3noy79Ldlu6zOal8YqTm3Hx5veF42FUxqTe1lYnk3IbLYdSf2euQJG4DbYewQvSsdbevvOiu+54vFrxzWl/cC9sqhnNzUmOZ7YHW+sxr13DEWCuoeZNzYSEFW5fXUF14lC8FSu8cS19HtbXmwiblGu6s5biKBur4yFXOg+FAbVbJ8Qdv9/LR4FZ3Q9guSjt3Ysuwa2hyeGzC0NHpL10GtbES0Z2wqwcJs8T+3+Hbd++g4voDnv10NyxBtOxB1kr/h3S/9+gef6QrSra6VP8y9errtLb2553/rjvSeNTzvarPpZbmxL292NL+rvb2zvWiIrP0F3GefJqQ2nnpquhtazMemNuLQXdESVj6pWvXH7X+dLbu8a3U1NS9exsbS3MKb3Z1Pzrza1ttbv26XZJzruBuNWA0pUgiov7gi9bKc6KVfrSu9XpbbgksiE4IO0Yf2X+i8O5JUXtxZrRvrmxMzXdH1F/+V/XNUkouLK6zJ1N53SRZZUa05a6/97xSXKKe1VU33P7rirbWvkzlM4OcYyI457gzF71pU0h9tuZde1kpwVFIjfv9bm39YZRmf2p9Q5cUUfQPFxvCInoes/5gVySfSdQ1fEvuyl0Zct7jRGn44eWWSik3e6S1vfZkAgK21x//vVF63Ueeba9+xmccnnfSSHWg58AA31rkwXBE3pkjqPZ7rvDAvXppWO85lN783o1b7WQZuqox3fG6gzOZgr+90oX8HJyLu378oUQJV1r3OX4fgGf3z2QVdnrn36xJjvfhg29pC19LL7bVi1d4Lnlwi99nUFhLbOdUrWnMxbjERafbF+n2camtbyiTnntHNpjyvr90clTigqqqqgWJUUnJhySO+o5cIU5cnekaZ7cibDqub6tkRoF7O6+UiLblByvZJPnzxBUnCsoqQoJX+wgxPIQ+q4NDAv1SguZOHy+mkXsXQZiV0lOGsSUqtTw88z2TCn3ckk6Wte2695gdoiOjwrNjn8R7YRQh8F0WWJBZTj2qLL1CZNhV3JWR0z3UjMhZVjMfCEe+fUdw0KcePMKC4S4vCgjdk4FJBGF0YPaUiRTf9Vqior+lBmK+5UfABe185MmS5cx5EAZ69Lw6xtcxOyv4AiYtBJuKgyZTkRYXRmTWR6Od7Ia776YWTza95a2W3L8ZuZIuFhZxKPsVhga+gUFLRcvrJGitGDqhHGqBZmMJb1L5bGPv8w+cR7RTTrs9Z1atmJGyPyswNOTp06e7d39Rsyp/i993C4NOV80U30FFztiDoUJ0wAZRZ+joNYKA3QBZn3wY9C5Wbo44WhmfXD4lfEZ2wH6/srLYrOLiLWUBBWtOzF4xZWOylFaiseXn/3m225RitftTFsY+2SYkUbm/T3So35rTUeIQ71kUj4xybHHxP0XIziGoxFgiys9cYeH5+ucUdZG0cq1fzTay2FWwODokcFp25saJknL+Q3v9AdGv3IaULzvECKbiV8WEz6RO+TZ0lGM+WRsmkIo7AG/ZD0Iyy6wOu/CeR6HneX5uQWi8UKyNfpV/I2jzIRrKk5tvLBNKpPqQmJXU1uN9whch5djXMUmkKVo6vOymTQ/fh6tFbT850+8XCfMUzL+jJqAoEV0r8nxRhY9UIXR0WTgV0uekLEJJuSAknMzZPYcWIwy1pLbnEL7ryb2398riZun3m7Fp+doq6VkfH77EC4X2f7mxb4JIYT9mCTCkxzzlc5JqK9yTu0g56wDx323nyNn2Qbdj4X9ig6ZLQXeU3ySE0VRg+BxRAhN3I2Uc8yojtuyev0JbC+5Slc/B+HwXiTn3nouS7Q+KXrVwoySRvPfsZaiXsmhJpijOi7ajFZkRGEUo6yY0JzeTvEduDo6uNcURip+IrAQB0fSTlAUTxKJ7ztpmelayfC75Qg7ForXrmKCCkPLGXGhCLmllXQ6cXdtJmO0mB0zC6IXPqnmTKdOdspi+hXTEkKdr+zYhFpixhUig511YdZ0rGePKdsCTwohm76O2CDEm0By7Yg4FYz7Pl95lCGpII+jIGNTaEAYQ5QndsGh9nESMfwoW1wiGPzeG+mOM4ULN2iRyvk/vYeLVyyZL1RLnI49kThC8YnWwoTeuBH7cFXhKOjw8n+gnwBhGdEwioa6TQhlahJcfiWWPvIFcKcFVBI4c1kEzEZtxIyBAT4dnxZm+GBtozoRb8xQv5taQEVhOTPkG5EGjIBZuVJ4dhzCuKe7AA3B5Jw96vifXYOzgC6gvjwpmdhWCJcSUH8pHLu7VabioaxDGPcQjXBP//9cw/x1ZcIElvufDOi0T1jC/HEEFcWUoCL21yb8PlXQdEqwbi8O3DpCPwe5vTI9miW6sORmynB0hrKwlIyuZiPHyePSHfCVUUjVYdVMR4yqSHP56XhMs//5mEVt8+8BO1eZXbC3HK+Y8UTGqArkwfz9oLNUNjkVwPqFMuAG+nnoTEh5N82dLwRf2QXa8UIixh44iokO+JgO5sGBo/ekOyLiikaQGHVI/v/+UNe1mQEIX71iMXSwjShTnom8vLIJmKF3g4LoptQ/6qeE/Bn4PUkmNZk+3JyAR8ROMbWTsJ5jYSUKvKv9psCmot+AZd1SWpMRWD94imtzMnmZjwK0ujcZkAK9WEDjyL2nISmGd8tYEidLx4biZh8PgvMPGxeypdTnkDK3GZAP5O+Atjv3oRW2DtdA6wVidwl1DfM8EHFcsn8SeTjeBBZfpHZisYHE4/JAvRF99njQXNvgEhuo24kZsaeCB8mVPoxfAylbUdkyGEAgvf36DviQkDILIaQdHWUUMLyub4j7WAtyz/mwbi/qcB2xxZgcmU/h6A7y0jt4q+qdA5PwGXicWcUkU9/PfgYB4PovaXAWW1+IxGUNGDLSRmUiDIZoGiRfSxHPjQ3EpWS5Qrw5lUZcdQGx6/itM9vAUWmulI7MpBt+to/XAtDrZ1VIn3P0xIEJPYVGRAsBaRoZgsojtsICKv5SGwYxAkPFSYLSRS/J1ZFwR/Rr+aSsFLOrxO2Bz+ZhsQvAPGOOfbUIvKR8swRQCJTfiSN0Y91km/LcdknzYtJSesmRuRGAJrJ/yIw0FogrwjL8EvvVEGKLjPHgL3oEvY1GFXkkyZW5EIRo2ebeDhjO+BRTTgGd8GNFX93BNcLy5WMimBoEkhFVzQ6EIsxl2xmlIKvzAVhL+GpIlAeG4uaaL+DjTi0X97cG3gccHY7INIaxnmkxDFaMAvECNv08M/yLIJ3//0Sm8Qd/NpvqASY9iTNYBrYwk0VAomgHeIMd/lhVK+H/Ju/rgqKorHiqIRcWB2s5U21IVrdShWLXT1ilD9u3mO0vAJLAhLJBAdvPhhhAIiXyTLNhMIR9rqQiJNFHDxKTZiTJJp0WkraVDrDEVmqpNbCsdS2uAWlurI3Q6kITsOfe+u/veu+/d9x7nz928l93723fv+fid30Gyuf9EN/GJXDwi5dIiWcAaKTmYMv4nUR1Zp/sE9RHTdHhvgmWyZzDlQeSRmYI54EG3FQCXtlL094r4U8MCBP3iT+gRv5sC+HfZVbKwyIUjNsdiyRrmpdAiNvNnY50lkns/QoMjKLPQoTbX04iHXi2SM0Z4bLmSVWw9hVjcwp8OeAlvJa9GTb7MgH/wd3SDcjN5bCsClgFc8lNYETpkjKqinOLTo1BVtyHZniOZAtesF38Zr2Qhqx8kEdchxKjBVHVUFyfS6FB972V0+VaRS3bEih56BOJpZGqE/0/WhUhPF1AsjjW9boRvv4liCaeJHvD+DGsBLq0jKYce/gmY9SgGfJHtp38eamKbKcuBH/AsyWq2jCQ+lfF3QxDn6V1mBWUa1Gs6h6JekS76CM7wuiwHuFRJFs9OcN8026D6zGtQHGLqNNaO/r6JnincWJQnWdBGyI6wdu7/BHWkILlGKNMI55l8glwMkUm25WidTkqWtG5C/CmpWOel+g3jEL8e+ugfIpKtyJXCVcZl1gRcCpMNUrwdtzoYDjwBAZ8bCfj9cEjR8+bJY+IH/KBkVQuRHTy82eooFoezLCfL95P9ArHvRMZki9A+WG9ZwJ0HCcSP6/t0oHx6JHsVavAdMw91bB1aonzJujZwRG8WZgrkKJ2DgM+MGGID30GzYkRy/VGrScIWCwMuNRFDTXo490HCiOZjWaVlGJT9HjXrCVyiAKou5kiWNj8Rjh/hqxABy8jvI/G2CcDhVLI34GdaKXCFKtD61FsbcKmb2NQPcb1/Obz5o3JUxjtY5EWR3TyoWXSzZHUjXPUErtTvLfDmr8DhZjJH+CoooRsU6KOfR6szYnnA64gupGqeSXVXKiPXdsPN44DPA6+/Yh7uYj5SIsi0POBSKeG4cV1gWCP9AzzEb6NH4adNk7puQp0Q+yUbWCXRDcazIxIqXL0nk02/k3GEJwnMow+hZjyXHQCXshw6ErZgGPsPCPj4zKMpUDn557CRXeDSLLVM76ASyzyp46YOn5GL9ED8NlYULrCfbBlalwP2AFwqJShP/FQOW6F6PgR8AbWH8HHTkNlQk/UiyS62nKC/cDusiqE4AD3zsoCRSBd4hGeihtts2wAulehGhqiEREZ6hxlUZnsX/vbErcp61Oo0YB/AXVh9bC0vORA/vC/UZnxgDHCo8/G8WRjB6DGokWxky3BsVsDpxtvhbX9Ay61OgtLo8IolwtbEGTRPhpe/EYqxnJTVS1kUiNtHAb8PvPhHs/R4eFEGMtNWgNftxRpPfNQWAvCucMbVdaOAz2Hl2cT5bD7z1OwM2dT5ZBlS4E0P06on88GLb8PfnTgfPc0e3EVZwx3QiX06AP4MjdUGhR8uQra8WbIuS+2GtzSAJ1k0cLlrDIBDKZ+j4IKQsPUY0pMnYArzYr+NR2XcxQL8s6OAA0r6NtiRJm6UCJLZ9NsPcAmrPHVkcgf8MAXwaeC1w/pV7hSZO9UkvoSO1tTDX3TBzQJ8dEv/KnjtL/ACYcMlyk2kIKWb4WaUpdoZjU2ssGwU8FngtRdhU1mdqLXItaaGj8JgHA8uadR8yz5W4uVzFEn8M7AzV1hQBtNs/QO2BJwom23UXDXbwkqtjiZe7mbo6QpjiaKGkxOSTQ0r6nVyjma3UVKrcJDw6+bg/Yd5b3UmtS0o3xbUupXBWO81WB79GiXv8pg5wnA0DqrNroATU3sWa7wflCj9M031405G3kVUrSyz2f5B2ZhX3c9XXKWV1SH+EKXr5IIpSCZttuooY9ohvo46pMQ+Rht+AugPPzVH3gWp/FfZGHA3kvRaqK3RZyVLyOk7VwCfyqCsihriiqLwszYGnKCpa0u3HWfx0h8mM6tIM1uUAl6ZObIBhlgAabEWcYzz3qbw0m9iyTcJ0rBNv3aOcMojrmnwBCTSvEWZUQi6EFahSYSCGkfzHCYp2RnziHs4yhZB2sgbFM2PLzK6EFYLWoJd9i+NRhoiNCbUqr9VXRJL1ec+crLNKTh0SdAKwOarZKfNAU/v58ZuOwvv9GsI+GyyWPZXU3hLabpQts1riIHfrD75MswqlsXfTIoB/M8MnaNNtmwaZVhtAi+OOqQRrF1FIbzcyJguu0/M919uIm1+Y6yBVxvKEpaK0+2U1tEzZthMs0zCujHOKpHcpGrGMqzF/Due0lo2hzHaRhDgUNmlJ9P+gKPw2TGk9j5wGtAHtG5hOEH6HTMAXmbTtnCGoeKBam8Zct3P0PSzIeDvmQDwFOjC7LgWAE9BBNZL6m7jhHyKUzSJF9YTLobh5LehdJPCw1ct8wRRGNfQRgybD/ByO7cJyxniolWru0svMwyfHRVwMdMmUJOR+5oAHIuMqksnQyrgSzAMnzqFAvgxEwCec63Qm1ixqDo/HVbDfwwf8DviKICbISzrsJmeLrJ0f29V+FBJbn5DYeHB/Bzfjvbw/rzKA4iY3aHq3rAh7z80RhuKw82QafOYRSeOtzUVD+XvJQeYUS3BrX3p0ECEb9BE2n4Jh7AIeQLUUPMDtX7vyMjI8ufqm8ypz1manbPQocTUNFchgZeXIeBfog1D+K94zS6k1tXL/OPM7XlZOQXVIPxMK/B1XqozE9q1SzqSHApNTcnIy1JLH4vK4r7NKI9Wi1id7lh7EErzVi7qkVuv5JNhk1Af68oLFKOt0n+CTnrCsxDwz4wCPpNBgAiKWCBY8Emg79ApxSVd0ZYsaVFrinC4U8IrHKpMDfkExjcvxFPHlt3PoDj1iFiikqibzNmKzWtjWzVPe7rYp7szzaHWVBBId4Ib/I4+Xfhe8CokMSaKWKRCdukkY3GHkmXrbxfYaVzZ5VBvyqvCaP4FKp3cNQY4FIBYA/+piMUqYkh/pmQXJChduIWiRjoMlCRpwFtFA6WfOVz4W2OAz2bNOxHRiDAo66z6fT2qli5HyFHepuXxViWJWMWS+xh30tFEo+8LbzVyyXDSXd37VK9dl4B5hr3J2vBu1ur97IZ4x08aHyQNXn1UeDNhLTX/4M7aqGX1ks8b/TX2J2jD27FCa076TYj3LVeHlsHJ4T8RXYteRlHcbAppfFwciQarAlU4tFqa8r0xkTXR6KGrgF8HXn8BXLTBeMBHiMbRjJJEzcvnSDXUdctO0vyBm7U+Kiix+r04+gyri7rOt45lreDHdqWHOMB9OT4bNu47nI+SJhjcWXAwx1cSCpXU5OZv2tM1SNn/PVp3FajJFz/vKuBfB69/ILo+CtODyVk9Dk6WVmvUV/hoUDb5V5YT7j1AJg+dpet6Gxs0Ztpgnm03ZD/EfzOOPpbwnOheo13qz2kPu/RYZFAdzblI5hd3fKs79r1NOfGjjDWybPLEZOEHzaXE6FO8V3f4lpSvz0i53HLodNeer6jZk8ivAMXLYUvM8UbriWzV9qy5od9wDAI+dwLweawJGH2GA56vBOwyX3ebk1ZaaaFhzndys5w1UQ6h5F2lSg+zLsWBPzPPNn8C8HtZmRfjA/FNsYLtaelmrGL6EGXdu4zYsFooqb7SWC7coI1tdIjJWJ05ATgcavTIWsHiC7Hl04Kh56KBl55LXmaAouMWIiILxvjU7NBGIIWew9F4ajGcknl5QjCjLIYMdE+uNyaNgDwP4TfpL1pDHElHmiILKsPZG3wt+Tkl4eUB9taQrzTtspql33RLBN5oBMbrgonK1dHg3lcVcy2kjbjZkN4ffzt+wAsmPu26DR0RBczUQjS3BzYCKp3Lh5hhp2mSfHG0ITcfCiY5DbJdcl+9osQ8Rjyod2iGhRWLxvF2ZhcRTiQ8MCF9Qek00jBT7OPBSMDnM1htSYZXxFlZ841ZzEDWlV7qRnt9Pb6dzmKiTlTj8YwT64Z30vK9YEC2R5P3BHkjux+hyPmM2xxWXGa4gpJ8VrK6Uf7xdHpDe67sDUlp+3Ir/BOwo0Y1vZnXWPG+dfxj0L9Wa+TxDt9SmPt3eliam1OvjwQcjqJ8Gv7fJw3GO1MW7iqGW563FCWrj5+Xi5L0LfHvQP7GmJhBvczPOFLNBAkKK0z9o8rJW3Q+G40CEb9b01Gi1VwyaclO1uHbTrli51Z6HkTfAWhoiImXnT5MdMtvDk2ajvA1smmXyzYZvPkqP1lAXoAn7mKGU14ZZncGJZ+hb3mgVkY2tZD+CYEn3gi/skKhE5ivuoAo6bMg4Pcw6mVGN58MUNalsE9dNjZ4hQcY6DHOKymX0TII07ct4IKGtKx7XTKL7XLDJAj4XeDdT6Ej6RL9hG+M6r7I8pYXDlDO1bCOnx6qlade5SEGaAStVC/DzVaYAEFROGIofwHijeplPxTqptfhZWmJ3kbZIOvYX+lErIevbdLx0xfIsQkqE9kuOpFiVJh3yWIe4dMR4LNY5RODp2AgL311LP++VRbwQkpGI1nHCspGWYJY8Wr8fKMxD074k1is5Zf20rNybBcaNX0VdNONHtQOv3dMwy9SmuUAP0Fz4vUTjXHBvOoIiJtgt/AKXKrt09ItHIBh37/YR3jclFsZbrrR2fRmFfuLLEd0dCrTsJqOc1WJdFZkNdA+4VglhgJRUjbK+k7y4MWf0iQ35d303wrtIK1WkWB0bpYpq6XTXFj9BixABc1+HFm5Owsub+ypHVmU+ninFqpRDTORPp0A/Mvg/dNaW140GRShzIrtonS6ukIVtQ6lX6RZHJWz4jxb3+eKATOFnxF+/V+tYh/h2E1fQ88WGWQFqjyIPlpVNUQvYSXpVhR/kt34quB7Fyq69oCDVQsnjvC4uBngD54yLm6NWvWJeW74R3sJvCeywnA+o0O3vqNGiscYqwU1uMrIhzlFmzjKyqYfZTTs6m45KnkfAzXQRQ4Wy3rAuv2EK9QvXMChPDq5aieYdLaHScBRNv1jbfRJbVaiOkuyPmJX7IHZd48xXpsGwP0aQscBGOP/DNHZZlAAf4ChzpdgLAcCnrd7FF3rD+28zCFKO1iFjunNxvyE4ZbeoCELr8hThr6i4x2I961foQC+gCH04hg2FHCo6aN46ooro5bik+0ypj6wX73jlaWhsczHzKvOpeCN1Pn+xsz5/p+6aw2uqrrCFzEIKKWtyKvWEcV2OhWn2FYrtcw9N7l5vyAgQd4wvCpJeBUoIBogYYIkanjYSiOCji2CUtoAllZKH/KqRFpbp6NQsZYpygyotbTO1Jk2ESzrO/vss/c+e+1zXT/h3pNzzzp777W+9a1vMdvDHJy6uYIeZAa717wxj3KqW7XQaAro1i+T0NkuWj8ZuDrNqcMfidhDqQKBcU0rHmu+O001P/6B7ALiTcn+Iod3ISOGk38Wl/GdGD2QCu1ctOKUOEG3bCfMMcrl5n3586VJWc+E0HpLBmHUOC2Jn4X+cA44h6s+QNO/PI17b0qblygp/Tl9SDQzPARc/ZmbI09hldiSx18RVT9FLWKkUICG0hqMkNQZMFxGv/p6MrCp7FK7VjZF3GnUttQn+WHDaGmCbUx2kSkovdC8aRd+2q+BoNxd7HBKVZ74THzCHw1RyoSBNs5NSbzVtA5L04i0Tq2MnlYooTxI7O9E977kY+/HF7VVszCsytzQeCabpjfDjMO9Yqq3uTYp1l/02eckDWaFLrG2Kp61uNsJ236+KUxYZ5yGw4g7EOu6MMlIYH3Ix37pihQkCHx4irPrI/XiqtpOyp5TH3w+xrjOtlgKsw0I8jeUxH/oRWHURTMJLyyCjXHSYTaHPjf1TldaFB6jsSFSNtvJieGVso9sqAxrc1ohzY3SUxdooAbGdO9NuYaI3hpT9SEKTHovJiVdo7Ko7b341LvoaTuXBcBj4221GqY3z5oW7IGTvw7EurICHQ5R2z4W+EPJWli6Vx90gyXRwtUo5e8tMAQ+qmgp/EfLxKL44Vjb6vjEnIpYEqiq4D5dmwYxcxn3tgZCpbvUYDYB1vYnx9IogS+7NT3nUwLCOjtOqLw/0WR6j2mMDuJs3a6TOJzKtSWfdtaPhbacB9ZtdKJOVdFiRKZqMmRZltAXpf5JiZQP2nW0Qvp7Wpau+MQ7fIabtnf6Z4oUn1uBIe6xRb6jXylzeOKLkpmUtiBtFSvlkdKjTcPbuO5+h1FwWGUYUgKOvkGtcHLBPiXrRlj0iXf4johaxWbQiyKTocTM4T9IS8lN10j9Dby2WYVx0ZxKebQ/Kd8snc109xVFJpBelRltFCqj78KO/mm5w/vTTz8ejT2acWf4PEcdc6AapabKD0InqqrPFObx3oAdvZPc4VlUc/UgXRFVzhw+nictg/4rtsFWI026XLKNKkaQA54cHjTWJsAGyWhO7loKF/AEDyWO+suK0ybRYa6JGgDIfB7U29ETiTtl5HR30AsP0pbKLnQCtWEdRHFPrzRA2rKXSyujITG6T+oleZJcbYkzh9PfvpPpRdrCdv93eQaYnkngArStMxO1YvR2pfyu5AvvmBbzI1ob00p81gm26gsW1MLdWoObgwEAb8GOfnuowxMDJHpt7uS7aiKI28is3LTkrGu1BuKu5frd4cdAKBrmlHXrEe5wWjD7wJUUjjRgtVene8gVsHDc029z2agPwQP14buwwPuE+ztxM/nGk+ec0MBCMAh7g4hGO1L2wWypSIVzPE2/VrVEOgIB5VWFRmfHJ193A0aCVXMxFaaZN29rWqO+8vkmbV54A+X+Hf0+cF26KDgcoJd9JvlFZGvgAkianXHUwakAACAASURBVBV87/K0OajbtXnp0EL4TjJMqktkXyPf2RCLBudSrteszrx5W9NO08VXqMB70e48wSR8tTJ78VK7g3zngXQcDUdsmDeNpdZz/oap2qDVQl1qFAg3noRCWWclfye+Qr+115CRF8nGsrQLp7A+2sr5GxbR3zA+HMMAxYIPNXMO7x+wwG9Sc3iPKyT1E92hDIZGy5i59i683UkrQocV5OuGbcc0OZbFNdIWwq4D1RwOoqvQcDTXicPp6njF3oUfdihGBiCYggBBi16rzzB5En6Dor9BzekxL4pmu5WddxTXCud1OBzJCgyxRj2wBgZ2/g0c/iVVh382KZlD6kahr46LezbMJaMDHBJOkj2ghRLAC/X8AyDN1l3V4VA/+XEMusrTuNLlHe7OcN+Wmx/KH1mhFVJulnOb+iSUjTYcvawPGVmGvC0ioCPcRempVMkUTeILBWtaQtDIGmklXCi2GWDfkI0/cTJbmtaN7rd3YYd5uA+595aHQSkgHVig8e56PwF/98xSd/iV9Ktn3B/is7mINsedIW3tBmp5oSnOPA1EGVG2f5kl4R02OCkZWudVO3B4JRcxxR2W3mEwTC3sCCnTqArvoZ89B3WTroM1HJ7oLDvEHWTiOVGG+0htv7NqWYcBezWMBZpdo/6iH5A3GA3S8TeQIOAQd9COcFoXYzSMBtkrAzkr9cCXUmXVoQZa4/A+0Oc2BfafwCHuAE6fx1aTnepEbjUoZgilOk1Vzk7ovEufHr5SJTzwEIdM/LxjKN1i7QQkSflp18WQmU3WCeslMWVBpRxlG5LQs86ydgT+mvgwLiidq2dNNWjw0o9KP71VdS+lNQGv/jnDuon4EAcliDHsT6mZTQOyzXX8uZTyIELCBtrq3Rb4uQqYSf8qLPBbNf2Nh/haJzLEQaHVDIs7rKNWo0sMxsTXnNbItQJllIAv4D0RKWTzH+IHHQsDzOQq0E131EwYXOKQ/5o5ivcHqi7/AX9f3UXX4XCIr3LMTq/kmjA2yY2ANjGq9+nllqnvQEFp+6N5ci7bt7T9nbhRNqZwBvMjKmFT16Ll8N0u/I1qgNJiREWukv7TPdBQNjwKyiaE06kwAOe0dcHGZlE/b0IMtf2KWo0lvlxlbysB8hQMjg7vCU+EzqX8C1cniMrGa1EB8oCxXnEE26mxxFtVet9GyJkPSv0mITXxN4xUauyk4TY33lKusqsUIR8FS/y86hu5XwmvRQ2AzlkmDqdyTrPOmYq+R994LfKQCvJiaY0EwrKsGjFGIVgCZU/sGBUPpdMltlFh5ULe8HY018Z7dzzisU0wyb6mQRFyWqMCurwE/u7VycjhnfrKJPp4eU6Luapzi1wXBYQAmqwqMiJ8c8OoH2SbgmaUabLTX9ABCKPaNq7RJPfHkJV1LHFgp6QDERU6i3q56CPl8jpZ8npDh1N1n4knHaKrs7lwl1aXkYjs2A1kXtAG/1OCT3wIl3o5EvMhuMVsl+kgDwNjUuVLHatxT8cUn+KB2ALNSAtD6wzez5dpqKNLrUsvWYl0B+fjKWIZh+CDtR1Kx/oC9SA9LBBl8iNcT+VJZxAmB2SZOhz6xA+p3TADlD7X2nV3ONylcInPVmO3LQwD+4H5XI+gy7XG/k58XYau5hYwPp1TTFD64pg0yERwW2uFSuLoAxkbCuUj6bp1N3c46OzuY2OS+qyFZ4XntMWkMtgBtwGiHvAeTw+hhNMeLO/oYxGpTcR6yrTTObtIV/IctePiG+EiSJ9HNRk4vCxX3k/W96ooDqcl0mX14SkiC+JtjXhWF5dS8EcGdXHx7wpxeHMI06VPFH8nbk9KBqBwhjx09xth67K0+zr3mGOHnwVnFVWFn+HQqltMDyXv3wi69IvkcEBXf+rx+CEMS2q2dNUjXoxHeLsdBo+LIMR50qANpLK9X9kCXYToKkhBMOJUVILS1szTHSYCxzZtDqTQbWWhcQZl5JfsllPZdDqEFQS8IDFL8ykDTGNp8VxvIHdr16CDX8T3pkhbHv3PrfD918DfvSP6G8fWveWqH+E4R3hYlueYay04VCDGTvvjINp9mC9d4L9Lak0oU1HhvFymrDzZEQ6ZzuHY0VfE4HCo1ol6C4dJpG3xBN+ATJcuUR2e6COrmO1mozKe5cgHauMhP9AoG9ao/y42BdfDi/PlKl1RUNUA7uq7jhLZ8579ARiQ4FbmxOFwpB96tQjvjgkOXwBG8JHRL+8R3eGQmEE/AhsHsKJNfzRAmDW77o8T2rHx4LUt0tRts2SB74XpJsk7EhbsBnLJ5446AtsoUaHcBo7ekgE7esovCbESilCzAyEIaAj3VmHZpJMNh98mozLyZTa0x7bNwvb7iMGAApYaykwp+gKaH5eIb1a3hSzwITb8jeMR/uio/ADdz/OiX3GNo9NIt4ID6MuRQK7oPSELvNdlVhwOTYWg9jKT66lMt/1iPejFNJ3Jb4tl6Mu3g/KThpqQBX6LHX9DPwKAbd5ppofS1GZZPw/KyI3x+Tu1tFCCvtAoPv3/+s7okAV+xVWWHP4Zet03HfUNL7GL4pa0xTONS+XlI2JxlKFYGgjDPz7REhndT2XsJqOnl3M9lBGeVeIqDJyZUhKnw6vzg+lt4wM6jQ6EgGx9B9pyeOKb9Mq/cFNAOWG1lIl9AKNTsRpKeW0LQpw+7tlEFQkfyHajNX+j2surdpdeYPbyCn2xyiJdDTRrbQr9WUFfJgUkj5MCcgxvHd8CR7DtNc+NWOlom2wLTcVT5+hLY4UQWP14vgzS4d7HBf75hEW7lVx6+G9oawTXaQiaAKVRKMW4IY6M2+HZMLXwIgW4YqUQycyGyQo+mU2bCzyR+KpUlZGreyMn3x4reiOgbDlxO9yHvpQL4YeLoQb2nr7EeIL/zwYmZZMKXe3pEWgvKHk0PxW/HRZKsG4VLqaqIvjwC5iDD7bq8ERvOm6YspVruPb0sYrdd+G2AgQ3qjPA4dOF+oyzhe3ryHt4O2k0YVTdbqKXf9vNgZgNoayxDgSCLvtTmWBAb8ttj8+AonxBY+o0yPMe/TsXyBZQQFnlaE+HwbnGFRQAXZy2EErOGQBYJ/jrI3ViUBVlVa2h6EEFlFnPu4nTywqtnOI4GuRwKpWJSzy/OHWsUvSG3w2b/zOHmMpkl9gQ+hf+Se/ge44eiaGuzCS9IRTODOffTPANp60QYi5v4gK/07q/ka28ylEHBz6SUqPeoKmZUyejBjT5KedrPQGxC9/Xp2exEF2kbaSwp6fZol7wlbfJ5KzMNNAlEO9tFGVqOSgV8gdc4Lcx+Dtxi3RPZ6s1YvddoQGlCphgK3MyxuFY0fFE5BKss+wdjkLZPTgc/mX6R1YHFXu4l3ittruaVsbaEy6170gd3tFMfLotpGqSvJnD34msq2XYi3cf1yOZh0+hWfcKMGEgtziDHI6SqTRq7+glngz/+h76e0AXFocj0WmXq2UDElVe3h7NC0zOqEI42HaJw1cIz7TfJqOOulC0ofTPrKP3MZvtkdwH3Xde5RE9lC3XOv3V5hIPPsXT7btmE1bJXkR/f4HJ37inL6M1Uu8E2zPB9hqvVks9CujOtanMspGBDn9ItAPUI+aSHMrlcIzTD6orvkezAt8imKFTGd/mUE3QBAVsDHJ4O426+JQnH3yQvIbN3xing6JTC18fxx7fs9AQV34KjsDqDHO475Am7EUYceetRZHNvv35HA54+sQzzkTbRvueRp3pgXAglXE2WejvvPYFvjAvhKlqvSwqw9NBpW8j3yMpWeB7HqpZAVZY7808h5flixy+WRSx/RX93e0yTof3o3/sCZD4Z8xvx+X5HogixjouI1rC/0vdlUdFceThIR7g84o+gz7dKD6zu7obNSbubtZk384wnKOICiog+EAFFFBQFESRwxOVEDwQUDxRQUIQURAwovG+MBA0KKhgUNZrUaOiZtW3IQ8iXVdXd1fXTH5/6jDdVd9U1e/4fl9JD83smkIRsJO8NINLUhV36Q3Yc6RmK8cyeEr89DJOgyUmiLe1PkmH/D2vBHNsoKiqtmtfdQEHFJ0q+RWhEuIRXg1FdFbmwCt4VGK7wVSDrqBpbGDLYVYhcwUfMS6jhVBNO5hfO2YaIgcZK56BmcMrPaTM9qLS6IvAfyvilnPBqPRpX3DcL0PtYMTdRCODTdyUI5Vt6mCJSGcInwl6qldAvC0Gqg74H4g0iNuqKpcmo3zZGLITNlP4K7G/Y6KAWze6gSNbCsaiwekSek06W3X/8I9DBvTsOeDff393oHz9dDNzYcnsOE9mgSsK8ZzXEvKWvtYmaz46MYM8tg5opuqwof8a3lV49lr06dJdpnv3HrGtcIy6kxKILDEEEhiU0zlR7xhYjAje3xSKhmTtrTqOGNxWi7YOn8pSWR6qJbWKq3z5uos7cipGrsFldR2FdG47JxMGPCGJDDgo96Bt02rNmg3s+Plnfcy1ZBss48xvD/yAIrjq5OjRWUhdSDI6Jl+kw/TWm6I5jyThDfWSabt3fqf3wO6D/tnlPcsOWjqz6Ck9MdeFKOnkprLgvN4dMx8T1ziKZ132mTTg1g0GPN6H42D0tDKsbXeF6dXVh/leA6ZfgpuS24FQGkAvXDN2M00bcEBUl3gzmWyz+FzqnWaWRKaT+n321/CzknNNSGn1+D3t6OiqYIt+zzgtM+spkQL3CbEqrn7u0iWedNSFuadE6jFx3HyTB7wMQ4aw/VbL0P4ibY2/A/iCxZwpgoGiAevFA+5zUwJCZ28Upq/sZ5k84Nbn3JAjqtIyNYmdh58RKyhqk4D36OTaV9a/A3tgj3jz+4VsAde+KwnwfmS3TV2a/1jZeLO8glxF24p48/WM8db2kKQH064rUfAlTE2KwXh7+YDvKov0OujpMcqk8XZcBNeI8rXM7WMlahBgti1ZvekIMMjHWxdi25yYm55tojWUBJ/EqfB716bKxnVcFM67HyoF8GFC1TbteV6RWfhUHSOLn19mcnA7XUO3HR26KR3puFVX82vuNx22y4vL36TDH+jTTkEFpQjcO1WakS9v69iZ21bT2tsd5zrg06ovJSzqjBUlPwFFTN15iOyq7afAbYvK4sIEXolYAOWH5UNesDfBdPAOmEx8123P40Sh9o5b/yb3PGZCyguV9C+Abhugp22/W40pGTURHsb/tFuqFEB+YKOJwG3jJ/6y6y7sPxmERHp1+vpbNx4VkyciAkC8lyTRCIDMeKZUfVGsmTPgQZT8+vC7tbIRd/AxCbxHJdG+8KGn96rqKr+vKDpSVHGrsq4+91HNOspf/CMlPadgtg1IqNs5s18DC+EhnG7h3VScl4u4fbYJ4J0WouNhG5Ro8fYkR2ZrmSfQt8MDuNfqQoD0knUyp8H4tEanWC54g7eU9lfSV6h9BWyVrKklCP7Pd0Bb3cm6CFnzMM/IeOsX6jiZUL2xlzSS25+JarustWth2rauBuHApK56UvNQ6jTYHjQu4Ht44a3bL5wtKyV3JHjnAVEuU65BMpxQLV6Ni0PTV1x9/CpvuYSIfKUx8fYwcAP8hpKL5fsK5SC0+1U8Gr2C4frRFtEExOoK6rSb3ogb+gFueINFVonSMEBCPeoQIA/Abon7wymo2v+Ip5yirlDPhBFFIZLRb/TFnuuhi1kDXqKoLw2MzJ7L7N8W5wTACbblJylyjLmoMQejw3Fnoy1wREQWfCrl13tOnNzVPcOlij+9L/zzICB/68bIUR8FT8nDagq8LyFyqa53rMsa/Arg/5lkLMADoFf5wfVtjj+c7X6fruQM12isLIj5VUZ8gzI4CWW7ggLvafBaTmouijpmb4Y694yVYz0FNb0LjkKXgCS56BqgunoeMEWSxWEGAxldwDF2YFGN0k+Hh3KJAu/LcLp1wduC6CyoV9NINySMAq8ghXmWHn5uUrG2O+C35vpeWx1Z/6mXZIFW4EZS7V3gASx0vJaIuh5ohw3OwSxsTcSxAX9HRrqXMoUmCWRz0I/WfwsOSZy7aHfCLwtlLfR/x4HqiaX0tiMg+ZIKLPHgc4onZAI8plyaovAF6M9mCKMGG3CrNE5OHVAVxcsinUsOjC8gVYFiTwVmH4xuqfc6LYA/8kb5tVf/EFniU5TOxxw44fIdDSP/e+jPFqcBX9142wQorS7C3dogkgFKCx/vGrj9bFLOxMlhSycvDomNPzvFb9nYZK9IYH/yH42oqEcpITk1l8X7A6d4JvAQhaqm4TCf73wQBd4vSyH/HL7UBrz4zRiRWaTwFbYz+hmNRWhlPAQlec3liAQMAr7kKugXK3rx3bC3kkfD54vLgjzWBwh3MNb4bSlA1sWTyZc6I4sxt6D2E1n3igPMlyDQN1bSrjkL3pey4ijwTs2jy6TtM34oLtQiu8iE3z0f6dRDEsySo3Ck5AvYhaILc5T94mVfyUuwrYYddHT3k43wsuocIwC+ibkeyUZfNAsyShlrFVtCiQLkVyVIooI77iY45qBpwNiyDWauYVaOkEdmMIJE4wzGrBHHrXZIvK/Ano9cgbe/Ad9zBARJLp9xrWgqGGnVWbAgSCPmEYA8hAd/wIXt6zuUJqnGY5ivT2G8LdvJBLwzsMS9wQ3V10XWyyPufqmj2M5PI1KMDbhnrOTWMINDyMDSZ3uA013/ERHZdNPINfAUB9vF5Xm/Bw0UbgfkrdVlSip9AvPNX+HJieEW0zAGl5PJj0J0iMtX6usLOOracpBPIqMre7aD5ISLd/VjJF2XFNsKU1f8b69zFr6qggKOJ14k4SpK6EWJ5vaHYBQMksqky6inwWdRBDHhEnWzKgvTakBqIRN6OHO4A35O+K5ymVZlKXja6/INijsJoVi8v0iCVfJMOh6QwmjyPvn8xde48S4l5c/ShJ/l35MQLXyBRllptXA/Qo69OAM1ZQovUQAz6kFgaOYmLWupT4TeOzMdDXbQtGMvMkklBaK8MyC0/MDYgEtf4Qm7YogtaReQ++KfFGqstwOKZuAllTrdQkmeOiyFX4pguHinF1VFBIsUC8l+71nhp/lfMX1H+AISI9joHYkFxOHXrkKukq6dlCosfwR+5QslJMH54gF46oaSVxQ0ZAP5ehNP4OPh/OkPAH+Amvdp8zp7SpjY8F+cQUuuWmkU23CQbgKiYaAvm+2CV+1dgX9WXV9MyfsgH8qzQG7ka+6Ap4E1vaOeYjIFLnc897rHUlDZa4vQp6D5RwxE1Hv3Ekmp6xbT0p2iN8NxZKt9/ObjTOr2ggaypwDVlPy5Az4b8StNCkwJd4Z58jaN132y126KvUg5+nxMWdG8n4aFdQEP2BrwBXzpuP5OMEX16W95g9Sr39DzunJEolpYLOlL7oB7Yg+jsC98N22f5LfE7+ikKdN9Z4wukEZqK8bRes27M8FbYwaq+WZASRCqyoD+LNwG3/JTTa3/WsKQl4jsjfvgP+FPXB2vToNJZiUuSdWjm4aRgQlWeFOnatKEe0SPNweS3pcyJQw5R0xlJhSxNZ7jDrirGnCXVmFJIm3ZXZHSzhLc1F9B25T4TZVwxaR0WnPR86mEIYetEdNuidyM+LNG7oDHsIfb9md8E1b/DzTs7K+gePeW45A/0iAyfh8DLiD7Not+yCE7RAvbK5GsX/5KrInM8S5PJ2jxmWlY2gBwia+C817kSLdhKo6C/pK699duipd4kucOmuXNX8Urni3ahnsnSIK67ZnirTGD7laBa9MOpDW+C66QlXvjukjQibUF82naCaIxrH7+6vlM20Mz60mEvw7srzDsSNH9YYfPfT24iK2QUbX9/uA+h655xB93s4gjb7z1DKUArlQQy4mWalwyPhyiC0PHuM4epxOQAg/+0BbkZXioGsnZCf60Pf0BWL1D7py2NFZoRxwjs3kthqhyJe0w6GqdakRxIxG1Dm0QoveHWyiqNcTBLt209zq9oKKLqy32m7jLQHiwAPvhT5Vi3O2u3TTq2CCaHm3dZLiEFYlqg27pCb6M99CSYvZJC56dThGmjvsRHqA4BouoXy/eifO+mUYtgzZ1hOPWtMijBeOeuQxV5azD8WCbF/b2ef6SlVK9SMVjA3fA5ykB+/iPdTdp7klo002jnnWCPPVxj5Bz6/62euY8F9kpcQ/bvvSLI5A0QU7e22kJUVzfjjvgwsJ/3orc+3TRV1553SqaFpymHvARnTVq2lCYk4I5gSfG7Lse6e9zbQz6TL2y87dvuAHm0a7JUrd3SV5KnseL3AEXSrg03Ty4ZUPdM7xGbm3EoyeVGzKiJNx7YKVR2T6FnlkoRx5xWysRtv+CtERZZUwvUbWUAu6AC7uCTr+VKj6xvqiyrv50bv7P9/JzTz+5e+zWkZsnL++UKpLfZqhGdevcB2aLF0vGO+8MQQBOZ+suua7lNUb8obe5Az5alE6sxDp80lfDwXr3gBGXusbzBBTVEwjvNNFLAkvOkcDibWWbeePtImRJVzCF23yEmYaPdYQfXvhUEt7FACUZ6cosXhZKFTcneE5yoHvsSN6AzxI+v5ol3F06abjZEPj5O59JwLsGFFE9htuDT03YRU6HjprjvpnwwxL6/0uNnHfJYAj3MA1Ha/8xglNcQo33M8g3CSLURg057hMCNiICcqfQNUdz/s/euQdHVd1xfPMgu3mQF3kCgTzIJkASEiAhDxrvTg1KWhDS0KpVDBIFNEjwUQlCqqVNQqAUChOLFoyAQ8m0ggE6gEB4OYChCAIqyEh4jCgZB0hggMo45VFmz+/uPXd3s+exm/l9/+R1b86Hc+45v/P7fX+6D+rYAnvz/E408EnwfSpYfbvzgwxi5eWj8Rr1jt1wFmt1TbYbTC+auHDxi+vWL5kw4e1Zq9a/Om/xpi/sPqmzRNWMaaJo4P+EgRQ2uBOyAwzC1VurX/1FR7pUfFyu+VPsZ54oUNNy5589Jhc4rIBvZNFgMrrQIEWZRi076/N2res3UzzQS24y5l11Lw8IAv+DaODPwrIBl7/cwwMDDLI0wqT1Smtv61JYSnf0qL7CEveM76s1TvjCgUMPG9caRvsXBHoZZCpN+72WNVIpNH2pFzIs+5Yd78ZPNEM6Y0UDh6HePV2GbUrJz/QzyNYwytst69COtVywt0mtb2P09b5RorgF8IfhVU5Ll2DHpGQM8TK4hXKotnnn1bHWpv3lDvxsBy6xyPM7dIBm0CkauMoN4JbTE9unICczwOA+Gqbjbd3S2dF+dwtX1Na64cI+R3/E8lYXcRddX0t3ZBUN/AP4biecYO2bmJtd6GVwN6WZ9F+7YsGWMif/Vze4gnzG5tV6FryigcM6o2JHPIP9+6Tn5gWmuh/qB3t1o8Jc5ddndA132zcn9D2XRQOHdUbbyRdLDh+Yl5EUXRB5RwXRScH5eX1D+6dm9TO4uwb7sieuHLjh/A17UUfLGnsm26KBQx/Ia+SLFRo8VQP6dB1sVC/qb1386bYT/QeLbx9f6YCrumjgB2lF8IqS5bHADQGDuso7umesv94GoPzkZ44c1No31C5wzEZfdOClUquo6v5Zy8/gwUrr0ofcmHY3Qhthr5NN/cnr26hzvencznrd/oVyI22w0uZzMo/c4NHqndKF5fx+8l2hvwN/tqSufOuezksdrc3tTW1tTe3Nref+2/lj7e4Fdv+mVOAqQx8yrGz2bOAGvxwnJ7kx+cGaFttL4aiNMm/LVOkPq9kYobrL3i3SGQ5kbm2QmSPwYzITIFTpD2RNQa7B8xXm8LqeAHNr+2WYBAEXnOI0np7+kGHoDhriEHKfUJsdav8QXsC3ygQO7T6qyPfKN3QPZUbG2CGQOELLpz8gOEYEcMFZq7A14lEQaDN0FwXlROkUteZTi9Zjh3IB3iIzLx22L+gk3yvH0I00YNhwjbOWMTFZ31GqfwoH4LUyK09gCeWX5HtlG7qXesSH5kdG+d5bp03+CenBfQc7UOIYnsgZuNjasulwkw58j9MM3VM9vbwCnOmtkxrt+u1bYmAczeb7UaHA/wKBg4ZsgQbUfXllu7Sy97q7SyAKYxok1oer3B+AeeIQJE0EavPMXTuY+yaF3VtO8on8OokOELAK4V/gVcMQM5B3YFKCk+lfUfmFDz4eI62/fFaixwusQtgGXncwMraFHv6zdMeyK2KiggPJpk15hMkUBL5IJPDFOlUI8chXW1nhOXFmX91cP9sDAJFbWS7Rp22aThXCAESrm2MR339gXkb08MSUPj4+IT4JUeb0gtyRfcNjtXP9CKPvWxKdGOEx/AYA7o1QGYowk9sNgY9xk2O44oeUGCqQaiYi0k15ps4x3IiQWIpoq7cajvpjAoFP0jmG+yIklgonqlnhqM93k2O4D0JiqTCiyg0CF9nk5k2dY3gKQmKpQuvIroTARbaxmqpzDE9HSCyVStSwQOBPCgT+ls4xfBBCYqlY68gugMBfEQj83zrH8FyExFK9ieoVCPwDcbzH6B3DRyIkpvFYooQBDvtT0pLSYYX8MITEUt7E0MI+K5PEAZ8LgcMimVCExDT0TgwtbGb6sjjgv9bz5OuPkFjKjxhaWH46QVZteBUEnoqQmIpIcofdqVfJqg2/DoFnISOmIrKkm8G4jxcHfCy1NvyO+iEjpiIKUqFNYKkw3qqWhJ9D5x5ExFaE1zNswPOqMODz4Sb9LKymRERsRdjOQO/XZ4QBfxoChx2/hyIitiIqzqFJ8zxhwP8G86OrMZTOU+nWsYWdOZ4QBvw96DsE92wZiIitCDeKDWDgnxUG/H3w3NsKRlZ5Kto6tqfAwM8WBhw2zTsEgY9ARGwVrFC6XI6TlKOsckrHuhPGIorLYB+raZIuR2sx0MZVRK3RDTDwlaKAT9HJUVZieiAitsqmeW8K8+16We9yFHNWWSuUZvIizAKiVO9yFOMurBVOKxB/5FeCgO8Cj22FwOOQEGNlUstHpwsCPo5unK0oeUiIsWKpxWWiao1g/6ofIHA0eGGtLGrpyRwxqK9KnAAABt5JREFUvEfDp27FfBe+IpLalktJTJ+p27/KCwmxljXHqVpKnrIqZfWAgqWjfOUrOW0VnspqVEZyyIe5EmhZjEtknMpUKatJyIe5zJKT2uCp7BJejvIWcSH+lYwcJ91TGVYhsFeSdXiPgrHfJcPPZyvelfEWcT96CIz9VBmFhLsxR5m3CGu+nWDsFwoB/raOnw9u0nmIMO76ScKF+DrYAxeu6MGIh73CaH2NxDTBgC6rZyDwgYiHvXpT70eF2Ou+pZfBGIt42MuLar75koi6slHgkT/C3i/ouslD1h62JyDwmQKAvwMf2YAWbSJjqxXib08m6dWV4Z6Ni4guaDXCPSDg1cnlErR34a84miWAiGA6LDNqhHu23giHh5KtI9whvH70Q52rE1/MSeciIlH5qujY6hFo/nASAI9ENlxE+Ot+L7rY6BW9TTrejfJREK32RECo7TUI/AQmMApQjwhKqE1An5sndKpO/DHswklRtC4Y/C3ToWHXOfyEC1EBLfLC3W71JYtOuks2kuEkoh1lEwCwXnCKcgOewoWIuBG/BgA8zxv4PJ3shxAEw0vxNF8f7q4flTrNbbATAjf5WTvP7wEEHufM+1M4wfcD4OEIRsA2vUFoAelrOu4uxp7IhZuSaM3qXuAL/DnwsKLleCgTpDRr35MdAg12xxTrVBmFIhZ+IkwBWgGDN7gCX6VzCo/BOmGeuzZrcHU/YHCYa9f4cTo1CMORCk9Zk142QghPc+T9e/iopjJc0YUpmRZN5xl6+ZOF3oAyIgCh8JT1SrxsLzyJH+GX+7ACAi8ngUcjE67qF0GpIOWYyKjasrWDFT0MmfDVcEoOhGUTL96Lxurs0UMwm42z+tK6iHPzcppl0clIT0YinJVlovQ24tUY4chE+JgOcAhHHwDuMtPW9OJPBRQgqFpIFyAP7rLaAmypEXAym39YtWUDJSeFyIO7gkyUYJtl1HccgB9UTfDjWEMoL9im8tjlMcWXqB7RVoGGuqKVRstzshS/w9xedbIK+A3QBAHTk0XI2+q5Wq/C8S7ra9HfqB7w8RoSeBrCELymlyy18LxCefg51T9v2QiCLjjBRcdelAsqIJUsb0l/vljNu6oMJ7iMNd26T1/TpELCMPNl0ftq3kW38AsueU1XdTC7s2+bwizCNlXNW5Wsiq0nZezTK9RTvJJRXeHfN9nw3g4alZmRgzB5GelfcUbNpV//ow3voq9J3iYsERYowki7pFkNZjyDz/e6Yhvelm+wTZk0ET3r1BUJd2aiy6WkT06zxW35CgTR/b2RgkD5Ee1PlJtqNJNdO43/cp7G9LZsP4DJ6BJFWKcrdTvUcA67QHx06eMauC01+wDvdEQgVgNMCv1oZrGMmtvVWGrpF1q4LZfPQo8PzHuQuG1Tys7YAHrkdFca0M6Z96gmbktxLZplS1YmOf51NbaMZjvrsDx91kILRTNaIO9BOP7iZSYJtGhQWjHBiUk+eu7iyTTclsv1kLcPVpNJPpnZ5L78vxXK647RfmzVu4ctdO1VNRk1ohm+FEWREKqvabJ64yl7s3zMC29+aNFV81rIG09kbjHFly/VxjX2NL3X9HcfvfjnIosdXdmi4v0QDr0kJQIOF9toyMY+P2GOqinK6CkfvXfwFxb7unxchVuJxFITWUo1ARL79uqAG1U5e9dfT5euLz39zG+nTlthcVBV+9S8zWjoIk/RkMXuvRa22nGyRM27D4bQJcrbH9LY18SU9806NW7FJwhHXabSVDzqmtnhrjqr2PLGiKpc9RiqIrLgM0a4t7WU2fLug/NbtrJUi7pS9kMxi9ldq4FbMWOATb4CbbCUt7tIu/hKuaKlSDRzcQfl2oCpOFXkAu728ys1cSsZeP52C/Uz27L55FoXaddc/bpMG7cxFIfaTRQUosGnvtF52ns3N1QrFPngfYn7KNZfC1HDbed25d+WlyhURePn252UadSktLrTwThM+9VjKxUd+WIVuJspXJu4UnL2lJ0te3HjqZY6RV8FGE31GOJ3L9E2bqj6jxbrf5zZf/xWhWJPIdjuwC1XdX89aNWrl13Yeehox7XWqqozHUcP7Txeu3u54ogikvFyzE13biEKe8UkYSzVfU9nZua4o7EdmTvLL5gpbmPuABxTd9+6+TLD3SsZt+YeIO8CJrRN6SPQzMNTJrmPy7gT8jDLwYPUb5i/K7R98jFo7mnySu7ip9xkTo7H4fNEBfRNcJp2SFwgbtM8WJlxTqzsIdFpeOL2ePUMj+vlQHAlJTgQ92jdRvHZg+i79oiUuOzBGCnvfnu4wQPzByUm+D5wYP7f2IWljcStdAQNR5eoDfcynpGJiYlrmIyoAAA9Li91fKOklwAAAABJRU5ErkJggg==;" vertex="1" parent="1">
          <mxGeometry x="520" y="390" width="77.5" height="80" as="geometry" />
        </mxCell>
        <mxCell id="Rx8Aes6J8T8P0xbG0pR--7" value="" style="shape=image;verticalLabelPosition=bottom;labelBackgroundColor=default;verticalAlign=top;aspect=fixed;imageAspect=0;image=data:image/png,iVBORw0KGgoAAAANSUhEUgAADHMAAAXYCAYAAACAumGrAAAAGXRFWHRTb2Z0d2FyZQBBZG9iZSBJbWFnZVJlYWR5ccllPAAAvRBJREFUeNrs3dFxHMeZwPGGi+/aDHYcAeCXVrVeMIrg5ARQpwh8jsCnCGxHYKoVgKkItHxCFZ6gCG4VgaEIcDPsWe0SAkmAWDR2p3+/qr4ZgDxV8TNIFqr6z+/k9vY2AAAAAAAAAAAAAAAAUMcfjAAAAAAAAAAAAAAAAKAeMQcAAAAAAAAAAAAAAEBFYg4AAAAAAAAAAAAAAICKxBwAAAAAAAAAAAAAAAAViTkAAAAAAAAAAAAAAAAqEnMAAAAAAAAAAAAAAABUJOYAAAAAAAAAAAAAAACoSMwBAAAAAAAAAAAAAABQkZgDAAAAAAAAAAAAAACgIjEHAAAAAAAAAAAAAABARWIOAAAAAAAAAAAAAACAisQcAAAAAAAAAAAAAAAAFYk5AAAAAAAAAAAAAAAAKhJzAAAAAAAAAAAAAAAAVCTmAAAAAAAAAAAAAAAAqEjMAQAAAAAAAAAAAAAAUJGYAwAAAAAAAAAAAAAAoCIxBwAAAAAAAAAAAAAAQEViDgAAAAAAAAAAAAAAgIrEHAAAAAAAAAAAAAAAABWJOQAAAAAAAAAAAAAAACoScwAAAAAAAAAAAAAAAFQk5gAAAAAAAAAAAAAAAKhIzAEAAAAAAAAAAAAAAFCRmAMAAAAAAAAAAAAAAKAiMQcAAAAAAAAAAAAAAEBFYg4AAAAAAAAAAAAAAICKxBwAAAAAAAAAAAAAAAAViTkAAAAAAAAAAAAAAAAqEnMAAAAAAAAAAAAAAABUJOYAAAAAAAAAAAAAAACoSMwBAAAAAAAAAAAAAABQkZgDAAAAAAAAAAAAAACgIjEHAAAAAAAAAAAAAABARWIOAAAAAAAAAAAAAACAisQcAAAAAAAAAAAAAAAAFYk5AAAAAAAAAAAAAAAAKhJzAAAAAAAAAAAAAAAAVCTmAAAAAAAAAAAAAAAAqEjMAQAAAAAAAAAAAAAAUJGYAwAAAAAAAAAAAAAAoCIxBwAAAAAAAAAAAAAAQEViDgAAAAAAAAAAAAAAgIrEHAAAAAAAAAAAAAAAABWJOQAAAAAAAAAAAAAAACoScwAAAAAAAAAAAAAAAFQk5gAAAAAAAAAAAAAAAKhIzAEAAAAAAAAAAAAAAFCRmAMAAAAAAAAAAAAAAKAiMQcAAAAAAAAAAAAAAEBFYg4AAAAAAAAAAAAAAICKxBwAAAAAAAAAAAAAAAAViTkAAAAAAAAAAAAAAAAqEnMAAAAAAAAAAAAAAABUJOYAAAAAAAAAAAAAAACoSMwBAAAAAAAAAAAAAABQkZgDAAAAAAAAAAAAAACgIjEHAAAAAAAAAAAAAABARWIOAAAAAAAAAAAAAACAisQcAAAAAAAAAAAAAAAAFYk5AAAAAAAAAAAAAAAAKhJzAAAAAAAAAAAAAAAAVCTmAAAAAAAAAAAAAAAAqEjMAQAAAAAAAAAAAAAAUJGYAwAAAAAAAAAAAAAAoCIxBwAAAAAAAAAAAAAAQEViDgAAAAAAAAAAAAAAgIrEHAAAAAAAAAAAAAAAABWJOQAAAAAAAAAAAAAAACoScwAAAAAAAAAAAAAAAFQk5gAAAAAAAAAAAAAAAKhIzAEAAAAAAAAAAAAAAFCRmAMAAAAAAAAAAAAAAKAiMQcAAAAAAAAAAAAAAEBFYg4AAAAAAAAAAAAAAICKxBwAAAAAAAAAAAAAAAAViTkAAAAAAAAAAAAAAAAqEnMAAAAAAAAAAAAAAABUJOYAAAAAAAAAAAAAAACoSMwBAAAAAAAAAAAAAABQkZgDAAAAAAAAAAAAAACgIjEHAAAAAAAAAAAAAABARWIOAAAAAAAAAAAAAACAisQcAAAAAAAAAAAAAAAAFYk5AAAAAAAAAAAAAAAAKhJzAAAAAAAAAAAAAAAAVCTmAAAAAAAAAAAAAAAAqEjMAQAAAAAAAAAAAAAAUJGYAwAAAAAAAAAAAAAAoCIxBwAAAAAAAAAAAAAAQEViDgAAAAAAAAAAAAAAgIrEHAAAAAAAAAAAAAAAABWJOQAAAAAAAAAAAAAAACoScwAAAAAAAAAAAAAAAFT0yggAAADadHJyYggAABysHNNieJwNp5vO6XAWJvMivr+4unxtDABATbe3t4YAAADArJ345hcAAKDRbwjFHAAAvIAcU7/z4RhrbAKN8+nZTYfD8q2gAwCoyX0WAAAA5k7MAQAA0Oo3hGIOAAD2IMfUhW180U/PL0IJNcKdz3O8bobzp4ury7VRAAA1uM8CAADA3L0yAgAAAAAA4GNyTGOY0YUSaCzDdntGZzrNGDeo/GU4fzUKAAAAAAB4OjEHAAAAAADwzs6WjX44p2EbcMDomyDmAAAAAACAvRBzAAAAAABAY+5EG8udd/iYzggAAAAAAGA/Tm5vb00BAACgxW8IT04MAQBg5nJMi1A2a4xns2mjNxme4E8XV5fXxgAAPDf3WQAAAJg7mzkAAAAAAGAGckx9KNHGMmwDjoXJsGe+pgAAAAAAYA/EHAAAAAAAcESmaKObzvnOOwAAAAAAAEdCzAEAAAAAAAcox9SF7YaN01CCjTOTAQAAAAAAOH5iDgAAAAAAeEE5pkX4fbTRmwwH6sYIAAAAAADg6U5ub29NAQAAoMVvCE9ODAEAoLIcUx9KrDGe81ACjoXJcCwuri59IwEAVOE+CwAAAHNnMwcAAAAAAOxZjqkL2w0bm20bZyYDAAAAAADASMwBAAAAAABPkGMaI43xnE5P2zYAAAAAAAD4KDEHAAAAAAA8QI5pDDTGUKMfzjJsww0AAAAAAAB4FDEHAAAAAADcMW3b6EKJNc6n985kAAAAAAAA2AcxBwAAAAAAzcoxdaFEGv1wTsM24AAAAAAAAIBnI+YAAAAAAGD2ckyLUCKN8SynZ28yAAAAAAAAvAQxBwAAAAAAs5Jj2kQb3XDOp2dnMgAAAAAAABwKMQcAAAAAAEcpx9SFEmn0wzmd3s9MBgAAAAAAgEMn5gAAAAAA4KDlmBahRBrj2UQbvckAAAAAAABwrMQcAAAAAAAcjBxTH0qsMZ7zUAKOhckAAAAAAAAwJ2IOAAAAAACqyzF14ffbNs5MBgAAAAAAgBaIOQAAAAAAeDY5pnGrxhhp9MNZhhJt9CYDAAAAAABAy8QcAAAAAADsRY6pDyXWGDdtbLZuLEwGAAAAAAAA3ifmAAAAAADgUXJMY6TRhRJrbMKNzmQAAAAAAADgYcQcAAAAAADcK8fUhRJp9MNZ7rwDAAAAAAAATyDmAAAAAABgDDf6UDZsLKfneBYmAwAAAAAAAPsn5gAAAAAAaEiOaYw0ulBijfPpvTMZAAAAAAAAqEfMAQAAAAAwQzmmLpRIow/vb9sAAAAAAAAAXpiYAwAAAADgiOWYFmEbamyijd5kAAAAAAAA4HCJOQAAAAAAjkSOaRNtdMM5n56dyQAAAAAAAMBxEXMAAAAAAByYHFMXtts2TkMJNs5MBgAAAAAAAOZBzAEAAAAA8EJyTIvw+2ijNxkAAAAAAACYNzEHAAAAAEAFOaY+lFhjPOehBBwLkwEAAAAAAID2iDkAAAAAAPYoxzRGGl3YbtvYfAwAAAAAAADwjpgDAAAAAOAz5Ji6UCKNfjjLnXcAAAAAAACAjxJzAAAAAAB8Qo6pD2XDxnJ6jmdhMgAAAAAAAMDnEHMAAAAAAExyTJtQoxvO+fTsTAYAAAAAAADYJzEHAAAAANCcHFMXths2TkMJNs5MBgAAAAAAAKhBzAEAAAAAzFaOaRF+H230JgMAAAAAAAC8JDEHAAAAADALOaY+lFhjjDY2AcfCZAAAAAAAAIBDI+YAAAAAAI5KjmmMNLpQYo3z6b0zGQAAAAAAAOBYiDkAAAAAgIOUY+pCiTT6ULZtjO9nJgMAAAAAAAAcOzEHAAAAAPCickyLUCKN8Wyijd5kAAAAAAAAgLkScwAAAAAA1eSY+lBijTHa2AQcC5MBAAAAAAAAWiLmAAAAAAD2Lsc0RhpdKLHG+fTemQwAAAAAAACAmAMAAAAAeIIcUxdKpNGHsm1jfD8zGQAAAAAAAIAPE3MAAAAAAJ+UY1qEEmmMZxNt9CYDAAAAAAAA8HhiDgAAAADgPTmmPpRYY4w2NgHHwmQAAAAAAAAA9kPMAQAAAACNyjFtQo1uOOfTszMZAAAAAAAAgOcl5gAAAACAmZuijS6UcON05x0AAAAAAACAFyDmAAAAAICZyDF1oYQa/XCWO+8AAAAAAAAAHBAxBwAAAAAcmRzTIpTNGuNZTs/eZAAAAAAAAACOg5gDAAAAAA5YjqkPZcPGadgGHAuTAQAAAAAAADheYg4AAAAAOAA5pk2o0Q3nfHp2JgMAAAAAAAAwP2IOAAAAAKhoija6UMKN0513AAAAAAAAABoh5gAAAACAZ5Bj6kIJNfrhLEMJNkQbAAAAAAAAAIg5AAAAAOApckyLUCKNPpRoo5veAQAAAAAAAOBeYg4AAAAAeICdaGM8u5s2FqYDAAAAAAAAwGOIOQAAAADgjhxTH8qGjfGcB9EGAAAAAAAAAHsk5gAAAACgWTmmMdLoQok1TnfeAQAAAAAAAODZiDkAAAAAmL0c07hVY4w0+uEsQ4k2epMBAAAAAAAA4CWIOQAAAACYlRxTH0qsMW7aOJvOwmQAAAAAAAAAOBRiDgAAAACOUo5pjDS6UGKNTbjRmQwAAAAAAAAAh07MAQAAAMBByzF1oUQa/XCWO+8AAAAAAAAAcJTEHAAAAAAcjBxTH8qGjeX0HM/CZAAAAAAAAACYEzEHAAAAANXlmMZIowsl1jif3juTAQAAAAAAAKAFYg4AAAAAnk2OqQsl0uiHcxq2AQcAAAAAAAAANEvMAQAAAMCT5ZgWoUQa41lOz95kAAAAAAAAAOD3xBwAAAAAPEqOqQ9lw8Z4zkMJNxYmAwAAAAAAAAAPI+YAAAAA4F45pjHS6EKJNU533gEAAAAAAACAJxBzAAAAADQux9SFEmr0w1nuvAMAAAAAAAAAz0DMAQAAANCQHFMfynaN5fQcz8JkAAAAAAAAAKAeMQcAAADADOWYNqFGN5zz6dmZDAAAAAAAAAC8PDEHAAAAwBHLMXVhu2HjNJRg48xkAAAAAAAAAOBwiTkAAAAAjkCOaRFKpNEPZxlKtNGbDAAAAAAAAAAcHzEHAAAAwIHJMfWhhBvLsN26sTAZAAAAAAAAAJgHMQcAAADAC8kxbUKNbjjn07MzGQAAAAAAAACYNzEHAAAAwDPLMXVhu2HjNJRg48xkAAAAAAAAAKBNYg4AAACAPZmijfH0w1nuvAMAAAAAAAAA/EbMAQAAAPBIOaZF2G7aWO68L0wHAAAAAAAAAPgUMQcAAADAR+SY+lA2bIznfOcdAAAAAAAAAOCziDkAAAAAwrtoY9ys0YWyYeN0enYmAwAAAAAAAADsm5gDAAAAaEqOqQsl1NhEG5uPAQAAAAAAAACqEHMAAAAAszRFG+Pph7PceQcAAAAAAAAAeFFiDgAAAOCo5ZgWYbtpYzk9e5MBAAAAAAAAAA6VmAMAAAA4Ch+INsazMB0AAAAAAAAA4JiIOQAAAICDk2Pqh0c3nfOddwAAAAAAAACAoyfmAAAAAF6MaAMAAAAAAAAAaJGYAwAAAHh2OaazUCKN8Xm68w4AAAAAAAAA0BwxBwAAALA3og0AAAAAAAAAgE8TcwAAAACPlmPqQgk1+uEsQwk2RBsAAAAAAAAAAA8g5gAAAAA+KMe0CNtQYxNt9CYDAAAAAAAAAPD5xBwAAADAOzmmPpRtG+M5DyXcWJgMAAAAAAAAAMB+iTkAAACgMTmmMdLoQok1TqdnZzIAAAAAAAAAAHWIOQAAAGCmckxdKJFGP5zlzjsAAAAAAAAAAC9IzAEAAAAzkGPqQ9mwsZye41mYDAAAAAAAAADA4RFzAAAAwBHJMY2RRhdKrHE+vXcmAwAAAAAAAABwPMQcAAAAcIByTF0okUY/nNOwDTgAAAAAAAAAADhyYg4AAAB4QTmmRSiRxniW07M3GQAAAAAAAACA+RJzAAAAQCU5pk200Q3nfHp2JgMAAAAAAAAA0BYxBwAAAOxZjqkLJdLoh3M6vZ+ZDAAAAAAAAAAAIzEHAAAAfKYc0yKUSGM8m2ijNxkAAAAAAAAAAD5GzAEAAAAPkGPqQ4k1xnMeSsCxMBkAAAAAAAAAAB5LzAEAAAA7ckxjpNGF7baNzccAAAAAAAAAALAXYg4AAACalGPqQok0+uEsQ4k2zkwGAAAAAAAAAIDnJuYAAABg1nJMi7ANNTbRRm8yAAAAAAAAAAC8FDEHAAAAs5Fj6kPZtnEatgHHwmQAAAAAAAAAADgkYg4AAACOTo5pE2p0wzmfnp3JAAAAAAAAAABwDMQcAAAAHKwp2uhCCTdOd94BAAAAAAAAAOBoiTkAAAB4cTmmLpRIQ7QBAAAAAAAAAMDsiTkAAACoZoo2xtMPZ7nzDgAAAAAAAAAAzRBzAAAAsHeiDQAAAAAAAAAA+DAxBwAAAJ9NtAEAAAAAAAAAAI8n5gAAAOCTpmjjbDqiDQAAAAAAAAAAeAIxBwAAAO+Zwo1+OKehxBu9qQAAAAAAAAAAwP6c3N7emgIAAECL3xCenPz2PgUcfxnON6Fs3QAAALjP1xdXlytj4KGG7zcXofxDAcfgevj6vvG/GsBhcJ8FAACAubOZAwAAoHE5pv8dHn8zCQAAgNl///ehsKL/wP/L+Uf+c12Y4T8GMMzoMT999YkfH8OQnz/wY9fTj7/38y+uLq99pQIAAABAG2zmAAAAaPUbwpMTIQcAAPBYNnO8gOF7t/7Op7rw+5DidDiLnY+PaSMGH7aezq63dz7e/T0pCAFmw30WAAAA5k7MAQAA0KgfvvxqvNjzH5MAAAAeQczxSPdsw+jC+yHG8s7HIgz2aXcDyHo4v+y8rzfvw+/rtVEBh8Z9FgAAAObulREAAAA06xsjAAAAHqlr9ReeYxoDi83mi7vBxd2tGL0vFQ7E2QO/vjev67CNPMYQ5NfpfbX5ceEHAAAAAOyHmAMAAKBdnREAAAAtfh+RY+p2fi2771+E9y+/9/4np8Hf4909X/9/2/n9s3ldTc9N9HEzvQcbfAAAAADg08QcAAAA7To3AgAAYC7fR9zZnNFPz904owuidtin/s5z9/fj5nWMO8bIYz2cX8J284cNHwAAAAA07+T29tYUAAAAGvTDl1/9FPwrswAAwOP9seYl7BzT5vuWLmxjjPN7Pgccn/XOEXsA73GfBQAAgLmzmQMAAAAAAIDH+Ptw/vzU/0iOqQslxBi3aWy2Z5xOH29+DJi3D/5en7Z7bDZ7jM9fh7MaP764urw2OgAAAACOnc0cAAAAjbKZAwAAeILVcL67uLpcfegn7GzUGEONMdAQagD7tJ7ObuhhowfMiPssAAAAzJ2YAwAAoFFiDgAAYE82/3L+qAtCDeAw/lxaD+fn6bn+WHwGHCb3WQAAAJg7MQcAAECjxBwAAABAY9Zhu83jl+l5fXF1eWM0cHjcZwEAAGDuXhkBAAAAAAAAAA3optPvfjLHNMYcY9jxNtjkAQAAAEAlNnMAAAA0ymYOAAAAgI9ahxJ5/By2WzzWxgJ1uM8CAADA3Ik5AAAAGiXmAAAAAPgsq7CNPGzxgGfiPgsAAABz98oIAAAAAAAAAODB+rDzD2TkmMbHddjZ4iHwAAAAAOBTxBwAAAAAAAAA8DRn03lH4AEAAADAp4g5AAAAAAAAAGD/BB4AAAAAfJCYAwAAAAAAAADq+FTgsbq4urw2JgAAAID5E3MAAAAAAAAAwMu5L/BYhRJ4vA1lg8famAAAAADm5eT29tYUAAAAGvTDl1/9NDx6kwAAAAA4eDehBB6b7R0rI2Hu3GcBAABg7sQcAAAAjRJzAAAAABy1cXPHKmwDj7WRMCfuswAAADB3r4wAAAAAAAAAAI7O2XTeyTGtQwk83oYSd1wbEQAAAMDhspkDAACgUTZzAAAAAMzeKmzjjpVxcEzcZwEAAGDuxBwAAACNEnMAAAAANGcVStwxbu0YA48bI+FQuc8CAADA3L0yAgAAAAAAAABoQh92/nGPHNO7qCNst3eIOwAAAAAqsZkDAACgUTZzAAAAAHDHJu748eLqcmUcvCT3WQAAAJg7MQcAAECjxBwAAAAAfMIqbLd2rIyDmtxnAQAAYO7EHAAAAI0ScwAAAADwCDdhG3e8ubi6XBsJz8l9FgAAAOZOzAEAANAoMQcAAAAAT7AOJe74MZTNHTdGwj65zwIAAMDciTkAAAAaJeYAAAAAYI+uQwk7xq0d18bBU7nPAgAAwNyJOQAAABol5gAAAADgmYxbOt4M520ocYetHTya+ywAAADMnZgDAACgUWIOAAAAACoZN3V8P5yVrR08lPssAAAAzN0rIwAAAAAAAAAAntHZdEKOaR2mrR0XV5dvjAYAAABolc0cAAAAjbKZAwAAAIAXdjOc1XB+HM6bi6vLGyNhw30WAAAA5k7MAQAA0CgxBwAAAAAH5t3GjlDCjrVxtM19FgAAAOZOzAEAANAoMQcAAAAAB+x6ON8HYUez3GcBAABg7sQcAAAAjRJzAAAAAHAkhB0Ncp8FAACAuRNzAAAANErMAQAAAMAREnY0wn0WAAAA5k7MAQAA0CgxBwAAAABHTtgxY+6zAAAAMHdiDgAAgEaJOQAAAACYEWHHzLjPAgAAwNyJOQAAABol5gAAAABgpt4M58dQwo4b4zhO7rMAAAAwd38wAgAAAAAAAABgRr4Zzr+G858c07+G842RAAAAAIfGZg4AAIBG2cwBAAAAQEPGDR2vh/P9xdXltXEcPvdZAAAAmDsxBwAAQKPEHAAAAAA0aow5vh/O64uryxvjOEzuswAAADB3fzACAAAAAAAAAKAhZ8P5+3D+k2P693C+MRIAAACgNps5AAAAGmUzBwAAAAD8Zj2cN8P558XV5do4Xp77LAAAAMydzRwAAAAAAAAAQOu64fzPcP4vx/TTcP7bSAAAAIDnZDMHAABAo2zmAAAA4CNuhnP9iZ8z/vivj/hvXk//3ZfwmO9/vxjO2Ud+fPGJHwfm9Wfh62Bbx4twnwUAAIC5E3MAAAA0SswBAAAwC6t7Pvf2ns/dG1JcXF2ujHB/ckxj5LG48+n74o9lKFsAdvkeHQ7/z9sx6nhjFHW4zwIAAMDciTkAAAAaJeYAAAB4cXe3X6yH88udj9e7P//i6vLa2NpwTxiy+z383e0h90UkwPMY/1z+53BeD38m3xjH83GfBQAAgLkTcwAAADRKzAEAALBXq533Mbj4dXpfh50gwyYMnluOqQvbrR+7W0F2A5D7toUAjzOGHOOWju+GP9vXxrF/7rMAAAAwd2IOAACARok5AAAAPmq18/72vs8LM5iDHNNu2NGFbQhyPj2FH/Bpr4fzvb8X9st9FgAAAOZOzAEAANAoMQcAANCgcWPGzXR+nj63DtvNGdcXV5c3xgT3yzGNUccivB94bKKPzY9By1ahbOpYGcXTuc8CAADA3Ik5AAAAGiXmAAAAZuS+SOO3z11cXV4bEdSRY+pC2e5xX/DRmxCNWIcSdbw2is/nPgsAAABzJ+YAAABolJgDAAA4EqvpOQYZv4adTRr+5XM4TjsbPjbP0+nZmw4zM/59Jer4TO6zAAAAMHdiDgAAgEaJOQAAgAOw2Z5xN9SwTQMalmPqp9fx+UUo0Uc3HThG499too5Hcp8FAACAuRNzAAAANErMAQAAPLNNpDF6Oz1X4/+xUQP4XDtbPfog9OD4rIOo48HcZwEAAGDuxBwAAACNEnMAAAB7sAol2vg5bOMNWzWAFzGFHl0ogcdyeu9NhgP9+/M7cePHuc8CAADA3Ik5AAAAGiXmAAAAHmmMNd4M58fhrC6uLm+MBDgGOaZxk8dZ2EYem/eF6fDCVsP5qwjyfu6zAAAAMHdiDgAAgEaJOQAAgEcYI45vBRzAnIg8OCCvQ9nUsTaKLfdZAAAAmDsxBwAAQKPEHAAAwAONWzi+NgagFTmmbniMpx/O6fR+ZjI8szGY/Odw/iGeLNxnAQAAYO7EHAAAAI0ScwAAAA/054uryzfGALQux9SHEnaMgccYd/SmwjNYh7Kl43Xrg3CfBQAAgLkTcwAAADRKzAEAADzExdXliSkA3G/a4nE2nfPpuTAZ9mA1nL8Ofw9ftzoA91kAAACYOzEHAABAo8QcAADAA6wvri7/aAwADyfwYM++G84/hr+Pb1r7hbvPAgAAwNyJOQAAABol5gAAAB5gdXF1+bUxADzNTuCxiTt6U+ER1qFs6XjT0i/afRYAAADm7pURAAAAAAAAAMDzubi6XIdyIf+3y/g5pk3UcTo9O5PiA8avjX8PXzPj18+3LW7pAAAAgDkScwAAAAAAAABAZRdXl9fD43rzcY5pEUrUsdng0ZsSd3wzfl0MXyvftralAwAAAOboxFpKAACANv3w5Vc/BZcCAACAj1tdXF1+bQwAL2Nne8cYd4zvnakwmf2WDvdZAAAAmDsxBwAAQKPEHAAAwAOIOQAOSI6pC9u4Y3x2ptK0MeSY7ZYO91kAAACYOzEHAABAo8QcAADAA4g5AA5YjmkR3o87zkylSbPc0uE+CwAAAHMn5gAAAGiUmAMAAHgAMQfAERF3NG0dStCxmssvyH0WAAAA5k7MAQAA0CgxBwAA8ABiDoAjlmPqwvtxR2cqs/fd8Hf3/87hF+I+CwAAAHMn5gAAAGiUmAMAAHgAMQfAjOzEHf81PRemMs+/v4fz5+Hv8Jtj/kW4zwIAAMDciTkAAAAaJeYAAAAeQMzB/7N3d8ltW2kagDFdfd/sFYRZQZgbTGFuTK8gygYQaQWJV2B7BVZWYAWzgKZWYOgKVbgZ9goGswNmB3NOCEW0Itn6oUgc4Hmqvj6U5U6bLxhR6sLrDxixKi8W4TjJbjZ3MB6xyBELHXWqT8D9LAAAAIzd30UAAAAAAAAAANNTts06HHFisSNu6Vhm22JHLHjMJZS0eD0/hev6Plznd+IAAACA4bGZAwAAYKJs5gAAAB7AZg6AiaryYp7dbO04kUjSVmHOwnv6JqU/tPtZAAAAGDtlDgAAgIlS5gAAAB5AmQOAP1R5EQsdP2Tb/z9pLpHkxA0sZ/02liS4nwUAAICx+5sIAAAAAAAAAIAvKdtmFSaWAb4NH34f5k22LQiQhkWYT30pBwAAABgAZQ4AAAAAAAAA4MHidocw52FiqeOfYc7CrCQzeLMw/6ry4lQUAAAAcHz/YS0lAADANP33f/7Xp3AsJQEAAHxBXbbNazEA8FD95ocfwsRzJpHBuoibVob8B3Q/CwAAAGOnzAEAADBRyhwAAMADKHMA8GRVXiyzm2LHXCKDE7epnIX3+s0Q/3DuZwEAAGDs/iYCAAAAAAAAAGDfyraJpcA3Yb4NH34f5jxMJ5nBiCWbT1Ve2KACAAAAR6DMAQAAAAAAAAC8qLJt1jvFjjhvwqwlc3SLbFvoWIgCAAAADkuZAwAAAAAAAAA4mLJtujDnYeK2DsWO41PoAAAAgCNQ5gAAAAAAAAAAjkKxYzBmmUIHAAAAHJQyBwAAAAAAAABwdLeKHXHOw3SSORiFDgAAADggZQ4AAAAAAAAAYFDKtlmHeRMmbut4HeYizEYyL06hAwAAAA5EmQMAAAAAAAAAGKyybeowZ2H+GT48C7OSyotS6AAAAIADUOYAAAAAAAAAAJJQts1FmB/Dw7ix432YTiovQqEDAAAAXpgyBwAAAAAAAACQlLJtujDvwsRSx+swF1LZO4UOAAAAeEHKHAAAAAAAAABAssq2qcOchYf/zGzr2DeFDgAAAHghyhwAAAAAAAAAQPLKttnsbOv4MUwtlb1Q6AAAAIAXoMwBAAAAAAAAAIxK2TarMK/Dw1jsuAizkcqzKHQAAADAnilzAAAAAAAAAACjVLZNF+Ys25Y63mdKHc8RCx0fq7yYiQIAAACeT5kDAAAAAAAAABi1sm02Yd6F+Wf4MJY7Oqk8SdzM8UmhAwAAAJ5PmQMAAAAAAAAAmIyybS7CxE0dsdSxlsijxULHRzEAAADA8yhzAAAAAAAAAACT05c6vg8PX4epJfIoJ1VeKHQAAADAMyhzAAAAAAAAAACTVbZNHSYWOpQ6Hue0yotTMQAAAMDTKHMAAAAAAAAAAJN3q9TRSeRBPlZ5sRADAAAAPJ4yBwAAAAAAAABAry91fBsenmVKHQ/xqcqLmRgAAADgcZQ5AAAAAAAAAABuKdvmoi91vAmzkci9YpHjkxgAAADgcZQ5AAAAAAAAAADuUbbNeThiqeO9NO61qPLigxgAAADg4ZQ5AAAAAAAAAAC+oGybTZh32bbUsZLInX6p8uJEDAAAAPAwyhwAAAAAAAAAAA9Qtk0X5sfw8HWYTiJ/8bHKi5kYAAAA4OuUOQAAAAAAAAAAHqFsmzpM3NLxPsxGIn+KRY5/iQEAAAC+TpkDAAAAAAAAAOAJyrZ5F47vw9TS+NOyyotfxAAAAABfpswBAAAAAAAAAPBEZdt0YV6Hhz9mtnRce1vlxVwMAAAAcD9lDgAAAAAAAACAZyrbZhWOb8OspJHNwnwUAwAAANxPmQMAAAAAAAAAYA/KttmEiRs6bOnIsmWVF6deFQAAAHA3ZQ4AAAAAAAAAgD2ypeNPH6q8mHlFAAAAwF8pcwAAAAAAAAAA7NnOlo432XS3dMQixwevBgAAAPgrZQ4AAAAAAAAAgBdSts15OF6HWU80gtMqL5ZeCQAAAPA5ZQ4AAAAAAAAAgBdUtk0scsRCx8VEI3jrVQAAAACfU+YAAAAAAAAAAHhhZdtswpyFh2cTfPrLKi9OvQoAAADghjIHAAAAAAAAAMCBlG1zEY7vw2wm9tRt5wAAAIAdyhwAAAAAAAAAAAdUts062xY61hN62nPbOQAAAOCGMgcAAAAAAAAAwIGVbdOF43U2rUKH7RwAAADQU+YAAAAAAAAAADiCsm022bbQcTGRp2w7BwAAAPSUOQAAAAAAAAAAjiQWOsKcZdMpdNjOAQAAAJkyBwAAAAAAAADA0U2o0GE7BwAAAGTKHAAAAAAAAAAAgzChQsfPrjYAAABTp8wBAAAAAAAAADAQEyl0LKq8WLraAAAATJkyBwAAAAAAAADAgPSFjvXIn+ZPrjQAAABTpswBAAAAAAAAADA8r7NxFzpOq7yYu8wAAABMlTIHAAAAAAAAAMDAlG2zCcePYTYjfpqnrjQAAABTpcwBAAAAAAAAADBAZdt02XZDx1j95CoDAAAwVcocAAAAAAAAAAADVbbNOhxvRvr05lVeLFxlAAAApkiZAwAAAAAAAABgwMq2OQ/HaqRPz3YOAAAAJkmZAwAAAAAAAABg+M7CdCN8XicuLQAAAFOkzAEAAAAAAAAAMHBl22yybaFjbOZVXixcYQAAAKZGmQMAAAAAAAAAIAFl29ThOB/hU1u6ugAAAEyNMgcAAAAAAAAAQDreh+lG9pxeuawAAABMjTIHAAAAAAAAAEAiyrbZhONsZE9r6coCAAAwNcocAAAAAAAAAAAJKdumDsdqRE9pVuXFwpUFAABgSpQ5AAAAAAAAAADS8ybMZkTPR5kDAACASVHmAAAAAAAAAABITNk2XTh+HdFT+s5VBQAAYEqUOQAAAAAAAAAA0nSejWc7h80cAAAATIoyBwAAAAAAAABAgsq2iUWOsWznmLuiAAAATIkyBwAAAAAAAABAusaynWPuUgIAADAlyhwAAAAAAAAAAIka03aOKi8WrigAAABTocwBAAAAAAAAAJC2i5E8j5lLCQAAwFQocwAAAAAAAAAAJKxsmy4bR6HDZg4AAAAmQ5kDAAAAAAAAACB9v43gOdjMAQAAwGQocwAAAAAAAAAAJK5smzocnSQAAAAgDcocAAAAAAAAAADj8Gvif/5XLiEAAABTocwBAAAAAAAAADAOKxEAAABAGpQ5AAAAAAAAAABGoGybLhxrSQAAAMDwKXMAAAAAAAAAAIzHpQgAAABg+JQ5AAAAAAAAAADGo074zz53+QAAAJgKZQ4AAAAAAAAAgJEo26ZO+I8/dwUBAACYCmUOAAAAAAAAAIBx2YgAAAAAhk2ZAwAAAAAAAABgXNYiAAAAgGFT5gAAAAAAAAAAAAAAADggZQ4AAAAAAAAAAAAAAIADUuYAAAAAAAAAAAAAAAA4IGUOAAAAAAAAAIBxmYsAAAAAhk2ZAwAAAAAAAABgXOYiAAAAgGFT5gAAAAAAAAAAGIkqLxZSAAAAgOFT5gAAAAAAAAAAGA9lDgAAAEiAMgcAAAAAAAAAwHi8EgEAAAAMnzIHAAAAAAAAAMB4nIgAAAAAhk+ZAwAAAAAAAABgBKq8iEWOmSQAAABg+JQ5AAAAAAAAAADG4QcRAAAAQBqUOQAAAAAAAAAAxuFEBAAAAJAGZQ4AAAAAAAAAgMRVeXEajpkkAAAAIA3KHAAAAAAAAAAA6ftZBAAAAJAOZQ4AAAAAAAAAgIRVebEMx0ISAAAAkA5lDgAAAAAAAACAtL0VAQAAAKRFmQMAAAAAAAAAIFH9Vo6lJAAAACAtyhwAAAAAAAAAAOmylQMAAAASpMwBAAAAAAAAAJAgWzkAAAAgXcocAAAAAAAAAABp+igCAAAASJMyBwAAAAAAAABAYqq8eBeOuSQAAAAgTcocAAAAAAAAAAAJqfJiHo6fJQEAAADpUuYAAAAAAAAAAEjLxzAzMQAAAEC6lDkAAAAAAAAAABJR5cUv4VhKAgAAANKmzAEAAAAAAAAAkIAqLxbh+CAJAAAASJ8yBwAAAAAAAADAwFV5MQvHR0kAAADAOChzAAAAAAAAAAAMXyxyLMQAAAAA46DMAQAAAAAAAAAwYFVevAvHiSQAAABgPJQ5AAAAAAAAAAAGqsqL03C8lQQAAACMizIHAAAAAAAAAMAAVXmxCMdHSQAAAMD4KHMAAAAAAAAAAAxMX+T4JAkAAAAYJ2UOAAAAAAAAAIAB2SlyzKQBAAAA46TMAQAAAAAAAAAwEIocAAAAMA3KHAAAAAAAAAAAA6DIAQAAANOhzAEAAAAAAAAAcGSKHAAAADAtyhwAAAAAAAAAAEdU5cUyU+QAAACASVHmAAAAAAAAAAA4kiovTjNFDgAAAJgcZQ4AAAAAAAAAgCOo8uJDOD5KAgAAAKbn7yIAAAAAAAAAADicKi/iFo5Y4jiRBgAAAEyTzRwAAAAAAAAAAAdS5cUiHJ8yRQ4AAACYNGUOAAAAAAAAAIADqPLiNNsWORbSAAAAgGn7uwgAAAAAAAAAAF5OlRezcHwIcyoNAAAAIFLmAAAAAAAAAAB4IVVexC0cHzPbOAAAAIAdfxMBAAAAAAAAAMD+VXnxSzj+J1PkAAAAAG6xmQMAAAAAAAAAYI+qvJhn220cS2kAAAAAd7GZAwAAAAAAAABgT3a2cSylAQAAANzHZg4AAAAAAAAAgGeyjQMAAAB4DGUOAAAAAAAAAIAnqvJiFo64jeOtNAAAAICHUuYAAAAAAAAAAHiCKi9OwvEhzFwaAAAAwGMocwAAAAAAAAAAPEKVF/NwfAyzlAYAAADwFMocAAAAAAAAAAAPUOXFLBxvw/wiDQAAAOA5lDkAAAAAAAAAAL6iyotY4IhFjpk0AAAAgOdS5gAAAAAAAAAAuEeVF6fZtsQxlwYAAACwL8ocAAAAAAAAAAC3VHmxDMfHTIkDAAAAeAHKHAAAAAAAAAAAvb7EETdxLKUBAAAAvBRlDgAAAAAAAABg8pQ4AAAAgENS5gAAAAAAAAAAJqvKi5Nw/JwpcQAAAAAHpMwBAAAAAAAAAExOlRen2XYTx1waAAAAwKEpcwAAAAAAAAAAk1DlxSwcp9l2E8dcIgAAAMCxKHMAAAAAAAAAAKNW5cU82xY4TsPMJAIAAAAcmzIHAAAAAAAAADBKVV4ss22J40QaAAAAwJAocwAAAAAAAAAAo1HlRdy8cZptSxxziQAAAABDpMwBAAAAAAAAACSvyotFdrOFYyYRAAAAYMiUOQAAAAAAAACAJNnCAQAAAKRKmQMAAAAAAAAASEqVF3H7xg/ZtsgBAAAAkBxlDgAAAAAAAABg8Kq8WITjp2xb4JhJBAAAAEiZMgcAAAAAAAAAMEhVXszDEbdw/BxmLhEAAABgLJQ5AAAAAAAAAIDB2ClwxC0cC4kAAAAAY6TMAQAAAAAAAAAclQIHAAAAMDXKHAAAAAAAAADAwSlwAAAAAFOmzAEAAAAAAAAAHESVF7G0scwUOAAAAICJU+YAAAAAAAAAAF5MlRfLcPyQbbdwzCUCAAAAoMwBAAAAAAAAAOxRlRezbFvceNWfM6kAAAAAfE6ZAwAAAAAAAAB4liovFuFYhvkpzEIiAAAAAF+mzAEAAAAAAAAAPEq/fWMZ5of+nEsFAAAA4OGUOQAAAAAAAACAr+q3b5yEeZVtCxwM0zrblmtmogAAAIDhUuYAAAAAAAAAAP6iyot59vn2DeWAYduEeV+2zXm4du/C47ciAQAAgOFS5gAAAAAAAAAAYnkjljWW2XbzRtzAMZdKMuI2jrOybdaiAAAAgDQocwAAAAAAAADARFV5scxuChxLiSTpIsybsm02ogAAAIB0KHMAAAAAAAAAwERUebHIPt++QbpieSOWOC5EAQAAAOlR5gAAAAAAAACAkbpV3ojnTCqjsA7zY9k2nSgAAAAgTcocAAAAAAAAADASyhuT8L5sm3diAAAAgLQpcwAAAAAAAABAoqq8WGbb0sZ3mfLG2HVhzsq2qUUBAAAA6VPmAAAAAAAAAIAEVHkRixq3N28wDRdh3pRtsxEFAAAAjIMyBwAAAAAAAAAMUJUX8+zzrRsLqUxOLG/EbRwrUQAAAMC4KHMAAAAAAAAAwABUebHMtoWNV/05l8qkxQLHmW0cAAAAME7KHAAAAAAAAABwYP3Wjd3ixlIq9GzjAAAAgAlQ5gAAAAAAAACAF1TlxSy7KWx8158zyXCH8zDvbeMAAACA8VPmAAAAAAAAAIA9qvJimW3LG9/150IqfEWXbbdx1KIAAACAaVDmAAAAAAAAAIAnUtxgD+ImjndiAAAAgGlR5gAAAAAAAACAr6jyYpbdlDUUN9iHOttu4+hEAQAAANOjzAEAAAAAAMB9ZiIApqjKi3n21+LGXDLsySbMm7JtLkQBAAAA06XMAQAAAAAAwH0W8YZmf2M4MGbh69wy2xY1drdtKLPxUt6HOQ/vrRtRAAAAwLQpcwAAAAAAAPAl/6ry4rWbToHUha9l19s14vmqfzyXDAdShzlTkAQAAACuKXMAAAAAAADwJfGm5/+t8qIO57/DrMNsyrapRQMM0a3Sxnc7j+EYumxb4vC+CQAAAHxGmQMAAAAAAICvmYU56ecPVV7EI27rWPdnLHp0/axt8gBeUvgaFL8uXZc24ti0wdDE98H34f3wXBQAAADAXZQ5AAAAAAAAeKp4M/Wyf3yy+4m+7HFd9Ljqf7mO/+FvJwce6taWjW92Hs+kw4C9D3Ou2AgAAAB8iTIHAAAAAAAAL2XRn8v+fBv/456tHn9+XLbNWnQwHeFrwnLna8U/ss83bkBKLrLtNo5OFAAAAMDXKHMAAAAAAABwDF/b6hHV/Xm92eO6/NG5URbSEf6dnmc35Yw4NmwwNvH96sx7EwAAAPAYyhwAAAAAAAAM1fLW+ae+8NH1c73dI1L4gAP7QlnjemCs6my7iaMWBQAAAPBYyhwAAAAAAACkap7d3Ch+cvuTd2z4iEWP37Nt2WPd/5rSB3xB+Pcobs5Y9B8u+/O7bLtRw2YNpiq+ryhxAAAAAM+izAEAAAAAAMDYLW+dn7mj9LG76aPrJ1qXbbMRJ2Nwq6Qxz26KUa/6U1ED/iq+TyhxAAAAAHuhzAEAAAAAAABby53HJ3f9hp3iR9zssdl5/Psdv27rBwd1q6Cx+/ib7KasoaQBj1dnShwAAADAnilzAAAAAAAAwOMtdh4v7/tNO+WPWPBY73xqtwAS1TuPN2XbrEU8bbeKGdevuesSxm454/bvA/Ynfm1W4gAAAABehDIHAAAAAAAAvLx4w/1y5+Plrc+/3f1gpwQS3S6CRFe3Pr7r9yiFHFG4hss7XgO3Sxevbn28lBwMwkW2LXF0ogAAAABeijIHAAAAAAAADNvtIkiWPfCm/1ulkGv1Pb/99raQ25/bfO1/b6h/e/0dWy7uM89uNl7c9o97/hk2Y8A4xK9xF2F+VeIAAAAADkGZAwAAAAAAAKZl+chff7B7yiMAQ9aF+S3Medk2G3EAAAAAh6LMAQAAAAAAAABMTdw4FLdwXIgCAAAAOAZlDgAAAAAAAABgKi7C/Fa2TS0KAAAA4JiUOQAAAAAAAACAMevC/BbmomybThwAAADAEChzAAAAAAAAAABjVIf5tWyblSgAAACAoVHmAAAAAAAAAADGogsTyxu/2sIBAAAADJkyBwAAAAAAAACQuljg+M0WDgAAACAVyhwAAAAAAAAAQIq6ML+GWdnCAQAAAKRGmQMAAAAAAAAASMUmzEW23cKxFgcAAACQKmUOAAAAAAAAAGDoLsJclm2zEgUAAAAwBsocAAAAAAAAAMAQxeLGZTzLttmIAwAAABgTZQ4AAAAA4LnqncddmHiT1aKfmXgAAIBHUOAAAAAAJkGZAwAAAAC4Vu88Xof5vX+86T++1pVt0z3kH1jlxS/h+CBaAADgCxQ4AAAAgMlR5gAAAACA8YnFi+sboLow/7fzuXrn8YNLGU8V/vnnVV7EP8tHlwUAANihwAEAAABMmjIHAAAAAAxX108Ub276987ndgsbm7Jt1kN9EuHPdlHlxU/h4dIlBQCAyYo/v1wXOGoFDgAAAGDqlDkAAAAA4OV9VrzIPi9ldNlNYSMWH+qRZvBrpswBAABTE3/W+aPAMeKfdQAAAACeRJkDAAAAAB5mt5Bx/fHvOx/XO48HvSnjGEIeqyovYn4zaQAAwKjF8sZVPMPPAZ04AAAAAO6mzAEAAADAFHTZzvaL3tWtj/9S1ijbZiO6varDnIgBAABG9/PWHwWOWOIWBwAAAMDDKHMAAAAAMCaxfBFvHroM09mOMTjxuihzAABA+j931f3397XtGwAAAABPo8wBAAAAwFi8D3Num8ag1SIAAIBkv5eP2w1XSvMAAAAA+6HMAQAAAEDqYnnjtRuKhi/+jb1VXsTrtJAGAAAMWp1tyxtx80YtDgAAAID9U+YAAAAAIHWKHGm5zJQ5AABgaOpMeQMAAADgoJQ5AAAAAEjZe0WO5KzCvBUDAAAcTdxuGH+OUt4AAAAAOCJlDgAAAABSFW9AOhdDWmL5psqLeO1m0gAAgIPosu3mjX9n2/KGQjwAAADAAChzAAAAAJCqVdk2GzGkee3CnIoBAAD2bnfrRjxrPzcBAAAADJMyBwAAAACp+lUEybrMlDkAAGAf6mxb2ohbN9a2bgAAAACkQ5kDAAAAgBRt3KSUtFoEAADwaOvsprhR+5kIAAAAIG3KHAAAAACkaCWCdJVts6nyog4Pl9IAAIA7xe+Xr4sbXfgeuhYJAAAAwLgocwAAAACQoisRJO8yU+YAAIBNti1txJ9xuvjYxg0AAACAaVDmAAAAACBFtQhcQwAASEwsaXTZdttG/H44btzoxAIAAAAwTcocAAAAAKTGDU8jEP+24Sov4nWcSwMAgLH9zNLP9baN+DNMLRaO8DoEAAAABkyZAwAAAIDUrEQwqmv5ixgAAEjUJttu24jzf/FU2mBAOhEAAADAsClzAAAAAJCaKxGM6loqcwAAMHRdZtMGAAAAAHumzAEAAABAamoRjEPZNqsqLwQBAMAQXG/Z6LJ+y0a2LW2sRQMAAADAS1DmAAAAACAlddk2GzGMyirMiRgAADjUzxTZtrjx7+xm48bazxkAAAAAHJoyBwAAAAApuRLBKK+pMgcAAPvS7cz1ho0/tm4obAAAAAAwJMocAAAAAKRkJYJRXtMPYgAYtDrMWdk2XZUXs/B4Eeb6jF7151JUwAH8UczIbrZr/Plx+Dq1Fg8AAAAAqVDmAAAAACAVbs4aof7G4HhdF9IAGKwfr/82+/6s+1+/s2QZvq5flz3m/XzTnzNf74EH6LLPN2soawAAAAAwSsocAAAAAKSiFsGor62bewGGqbsucjzUQ262rvJi2T+c9/OPnfeC6zIIMD7XGzWut2rsfp+/fuzXGwAAAABImTIHAAAAAKm4FMGor+0vYgAYpO4l/qFl29Rf+z1VXsyzbdEjWvbnNzu/pvQBw3FXSaPrx0YNAAAAALiDMgcAAAAAqahFME7xht4qL+KNf27IBWD3/aHLbsok934fEN5D4vvH9VaPeXZT9vhu571lKVF41vffV/0Zv2e7LmZ0/b+nAAAAAMATKHMAAAAAkAI3io1fHeZEDAA8VvgeYZM9ovRZ5cVy58Pdx692Htv6wdhcb87Iss+3Z2S7//48ZGsOAAAAALAfyhwAAAAApGAlgtG7zJQ5ADiAWzer11/7/VVezLObbR/RcufxN7c+pwTCS7r9eo0Fjd/v+fwmvNbXIgMAAACA4VLmAAAAACAFVyIYvVjY+SgGAIam3w7W7fxS/dD/bpUXt8sdtz/+R/9ru+bZ5wUR0hU3YKwf+L3t7deVMgYAAAAAjJwyBwAAAAApqEUwbmXbbKq8iDcsLqQBwIje39b7+J4mvEfO7nmPnGf3Fz++y768JWRKW0S67PNCzn2+ViC+7/opXgAAAAAAj6bMAQAAAMDQ1fFGfzFMwmWmzAEAf9F/L1Qf63+/yot5NqBtISGP2qsCAAAAAEidMgcAAAAAQ3clgslYhXkrBgAYlrJtuuxhmy0AAAAAAHigv4kAAAAAgIFbiWAayrZZh8MWFgAAgOdbiwAAAACGTZkDAAAAgCHb9Df4Mx3KOwAAAM8UfpZWlAcAAICBU+YAAAAAYMhqEUzOpQgAAAAAAACAsVPmAAAAAGDI3Ng/PbUIAAAAAAAAgLFT5gAAAABgyGoRTEvZNhvXHQAAAAAAABg7ZQ4AAAAAhqor26YTwyTZyAIAAAAAAACMmjIHAAAAAEO1EoFrDwAAAAAAADBGyhwAAAAADNWVCKap38jSSQIAAAAAAAAYK2UOAAAAAAapbBvbGabN9QcAAAAAAABGS5kDAAAAgCGqRTB5NrMAAAAAAAAAo6XMAQAAAMAQXYpg2mxmAQAAAAAAAMZMmQMAAACAIapFQKDQAQAAAAAAAIySMgcAAAAAQ7Mp22YtBjIbWgAAAAAAAICRUuYAAAAAYGhsY+BaLQIAAAAAAABgjJQ5AAAAABiaKxEQlW3ThcOWFgAAAAAAAGB0lDkAAAAAGJpaBHg9AAAAPFsnAgAAABguZQ4AAAAAhmTdb2OAa5ciAAAAeBI/XwMAAMCAKXMAAAAAMCS1CNhVtk18TWwkAQAAAAAAAIyJMgcAAAAAQ2ILA3dZiQAAAAAAAAAYE2UOAAAAAAaj38IAt12JAAAAAAAAABgTZQ4AAAAAhsL2Bbw2AAAAAAAAgElQ5gAAAABgKGxf4E5l22zCsZYEAAAAAAAAMBbKHAAAAAAMRS0CvuBSBAAAAAAAAMBYKHMAAAAAMARd2TY2L/AlKxEAAAAAAAAAY6HMAQAAAMAQ1CLgS/qyTycJAAAAAAAAYAyUOQAAAAAYgksR8AC1CAAAAAAAAIAxUOYAAAAAYAhqEfAASj8AAAAAAADAKChzAAAAAHBs67JtNmLgAWoRAAAAAAAAAGOgzAEAAADAsdm2wIP0pZ+VJAAAAAAAAIDUKXMAAAAAcGxuzucxrkQAAAAAAAAApE6ZAwAAAIBj2pRtsxYDj6D8AwAAAAAAACRPmQMAAACAY6pFwGOUbdOFo5MEAAAAAAAAkDJlDgAAAACO6VIEPIHtHAAAAF9nEyYAAAAMmDIHAAAAAMdUi4AnuBIBAADAV/0uAgAAABguZQ4AAAAAjqUr26YTA48VXjdxM8dGEgAAAAAAAECqlDkAAAAAOJaVCHiGWgQAAAAAAABAqpQ5AAAAADiWKxHwDJciAAAAAAAAAFKlzAEAAADAUZRtYzMHz1GLAAAAAAAAAEiVMgcAAAAAx1CLgOco26YLx1oSAAAAAAAAQIqUOQAAAAA4hksRsAe1CAAAAAAAAIAUKXMAAAAAcAy1CNiD30QAAAAAAAAApEiZAwAAAIBD68q2WYuB5+pfRxtJAAAAAAAAAKlR5gAAAADg0GoRsEcrEQAAAAAAAACpUeYAAAAA4NAuRcAeXYkAAAAAAAAASI0yBwAAAACHVouAPbKZAwAAAAAAAEiOMgcAAAAAh7Qu22YjBvalfz2tJQEAAAAAAACkRJkDAAAAgEO6FAEv4DcRAAAAAAAAAClR5gAAAADgkFYi4AXUIgAAAAAAAABSoswBAAAAwKFsyrZZi4F9619XnSQAAAAAAACAVPw/e3dzo7iWhgGYxd0PGYwzKFaWvOKE0BF4OoPpDPpmcENoXScwRQR9WFny5hICIRDCmGmuVKqpAht8jA3PI6FTP2DQCyyO5NefMgcAAAAAY4kiwOcLAAAAAAAAQJkDAAAAgPFsRIDPFwAAwGjWIgAAAIDpUuYAAAAAYCxRBKRSNvWrFAAAAAAAAIC5UOYAAAAAYAy7sqn3YiAxhQ4AAAAAAABgFpQ5AAAAABhDFAEj2IoAAAAAAAAAmANlDgAAAADG4CR7xmAyBwAAAAAAADALyhwAAAAAJFc2tZPsGeNztm+XvSQAAAAAAACAqVPmAAAAACA1RQ583gAAAAAAAADeUOYAAAAAILWtCBjRRgQAAAAAAADA1ClzAAAAAJBaFAFjKZv6+Hk7SAIAAAAAAACYMmUOAAAAAFLal029E8Pnqrz4IoXBRREAAAAAAAAAU6bMAQAAAEBKUQSfq/IitMt/TivD2YgAAABgkYkAAAAApkuZAwAAAICUnFR/3r9PaxDFoKIIAAAAlDkAAABgypQ5AAAAAEgpiuCsL6f1RRTDKZt63y47SQAAAAAAAABTpcwBAAAAQCqxbOqDGD5W5UV482uQyOBMhQEAAAAAAAAmS5kDAAAAgFScTH/e6s3PyyovMpEM6lUEAAAAAAAAwFQpcwAAAACQShTBWct3vweRDKds6l27mAwDAAAAAAAATJIyBwAAAAApHE4n0/O5lwu/czvTOQAAAAAAAIBJUuYAAAAAIAUn0V/2fjLHSiSD24oAAAB4RlVe2GMCAADAxClzAAAAAJCCk+gvCxd+53ZKRQAAwLNaigAAAACmTZkDAAAAgBScRH9GlRfLT/4epDOcsqkP7RIlAQAAAAAAAEyNMgcAAAAAQ9udTqLnc6uef+d6GxEAAAAAAAAAU6PMAQAAAMDQnDx/2WeljbVoBhdFAAAAAAAAAEyNMgcAAAAAQ4siuGj5yd9N5hhY2dS7dtlLAgAAeDKZCAAAAGDalDkAAAAAGNKhbOoohos+m8CRVXmRiWdwryIAAACejL0lAAAATJwyBwAAAABDiiLoJDvzP9M5hrcVAQAAAAAAADAlyhwAAAAADGkjgk6yM/9T5hhY2dQmcwAAAAAAAACToswBAAAAwJCiCM6r8iJcuMtaSkkodAAAAAAAAACTocwBAAAAwFD2ZVPvxXBRduH/QURJbEUAAAA8ERcKAAAAgIlT5gAAAABgKCYfdJNdukOVFysx+XwCAAAAAAAAj0uZAwAAAIChmHzQTZerowYxDes0NWYnCQAAAAAAAGAKlDkAAAAAGETZ1CYfdJN1uM+LmJKIIgAAAAAAAACmQJkDAAAAgCEocnSXdbhPEFMSGxEAAABPwr4SAAAAJk6ZAwAAAIAhbEVwWZUXoeNds/a+S4kNq2zq2C4HSQAAAAAAAAD3pswBAAAAwBBM5uhmlei+dBdFAAAAAAAAANybMgcAAAAAt9qXTb0XQyf/7HHfIK4kNiIAAAAemUmPAAAAMA/KHAAAAADcKoqgsz7TNtbiSsIUGQAAwN4TAAAAuDtlDgAAAABuZdJBd6HHfZ18k0DZ1Id22UkCAAAAAAAAuCdlDgAAAABuFUVwWZUXWc+HLNvHKHSkoYAEAAAAAAAA3JUyBwAAAAC3iKdJB1y2GukxXPYqAgAAwP4TAAAAuCdlDgAAAABuYcJBd9ecTLMW2/DKpt61ixISAADwqJYiAAAAgOlT5gAAAADgFlEEnV1TzHA11XRM5wAAAAAAAADuRpkDAAAAgGsdThMO6Ca74jGrKi9cUTUNU2UAAIBH9SICAAAAmD5lDgAAAACuZbJBR6dCRnblw03nSCOKAAAAeFAuCgAAAAAzoMwBAAAAwLW2IujslkJGEN/wyqY+LBQ6AAAAAAAAgDtR5gAAAADgWiZzdBdueOxafMlsRAAAADygTAQAAAAwfcocAAAAAFxjd5psQDcvNzx2Jb5kFJIAAIBHlIkAAAAApk+ZAwAAAIBrmGjQzy2FjGWVFwodCZRNvW+XvSQAAAAAAACAsSlzAAAAAHCNKIJuqrxYLm6/KqoyRzqmcwAAAI+0B7V/BAAAgJlQ5gAAAACgr0PZ1FEMnYUBjrEWYzJbEQAAAA9kKQIAAACYB2UOAAAAAPqKIuhlNZFj8IGyqU3mAAAAAAAAAEanzAEAAABAXxsR9DLEVI1VlReurpqOQgcAAPAogggAAABgHpQ5AAAAAOgriqCX1cSOw/9TUAIAAAAAAABGpcwBAAAAQB+7sqn3YuimyousXYaaqBEkmkwUAQAA8CD+IQIAAACYB2UOAAAAAPqIIuglDHistTjTOBWUdpIAAAAegKmOAAAAMBPKHAAAAAD0sRFBLy8DHiuIM6koAgAAAAAAAGAsyhwAAAAAdFY2dZRCL4NeEbXKC1dYTUdRCQAAsA8FAAAARqPMAQAAAEBXryLoLUz8eJycikoHSQAAADO3FAEAAADMgzIHAAAAAF1tRdBdlRchwWFfJJuUwhIAADDnfaipHAAAADAjyhwAAAAAdOVE935SnEQTxJqUwhIAAGAfCgAAAIxCmQMAAACALvZlU+/F0Ms6wTGzKi8y0SajsAQAAMyZaY4AAAAwI8ocAAAAAHThJPf+Ul0RNYg2jbKpD+2ykwQAADBT9osAAAAwI8ocAAAAAHSxFUF3p+kZWaLDu9JqWhsRAAAAM92HriQBAAAA86HMAQAAAMBFZVObzNFPyhNogniT8lkHAADm6IsIAAAAYF6UOQAAAAC4JIqgt5RljlWVF0sRp1E29a5d9pIAAABm5l8iAAAAgHlR5gAAAADgko0IelsnPn4QcVJRBAAAwFxUeXHcI64kAQAAAPOizAEAAADAJVEEvYXEx3eSTloKTAAAwJx8FwEAAADMjzIHAAAAAOfsy6beiaG7Ki/GKFqsJZ1UFAEAADCTPWhYmN4IAAAAs6TMAQAAAMA5UQS9hQd5jqdVNvXBZx8AAJiJHyIAAACAeVLmAAAAAOCcjQh6G2Vqxunqq/jsAwAAT6rdF/7RLpkkAAAAYJ6UOQAAAAA4J4qgt9VIzxNEndSrCAAAgKmq8uJLu3yTBAAAAMyXMgcAAAAAn9mVTX0QQ3dVXmSL8a6KupZ4Ou1nf98ue0kAAAAT3HseLyLwQxIAAAAwb8ocAAAAAHxmI4LeViM+VxB3cqZzAAAAk3Iqcvxsb0tpAAAAwLwpcwAAAADwGSey9zfqtIzTSTyksxUBAAAwFYocAAAA8FiUOQAAAAD4yKFs6p0YegsP/nxPpf0OHAtNB0kAAAD3psgBAAAAj0eZAwAAAICPmMpxnbEnZaxFnlwUAQAAcE9VXoSFIgcAAAA8HGUOAAAAAD6yFUE/p5NrxhYkn9xGBAAAwB33ml8XihwAAADwkJQ5AAAAAPiIyRz9hTs857LKi5Xok4oiAAAA7qHd7/3eLj8kAQAAAI9JmQMAAACA93ZlUx/E0Nv6Ts8bRJ9O+13YH78TkgAAAMZS5cWxuH8scXyXBgAAADwuZQ4AAAAA3osiuMq9JmSsRe87AQAAPIYqL7J2+dnevkoDAAAAHpsyBwAAAADvbUTQT5UXxyLH8k5PH7wDyf0pAgAAYIS95XF/99fifhcLAAAAAEakzAEAAADAW4eyqaMYegt3fO7l6YQfEmm/E7vjd0MSAABAKu2+7tvi10SOpTQAAADgOfwmAgAAAADeiCK4yvrOzx+8d8m9trevYgAAAIZU5cWxvPGjvX2RBgAAADwXkzkAAAAAeGsjgqus7vz8a29BclsRAAAAQ6ry4riX/GuhyAEAAABPSZkDAAAAgLeiCPqp8iJrl+zOLyN4J5J7FQEAADDgXvL3xa8iRyYNAAAAeE7KHAAAAAD8bVc29V4MvYUpvIgqL4K3Ip32u3E4fkckAQAA3Lh3y9rbz/bH79IAAACA56bMAQAAAMDfogiusp7I6wjeiuT+FAEAAHCtKi++LX5N47B/AwAAABa/iQAAAACAk60IrhIm8jrW3orkoggAAIC+jtM42uXHQokDAAAAeMNkDgAAAAD+p2zqVyn0U+XFsl2yibyc4B1J/h3ZtcteEgAAQI99o2kcAAAAwIeUOQAAAAA4UuS4TpjSi6nyInhLkosiAAAAOuzPVu3tWOL4o70tJQIAAAC8918B2Lu/47bNvG3AmEzOww7Ct4LwCDM4Ir4Kom0Aq1QQbwXeVGCnAjtoYMUKAh5hBifLVLDYDrgdfM8TUZEsS7ZEEiD+XNcMBoyT9UveJEHgnefG71sRAAAAABBsRXCU9cCeT54oG3RtE7ZrMQAAAE85THB8G7Y30gAAAAC+RJkDAAAAgMhkjuPkA3s+a29J5yoRAAAATynT7DoxiQMAAAB4oW9EAAAAADB7bdHUrRhe53C31dXAnlbunelW+K7sE+UnAADg0+vDPGy/h4cfEkUOAAAA4IWUOQAAAACoRHCUfIhPKi4i8tZ0bisCAAAgXH8twxYLHL8nyvUAAADAK30rAgAAAIDZ24jgKOuBPq88UdDpWpzM8U4MAAAwT4dJjW/D9kYaAAAAwLGUOQAAAACoRHCUfKDPa+2t6VbR1G2ZZm14uJQGAADMx6HEEQscP4dtIREAAADgFMocAAAAAPNWFU29F8NRVgN9Xrm3phdxOoe78AIAwAwocQAAAABd+EYEAAAAALO2EcHrlWmWe36+OyIAAIDJX/stwvbP8PA/YXubKHIAAAAAZ6TMAQAAADBvlQiOknt+81Y0dfzumGoDAAATpMQBAAAA9OFbEQAAAADMVls09U4MR1l7fiS3ZagrMQAAwDSUabZMbssb8TxfgQMAAADolDIHAAAAwHxVIjha7vkRbBJlDgAAGL0yzeI11N/Ddi0NAAAAoC/KHAAAAADztRXB6x0W+YzieRZNXXnHOiVfAAAY9/XddXJb4silAQAAAPRNmQMAAABgvm5EcJR8RM+z8nZ1p2jqtkyzXXi4kgYAAIxDOIdfJrcTOGKJYykRAAAA4FKUOQAAAADmaVc09V4MR1l7njywSZQ5AABg8A5TFmOB41oaAAAAwBAocwAAAADM00YER8s9Tx6IE27eigEAAIbnMIXjKmw/J6ZwAAAAAAPzjQgAAAAAZulGBK93uJPrmJ7vlXetW0VT78LOlBsAABjYtVDY/hUe/ids7xJFDgAAAGCATOYAAAAAmJ/9YQE6r5eP7PmuE8WdPsSMr8UAAACXU6bZKuz+fjg3X0gEAAAAGDplDgAAAID5qURwtPXInm/uLevFNlHmAACA3pVptgy7OJHw58T0DQAAAGBklDkAAAAA5mcjgqPlI3u+qzLNFkVT7711nYqTOT6IAQAAuvegwBGncKwkAgAAAIyVMgcAAADA/FQieL0yzfKRPvX4vG+8g92JZZnw+agSk1AAAKCr67FlosABAAAATIwyBwAAAMC87IqmbsVwlHykz3udKHP0YZMocwAAwNkocAAAAABTp8wBAAAAMC+VCI62Hunzzr11vlsAADAGChwAAADAnChzAAAAAMzLVgRHy0f6vFdlmi2Kpt57C7sT8t2FnNvwcCkNAAB4uXAeHUsbsbxx5XwaAAAAmBNlDgAAAIAZKZr6RgqvV6ZZPvKXEJ+/9757VdiuxQAAAF+9xorFjR+T2wLHQiIAAADAHClzAAAAAMyHxfzHy0f+/Nfe/15sEmUOAAD4TJlmy8N11V2Bg279cti/FQUAAAAMlzIHAAAAwHxsRXC09ciff+4t7F6cfFOmmSAAACD5a8Lhj4frkZVEerEP29/CtUkV8v+nOAAAAGDYlDkAAAAA5sNkhuPlI3/+qzLNFkVT772VvXzP3GkYAIDZeTR9I+4XUunVLmz/z3UfAAAAjIcyBwAAAMA8tEVTt2J4vTLNprIwP08UevoQJ+AocwAAMJfrpXidYfrG5b0P1/z/EAMAAACMizIHAAAAwDxUIjjaekKvQ5mjezHjd2IAAGCKyjSLhY38cH2hxHx5cQrHT0VTu9YDAACAEVLmAAAAAJiHjQiOlnsdvFScgFOm2S5xV2IAACYgnNsuD9cSd9M3FlIZjHjd8TdTOAEAAGC8lDkAAAAA5qESweuVaRYXKk1lUf4qvp6iqffe2V6+b8ocAACM8RpomdxP3oj7pVQG6X24tvuHGAAAAGDclDkAAAAApq+ygP9o+QRfz423tXNxEs4bMQAAMHTKG6MTr+1/Ctf4rusAAABgApQ5AAAAAKZvI4KjrSf2en5MlDk6VzR1VaZZXGS1kAYAAEMSzlPjBLk8bD8kyhtjE6/lfnKzBgAAAJgOZQ4AAACA6atEcLTc6+GE792VGAAAuKQyzfLk0/KGwvH4mMYBAAAAE6XMAQAAADBt+6Kpd2J4vTLN4iKn1cRe1jK8rmX4TLTe4c7FiTjKHAAA9HkNszxcw6wP+1wqo1eF7W+mcQAAAMA0KXMAAAAATJs7dx4vn/Dr+ujt7eW790EMAAB05dHUjVjeWEplMmJ545eiqd+LAgAAAKZLmQMAAABg2rYiONp6wq/ro7e3W/HOuWWaxak4K2kAAHCqcG55N2njrrjhPHO6YjH8J9M4AAAAYPqUOQAAAACmzWSO4+VeFyfaJBbZAQDwSofiRtzuihvO4echljdiicN1PAAAAMyEMgcAAADAdO3cyfM4ZZotkukuwl+G17cMn43WO925uAjrrRgAAPjCtUd+uPb4PlHcmLP3YfvFNTwAAADMizIHAAAAwHRtRHC0fAav76O3uVtFU+/KNIuLsRbSAACYtweF8XguHiduLBNT3EiSXdj+Ea4dKlEAAADA/ChzAAAAAEzXjQiO9uPEX986Uebo83t4LQYAgPk4TNtYHrZ47h1LGwq+PBRL378WTf1PUQAAAMB8KXMAAAAATNM+TgUQw9Fyr48ziRNyrsUAjJjFxwDPKNMsljSWyW1Z44fDfikZviIWvuM0jlYUAAAAMG/KHAAAAADTVIngOGWaLZPpL8Baxtdp8ZDvIsALrMJvxiL8ZuxFAcz4GiFP7idt/JDcFzjgNeL110/hN9U1AgAAAPAnZQ4AAACAadqI4Gj5jF7nR293t+Li5zLNqsQ0FGDc3oXtJzEAU/ag1B1LGt8n91M2ltLhRLEQ+Uu4NngvCgAAAOAhZQ4AAACAaapEcLT1TF7nj4kyR19iuSoXAzBi14dFzr/GcwxTOoCxipOGkk9LGnHKxsK5Gh2KBY5f/HYCAAAAT1HmAAAAAJieXdHUrRiOlnudnFklAmAivxt//naUafbw2La9O/9Ibu88vrNgFbikRxM2YlFDYYNLuAnbPy58bf69twEAAACGTZkDAAAAYHoqERznwcKvOViE17sqmnrnne9WzDhk3c7oswXMQ/5o//D3NO7aB9t/k0PR43BcdK4CnHLOfjdd427/3aN/hktfj/8ykN861x8AAAAwcMocAAAAANOzEcHR8hm+XmWOfsQ7874RAzAjy+SZRaSHskdUHfbxt+h/yX35Q+EDZkxZg5GKv1+xxPFRFAAAAMBLKXMAAAAATIzFjydZz/D1vve292KbKHMAPJY/2v/lQeEjFj32h+2Pw5/dneu04bynFSOMS/h+333n7woa3yf3BbClhBiZ+DukxAEAAAAcRZkDAAAAYFpuRHCSq5m93txb3o+iqW8eLEwG4OVWT/xOv737gyemfLRh++/h8V9FkHAcNokKOvZgosbD88y7ooapGkxN/H2JJQ7leAAAAOBoyhwAAAAA07IVwXHKNLu7M/CcLOLrtsC1N7FsdSUGgE7kX/mdv3vYHrYo/v7978HjuDDXlDP4/PuzTO4nZtydM3+X3Jcz5ngezXzF34pfw/Y+/F7sxQEAAACcQpkDAAAAYFpM5jhePuPXrczRj02izAFwacvkflH6k7/9jyYpVQ8ePyx/tMl9KcTkD0bn0RSNh9+LH5L7YkYuKfiLEgcAAABwdsocAAAAANPRFk3diuFo6xm/7vfe/l5UIgAYnfyZx594VAD5a8rHYf/Hw/O15L4E4vyNs3k0Ze5hUePhBI0vfo6Bp6+zw/ZL2G6UOAAAAIBzU+YAAAAAmA5TOU6Te910KS7WLdMsLvBdSQNg0h4f5784lelRESQuFH485WP76J+f+m9MBxm5R5MynjtPe1g+XjingE61YfslHFs/igIAAADoijIHAAAAwHRsRXCcR3cynptFeP150dSVT0IvYs4WXgLw7O9y8vkC/vyF5zPP/e685rzxqaLIQ7OeJBIyXobd8gvv3VO/8d898+e5jzsMUjwG/qrEAQAAAPRBmQMAAABgIoqmNpnjeLnX/+xiT85rE7Y3YgDgwuc4R5/7PFMaeexrpZChMeUCiNdDvyi5AwAAAH1S5gAAAACYhkoEJ1l7/fQhLg4r0ywucF1IA4AJe2rCCMAQfUxuSxytKAAAAIC+KXMAAAAATMNGBCfJvX56FKfoXIsBAAAuog3bb2F7XzT1XhwAAADApShzAAAAAExDJYLjlGm2SkxJiDnkcWqET0QvtokyBwAAXOK6+bdw3fNRFAAAAMAQKHMAAAAAjF9bNPVODEe7EsGf8kQpqC9xMscHMQAAQOf2h/PvX103AwAAAEOjzAEAAAAwfpUITrIWgRz6VDT1vkyzuJBsJQ0AAOhEPN/+NWw38fxbHAAAAMAQKXMAAAAAjN9GBCfJRSCHC31vlTkAAOB8TOEAAAAARuUbEQAAAACMXiWC45RplkvhkzyupNCbGxEAAMDZrol/Ctv/FU39kyIHAAAAMBYmcwAAAACM265o6r0YjpaL4BPrRMmgF3GBWZlmbXi4lAYAALxam9xP4WjFAQAAAIyRMgcAAADAuG1EcJK1CD6Ri6BXVdiuxQAAAC8Sb2QQCxy/FU1diQMAAAAYO2UOAAAAgHEzReE0uQg+sSrTbGHaS29iGetaDAAA8NXr3k24TvkoCgAAAGBKlDkAAAAAxmtfNPVODMcp0yyXwpNiLkpC/ahEAAAAT/qzwBH3yuYAAADAVClzAAAAAIyXBfenyUXwpLXPVj/iorQyzSqfRQAA+OsaV4EDAAAAmA1lDgAAAIDx2orgJGsRPCkXQa82MgcAYMYUOAAAAIDZUuYAAAAAGC/TE06Ti+BJqzLNlkVTt6Lo7Xv8TgwAAMxELGxUiQIHAAAAgDIHAAAAwEjtLHo5XplmuRS+KObzUQzdi6WZ8Hlsw8OlNAAAmKh4vluFbRPOf92UAAAAAOBAmQMAAABgnCoRnCQXwRetE2WOPsUFbW/EAADAhOyS++kbO3EAAAAAfE6ZAwAAAGCcNiI4yY8i+KJcBL3aJsocAACMW5wceXM4t70xSRIAAADg65Q5AAAAAMZnXzR1JYbjlGm2CLuVJL5oGXJahs9ZK4ruhZxvQt5xsdtCGgAAjEi8Lr0rb5i+AQAAAPBKyhwAAAAA41OJ4CS5CF6c00cx9Pq9vhIDAAADtkvuCxyV6RsAAAAAp1HmAAAAABifjQhOshbBi3P6KIZev9fKHAAADEmbfFreaEUCAAAAcD7KHAAAAADjU4ngJLkIXiQWC34Sg+81AACz0SbKGwAAAAC9UeYAAAAAGJedBTXHK9NsEXYrSbzIIuS1Cp+3nSi6F7/XIe+dzycAAH1eXx425Q0AAACAC1DmAAAAABiXSgQnyUXw6ryUOfr9fitzAADQ5fnm9nCOH8sbe5EAAAAAXI4yBwAAAMC4bEVwkrUIXp3XezH05rewvREDAABn0Cb3UzfihMdKJLOjrAMAAAADp8wBAAAAMCJFU99I4SS5COQ14O/3rkyzuOBqIQ0AAF6pSu6nbsTyRiuS2fsjbFdiAAAAgOFS5gAAAAAYD0WOE5RpFhfIryTxKouQ2yqWDETR6/f8WgwAAHxBldyWNuJi/Z3zdQAAAIBxUuYAAAAAGI+tCE6Si+Ao8U6uFof1+z2/FgMAAAdVorgBAAAAMEnKHAAAAADjYTLHadYikNtIvucfxAAAMDv75La0sT3sY3GjFQsAAADAdClzAAAAAIxDayHPyXIRyG3owvd8X6ZZXLy3kgYAwGTtDtt/k8PkjXgeKBYAAACAeVHmAAAAABgHUzlOUKbZIrE4/pT88qKpK0n05jefVwCASWgP2/awj6WNnVgAAAAAiJQ5AAAAAMZhK4KT5CI4yY/J7R2D6YesAQDGJU7VeDht48/Hpm0AAAAA8CXKHAAAAAAjUDS1yRynWYvgJLkIev2+78o0a8PDpTQAAAalPWxKGwAAAACcTJkDAAAAYPgqEZwsF8FJVmWaLSxS6/17fy0GAICLiCWNNmx/HPZtOBd2XQYAAADAWSlzAAAAAAzfRgQnW4ngZHnYTIjp93t/LQYAgM60yedTNmJpoxUNAAAAAH1Q5gAAAAAYvkoExyvTLJfCWawTZQ7fewCAcYkFjf1h/7/DOda+aOqdaAAAAAC4NGUOAAAAgGFrLTQ6WS6Cs7gK2z/E0I/wvd+XaXZzyB1gCH4J28e7O9aHY1ScerVIbqdfxf0Ph73fXaBPd0WNuP/jwT+bsAEAAADA4ClzAAAAAAxbJYKTrUVwFssyzZYWxfVqmyhzAAM5HwnH/38+/IMHZdMnz1UeTMbKH/0e35U/AF7iubKG6RoAAAAAjJ4yBwAAAMCwbURwslwEZ83yoxh6EydzvBMDMAC/vfZ/UDR1dXhYPfXvH0z2WB627w/7u2kfwDzcFTXi/n9haw+bsgYAAAAAk6fMAQAAADBslQiO9+Cu4JxHvKv6RzH0I05BCZ/hNrld3AxwSW0Hx7ivLtJ+8Du+PGzfJfdFDxM+YNjuChpJ8nlR42HhCwAAAABmS5kDAAAAYLiqoqn3YjhJLgJ5jlyczvFGDMAcvWSxd5lmDyd5PCx4rA97kz7gvNrkvuC1Pew/KW64hoFBfV8BAACAAVPmAAAAABiurQhOthbBWS3LNFu95G7qnM0mUeYAeNZh0Xh1+MfqS/9t+A1bJvfTjh4WP3548NjED+bmYREjPv7jiT9v48QwUcHo+N4CAADAwClzAAAAAAzXjQhOlougk0yVOXoS70pfpllcTGlhMcDpx9Q2uV/YWn3tv39U/nh8XvHDo2Ozcw6G4OHn+mEx4/G/U84AAAAAgAFQ5gAAAAAYpr3pB6cp0yyXQifitJP3YuhVFbYrMQD061H54+54/JJzkFjyWD3648fnJY/LIE/9N8zv9/6T64Hk0zLGZ/9NLH2KDQAAAADGS5kDAAAAYJhM5TjdSgSdyEXQu02izAEwGkVTx0X41aM/ro75u54ppy6+cJ6z/sJft0w+nTTCy33p/XuqdPGl/53SNgAAAADwJ2UOAAAAgGHaiuBkaxF0YhEXlroTdK9kDTBTX/i97az4e+J0s1gyWYzlN9L5DAAAAABwScocAAAAAMNkMsfpchF0mm0lhn4UTd2WaRbv4G3aDAB9/O6c8hvv/ACAk4Xrn5UpRgAAAMzBNyIAAAAAGJxd0dR7MRwvLvxI+r0r9NyYetK/jQgAAICZcD0PAADALChzAAAAAAyPRduny0XQbb5lmllc0y/TegAAAAAAAGBClDkAAAAAhsei7dP9IILO5SLoT9HUu7AzsQcAAAAAAAAmQpkDAAAAYFj2h0XbnCYXQefWIuidohcAAAAAAABMhDIHAAAAwLBUIjhNmWbLsFtKonO5CHq3FQEAAAAAAABMgzIHAAAAwLBsRHCyXAS9WB2KM/THZA4AAAAAAACYCGUOAAAAgGGpRHCyH0TQm1wE/Smaeu8YAQAAvFArAgAAABg2ZQ4AAACA4dgVTd2K4WS5CHqzFkHvTO8BAAC+yv9/AQAAAIZPmQMAAABgOCoRnKZMs0XYrSTRm1wEjhMAAAAAAADA6ylzAAAAAAyHO+6fTpGjX8syzWTeo6Kpd2HXSgIAAAAAAADGTZkDAAAAYBj2RVNXYjhZLgKZz4BjBQAAAAAAAIycMgcAAADAMFQiOIu1CGQ+A6b4AAAAAAAAwMgpcwAAAAAMw1YEZ5GLoHdXIuhX0dQ3UgAAAAAAAIBxU+YAAAAAGAaLs09UptlKChfLPpeCYwYAAAAAAADwcsocAAAAAJfXFk3diuFkuQhkPyOm+QAAAAAAAMCIKXMAAAAAXJ477J/HDyK4mB9F4LgBAAAAAAAAvJwyBwAAAMDlucP+eeQiuJhVmWYLMfTnMM2nlQQAAAAAAACMkzIHAAAAwIUVTe0O+ycq02wZdktJXFQugt45dgAAAAAAAMBIKXMAAAAAXJbF2OexEsHF/SiC3m1EAAAAAAAAAOOkzAEAAABwWVsRnIUyx+XlIuhX0dRV2O0lAQAAPGMnAgAAABguZQ4AAACAyzKZ4zy+F8HFLUVwEZUIAACAZyh/AwAAwIApcwAAAABcTls0dSuGs1iK4PLKNMul0LuNCAAAAAAAAGB8lDkAAAAALqcSwdm42yhzZboPAAAAAAAAjJAyBwAAAMDluKO+LKdGqaZnRVPHzHeSAAAAAAAAgHFR5gAAAAC4nEoE51E09cew+1tyO6WglchFfAzvg1LBZSgzAQAAAAAAwMh8KwIAAACAi6gOd9TnTEKeschxM6TnVKbZIuxWHf318e9dnOHv+e7E5xgLHNtD/lxGzP6tGAAAAAAAAGA8lDkAAAAALsOd9GfgUNipOvrrKwlz+JztyjSLn7WFNAAAAAAAAGAcvhEBAAAAwEVUIgDOyGQUAAAAAAAAGBFlDgAAAID+tfFO+mIAzsi0HwAAAAAAABgRZQ4AAACA/lUiABxXAAAAAAAAYL6UOQAAAAD65w76wFkVTb1PFDoAAAAAAABgNJQ5AAAAAPpXiQDogKIYAAAAAAAAjIQyBwAAAEC/doc76AOcWyUCAAAAAAAAGAdlDgAAAIB+uXM+0ImiqXdh10oCAAAAAAAAhk+ZAwAAAKBfNyIAHGMAAAAAAABg3pQ5AAAAAPqzP9w5H6ArWxEAAAAAAADA8ClzAAAAAPTHHfOBThVN7TgDAAAAAAAAI6DMAQAAANAfd8wH+qDQAQAAAAAAAAOnzAEAAADQHwusgT4ojgEAAAAAAMDAKXMAAAAA9GNXNPVeDEAPFMcAAAAAAABg4JQ5AAAAAPqxEQHQh6Kp27DbSQIAAAAAAACGS5kDAAAAoB+VCADHHAAAAAAAACBS5gAAAADo3r5o6koMQI9MAwIAAAAAAIABU+YAAAAA6F4lAqBPhwLZXhIAAAAAAAAwTMocAAAAAN1zh3zgEm5EAAAAAAAAAMOkzAEAAADQvUoEwAVsRQAAAAAAAADDpMwBAAAA0K1d0dStGIALMJkDAAAAAAAABkqZAwAAAKBblQiASyiaeh92O0kAAAAAAADA8ChzAAAAAHRrIwLAMQgAAAAAAAB4SJkDAAAAoDv7oqkrMQAXdCMCAAAAAAAAGB5lDgAAAIDuVCIALqlo6l3YtZIAAAAAAACAYVHmAAAAAOjORgTAAFQiAAAAAAAAgGFR5gAAAADoTiUCYAAUywAAAAAAAGBglDkAAAAAutEWTd2KARiASgQAAAAAAAAwLMocAAAAAN24EQEwBEVT7xOFDgAAAAAAABgUZQ4AAACAbmxFAAzIRgQAADA7CxEAAADAcClzAAAAAHSgaGqTOYAhcUwCAID5WYkAAAAAhkuZAwAAAOD8LJoGBqVo6jbsWkkAAAAAAADAMChzAAAAAJzfVgTAACmaAQAAAAAAwEAocwAAAACcnwXTwBApmgEAAAAAAMBAKHMAAAAAnFdbNHUrBmBowrFJ0QwAAAAAAAAGQpkDAAAA4LwslgYcowAAAAAAAIAvUuYAAAAAOK+tCIAB24gAAAAAAAAALk+ZAwAAAOC8KhEAjlEAAAAAAADAlyhzAAAAAJxPVTT1XgzAUIVjVBt2O0kAAMC0lWm2kgIAAAAMmzIHAAAAwPlsRACMQCUCAACYvIUIAAAAYNiUOQAAAADOpxIBMAK/iQAAAAAAAAAuS5kDAAAA4Dzaoql3YgCG7nCs2ksCAAAAAAAALkeZAwAAAOA8KhEAI3IjAgAAAAAAALgcZQ4AAACA89iIABiRrQgAAAAAAADgcpQ5AAAAAM6jEgEwIiZzAADAtC1FAAAAAMOmzAEAAABwuqpo6r0YgLE4HLN2kgAAgMlaigAAAACGTZkDAAAA4HRbEQAj9JsIAAAAAAAA4DKUOQAAAABOdyMCYIQqEQAAAAAAAMBlKHMAAAAAnGZfNPVODMDYHI5drSQAAAAAAACgf8ocAAAAAKcxlQMYs0oEAAAwSd+LAAAAAIZNmQMAAADgNFsRACO2EQEAAEzSUgQAAAAwbMocAAAAAKcxmQMYs0oEAAAAAAAA0D9lDgAAAIDj7Yqm3osBGKvDMUwpDQAAAAAAAHqmzAEAAABwvI0IgAnYigAAAAAAAAD6pcwBAAAAcDx3swccywAAgCHKRQAAAADDpswBAAAAcJx90dQ7MQBjF45lbdi1kgAAAAAAAID+KHMAAAAAHKcSATAhpnMAAAAAAABAj5Q5AAAAAI6zEQEwIVsRAAAAAAAAQH+UOQAAAACOU4kAmIqiqeNkjr0kAABg/Mo0y6UAAAAAw6fMAQAAAPB6u6KpWzEAE1OJAAAAAAAAAPqhzAEAAADwepUIgAnaiAAAAAAAAAD6ocwBAAAA8HoWPANTVIkAAAAmYSkCAAAAGD5lDgAAAIDX2RdNXYkBmJpwbGvDbicJAAAYvaUIAAAAYPiUOQAAAABepxIBMGEmDwEAAAAAAEAPlDkAAAAAXsdCZ2DKbkQAAACj950IAAAAYPiUOQAAAABepxIBMFVFU+/Cbi8JAAAYtZUIAAAAYPiUOQAAAABeri2auhUDMHGmcwAAAAAAAEDHlDkAAAAAXs4CZ2AOtiIAAIBRW4gAAAAAhk+ZAwAAAODlLHAG5kBxDQAAxm0lAgAAABg+ZQ4AAACAFyqa2gJnYA7Hun3YVZIAAAAAAACA7ihzAAAAALyMIgcwJxsRAADA+JRptpQCAAAAjIMyBwAAAMDLbEUAzEglAgAAGKWlCAAAAGAclDkAAAAAXsZkDmA2iqbehV0rCQAAAAAAAOiGMgcAAADA17VFU7diAGamEgEAAIxOPoHXsPQ2AgAAMAfKHAAAAABfZyoHMEcbEQAAABewFAEAAABzoMwBAAAA8HVbEQBzUzS1IhsAAIzP9yIAAACAcVDmAAAAAPi6SgTATCl0AADAuCxFAAAAAOOgzAEAAADwZVXR1HsxADNlMhEAAAAAAAB0QJkDAAAA4Ms2IgBmzGQOAAAYl1wEAAAAMA7KHAAAAABfVokAmKuiqduwayUBAAAAAAAA5/WtCAAAAACe1RZNvRNDN8o0W4Tdu+T2rqHLx9knny8g3z76533YHr8/e+8ZnF2czvFGDAAAMPjr7JUUAAAAYDyUOQAAAACeV4mgG4cix7+Tz0scd5ZP/Lv8hX/3S9/LNmz/febP26f+kqKpfSaYo02izAEAAGOwEAEAAACMhzIHAAAAwPM2IuhMXBi+7PH/Xn6Ov+SZosid6gv/Lk4R+eMrf32bPFMiefzfFU3d+gjRl1hiCp/9+Bm2MAwAAIZtKQIAAAAYD2UOAAAAgOdVIujM3yf4mvKv/Purc/0f+kqp5LFdclsmea02eXpyyTFe9RxMQBns8fBKDAAAMGhLEQAAAMB4KHMAAAAAPG1XNPVeDOdXptkyscCkT6sRfkbi7iZsvyp2DEacVKTMAQAAw/aDCAAAAGA8vhEBAAAAwJM2IuhMLgJeIBYHfi/T7FoUg3AjAgAAGLyVCAAAAGA8lDkAAAAAnmbhcnfWIuAV3h2muXBBh0lFO0kAAMAwmYIJAAAA46PMAQAAAPC5fdHUFi13JxcBr7AI289iGAQTiwAAYLiuRAAAAADjoswBAAAA8DlTOTriTqEcyaIkx0YAAODLlOABAABgZJQ5AAAAAD63FUFnchFwhGWZZisxXNZhYtFeEgAAMCzheuk6ceMEAAAAGB1lDgAAAIDPuft8d9Yi4Ei5CBwfAQCAT5Vptgi7t5IAAACA8VHmAAAAAPjUrmhqd57vTi4CjqQINAwbEQAAwKDEIsdSDAAAADA+yhwAAAAAn7JQuSNlmi0TC0w4Xi6CQahEAAAAg7nOvgq7N5IAAACAcVLmAAAAAPhUJYLO5CLgBIsyzVZiuKzD5CLHSQAAuLDD9dEHSQAAAMB4KXMAAAAA3NsXTV2JoTNrEXCiXASDYIIRAABc0KHI8XvYFtIAAACA8VLmAAAAALhXiaBTuQg4kUKQYyUAAMyaIgcAAABMhzIHAAAAwD13m+9ImWbLsFtKghPlIri8oql3YddKAgAAer+2VuQAAACACVHmAAAAALhXiaAzuQg4g8Vh8RKXdyMCAADojyIHAAAATI8yBwAAAMCtXdHUrRg6sxYBZ5KLYBC2IgAAgH4ocgAAAMA0KXMAAAAA3KpE0KlcBJyJYtAAFE1tMgcAAPRAkQMAAACmS5kDAAAA4NZGBN04LDxZSoIzyUUwGAodAADQ7fX0ddj9O1HkAAAAgElS5gAAAABIkn3R1JUYOpOLgDNaHApCXN5WBAAA0I1w3fMm7D5IAgAAAKZLmQMAAAAgSSoRdGotAs4sF8EgmMwBAAAdKNMsljjeSQIAAACmTZkDAAAAwN3lu5aLgDNTEBqAoqnbsNtJAgAAzqNMsziJ8Pfw8FoaAAAAMH3KHAAAAADuLt+ZMs1WYbeQBGeWi2AwKhEAAMDZrp//7XoHAAAA5kOZAwAAAJi79nB3ebqRi4AOLA4Lnbi8jQgAAOA04frmOuziRI6lNAAAAGA+lDkAAACAuTOVo1trEdCRXASXVzR1FXZ7SQAAwHHKNHsXdh8SUy0BAABgdr4VAQAAADBzWxF0KhcBHYlFofdiGIQqbFdiAACAlyvTbBl2/wqbqYMAAAAwUyZzAAAAALNWNLXJHB0p0ywuSHFnUbqSi2AwNiIAAIBXXS9fh92/E0UOAAAAmDVlDgAAAGDOFDm6lYuADi0OhSEcSwEAYBTCNUy8jonTOD4kbn4AAAAAs6fMAQAAAMzZVgSdWouAjuUiuLyiqfdht5MEAAA8r0yzq7D7T9iupAEAAABE34oAAAAAmLFKBJ3KRUDHYmHovRgGYRM2k1IAAOCROI0juZ3EocQBAAAAfMJkDgAAAGCu2qKp3Um+I2WaxUXdC0nQsVwEg3EjAgAA+Oza2DQOAAAA4FnKHAAAAMBcVSLoVC4CerA4FIe4sEM5rpUEAAD8WeJYhu338PBfiRsdAAAAAM/4VgQAAADATG1E0Km1COhJHjZTdoahCtu1GAAAmKsyzWJx403Y3koDAAAA+BqTOQAAAIC5qkTQqVwE9ERxaDiU5AAAmK0yza7D7t+JIgcAAADwQiZzAAAAAHNUFU29F0M3yjRbhd1CEvQkF8Fwjq0iAABghtfA8ZrkrWsTAAAA4LVM5gAAAADmyN3ju3UlAnq0OCye4sIOJblKEgAAzEG4DlmG7UN4+HuiyAEAAAAcwWQOAAAAYI4qEXRqLQJ6lvteD8YmsZANAIAJiyWO5HYSx7U0AAAAgFMocwAAAABzsy+aeieGTuUioGcKRMNxE7Z3YgAAYGrKNFuE3ZvktsgBAAAAcDJlDgAAAGBubkTQnTLNcilwAT53A1E0dRuOA214uJQGAAATuc6N57bXYfs5bAuJAAAAAOfyjQgAAACAmdmKoFO5CLgERaJBUZoDAGAK1xjLsH0ID/+T3E7jUOQAAAAAzspkDgAAAGBuLDLu1loEXEgetkoMgxBLc2/EAADAGJVptkpup3BcSwMAAADokjIHAAAAMCe7oqn3YuhULgIuRJFoIMJx9qZMM0EAADAqh2l/b13XAgAAAH1R5gAAAADmZCOC7hwWvsCl+PwNS5yCdCUGAAAGfh27OJy3xhLHUiIAAABAn74RAQAAADAjNyLoVC4CLkmhaFCU5wAAGPK1wzJs78LD/4TtQ6LIAQAAAFyAyRwAAADAXOyLpt6JoVNrEXBhedgqMQyC9wEAgMEp0yxO4fg5cTMCAAAAYACUOQAAAIC5qETQuVwEXJhC0UAUTd2WaRYLdCtpAABwSXEKR9hdh+3viQkcAAAAwIAocwAAAABzsRFBd8o0y6XAAPgcDkuVKHMAAHC569Tr5LbA4ToBAAAAGCRlDgAAAGAuKhF0KhcBQxCLRUVT+74PQyzRvREDAAA9Xg/EMvHPYbsK20IiAAAAwJApcwAAAABzsCuauhVDp9YiYCDyRHlrEGKppkyzfWIRHQAAHQrnnMuwu05up3AsJQIAAACMhTIHAAAAMAeVCDqXi4CBUCwalpvkdmEdAACczaHAEadvxALHSiIAAADAGClzAAAAAHOwEUF3yjTLpcCA+DwOyzZR5gAA4DzXnnHiWyxw/HjYAwAAAIyaMgcAAAAwdfuiqSsxdCoXAUNSptlV+N7fSGIQ4vvwQQwAABx5bq/AAQAAAEyWMgcAAAAwdZUIOrcWAQP8TCpzDEDR1PsyzXbh4UoaAAC8hAIHAAAAMBfKHADA/2fv/o7bNvM1AGMze2+eCsJTgXmFHeyNkAqiNMC1Kli7Aq8rsFxBGGwBkSsIdMUZ3CxdwUE6oCvY830maEG0JEu2COHP88x8A9KSHfEFCJEZvPwBAIzdpQiOLhcBjknu8FuizAEAwB2KNJs3r+MVOAAAAIDJUOYAAAAAxs6n8x9RkWa5FOihRfw03zgVQhS9UIoAAIAb3k/Ok11x4x+J8u9jW4UV3w+9HOjP/8wuBAAAYAp+EAEAAAAwYvWyWtdiOKqfRUBP5SLoh3Ae3sTzsSQAAIgfCBDW27D+L9yN622iyPHYXoXX4Gdh+3HAj8ExAQAAwCSYzAEAAACMmakcx5eLgJ46cQ7olTKsF2IAAJiWODEv2U3fOGm2M6kcTR3WL02ZGgAAABgAZQ4AAABgzC5FcDzNRTk+LZO+ykXQK+8TZQ4AgKm8V1w0r8d/9rq8M7HIfras1ltRAAAAwHAocwAAAACjtazWPpX/uHIR0GOLWDhyMVNvlCIAABinpugf3x/uyxtzqXTqVXjfcy4GAAAAGB5lDgAAAGCsFDmO70QE9FzuXNAPsVRTpFncF6fSAAAYvvDaLk+uChwmNj6NOqxfwmvtjSgAAABgmJQ5AAAAgLG6FMHR5SKg52LhSJmjX+dlZQ4AgAEq0mzRvAc8abYzqTypVbKbyGESIQAAAAyYMgcAAAAwVqUIjqdIs3jhjk9fpe9yEfRKLNa8FQMAwCDe882Tq8kbcau80Q+xvHG2rNZK6wAAADACyhwAAADAGNXLar0Rw1HlImAAFrF45NNq+yHshzrsjzrcnEsDAKBfWuWN/eQNr9n6p0x2RY5aFAAAADAOyhwAAADAGJUiOLoTETAQebKbCEE/xH3xUgwAAE+rSLNFcr28YfJGf8Vy+ptltT4XBQAAAIyLMgcAAAAwRu9FcHS5CBiIeHGaMkd/XCbKHAAAnSvSLE+uyhuxyKG8MQxx6uiZ6aMAAAAwTsocAAAAwBiVIjieIs3iRT8LSTAQp2G9EkM/LKv1RTiHxE8WdvEgAMDx3rPNk11x43mz9f5tmOI0jn+JAQAAAMZLmQMAAAAYm3JZrbdiOKpcBAzIPF7MFs4LtSj6c55OdiUbAAC+U6tsH9+n7csbirPDZhoHAAAATIQyBwAAADA2lyI4Op/qytDkYa3E0BvvE2UOAIBvUqRZ3rwne95svT8bj/jBFHEax7koAAAAYBqUOQAAAICxuRDB0Z2IgAEesysx9EYpAgCAr1PcmNxr5DMTBQEAAGBalDkAAACAMdkuq/VGDEeXiwDHLN8qXqBWpFk8V7sYEQCgobgxWXEaRyxx+GAKAAAAmCBlDgAAAGBMXPxwZM0FRjA083Dszn3Kba+UiQsUAYBpvqeaJ1dljX1xYy6ZSToP6014n7IVBQAAAEyTMgcAAAAwJpciOLpcBAz42F2JoTd+C+ulGACAsSrSbJZclTZ+bLbeTxGVYb0yWRQAAABQ5gAAAADGxGSO4zsRAQM+dldi6Id44VqRZvETiGfSAACG7JbSxsLrHG4QX//GEof3JQAAAMAnyhwAAADAWGyW1XorhqPLRYBjl0cSC3gvxACD4IJkYPKUNvhO52G98f8tAAAAgDZlDgAAAGAsShEcV5FmuRQYsHk4hufLal2LojcuE2UOGIo43cgENGBK73v2xY1Y2pgnisF8uzKsM+9DAAAAgJsocwAAAABj8V4ER5eLgBEcwysx9Ea8MPxXMcAgvCzS7Ldltd6IAhiDcE7bT9SIrw+fJbvixrxZ8BjqZFfiKEUBAAAA3EaZAwAAABiDrQskOnEiAkZwDK/E0A/hvL0t0iyeu3NpwCD8JzxnYwkrTtWJpY7ap4wDfXYwYUNhg65sw3oVfkd63wEAAAB8lTIHAAAAMAalCDqRiwDHMI/svf0Cg3LarE+KNIubulnx4tUPzfbTBA9lW+CYwjlonuyKGfspG8+Tq/LGTEJ0LP7+exfWeSwtiwMAAAC4D2UOAAAAYAzei+C4mk+1haGbx4v+fJJ8r5QigOGfW5OrT7k/PXj9cPhcjyWPj0mrABLOyRsRAre8B5m3zjFx/XhwH/riTaLEAQAAAHwDZQ4AAABgDEoRHF0uAkZ0LK/E0A/xIu4izerEBZkwldcRX7yeuKPwYcIHjFx4/u8naJiswVDF9xVvlMUBAACAb6XMAQAAAAzdxoUTnTgRASM6lldi6JUyrBdigMnLD7aftQofdbOiyxv+bONT0aEfWlM19uWM9nuKXEIMXHw/ocQBAAAAfDdlDgAAAGDoShF0YiECRuI0rDMx9Mr7RJkDuJ95cjXJJ7/pG5rix+epHsmu6PFnc3vTfM20D/gO4XmWHzwnn7XeL5iqwZitEiUOAAAA4BEpcwAAAABDdymC4yrSzAVZjMksHtPLar0RRT+EfXHR+tR9gEc51ydf+eT/g/NOectry7J1rirFyoRe8++fP0oasLNKlDgAAACAI1DmAAAAAAYtXgQshaPLRcAIj2lljn6J5/JTMQA9eK3Tvv16f+Og/PF5wkez/dD6Wtm6vVUe5CmE4zWWLha3HNfPk6tShoIG3G7bvEZV4gAAAACORpkDAAAAGDJFjm6ciIARHtPnYuiV+En4yhzAUCwO7rfPX6/bXzgogdTN2otFj48H97ft73cB8XTdUMg4vP/s4L5iBjyOeB5+F98vhHPwVhwAAADAMSlzAAAAAEN2KYJO5CLAMc2RxXLeWzEAIzdv1r1/Hx2UQaLy4P7hZJC9OrleHGnbuED5cd1QvPja6472dIw9ZQx4WvGcGUscK+dIAAAAoCvKHAAAAMCQmcxxZEWauaiMMZrFY3tZrTei6If4yfNhn9TJ9YucAfhSfsOfPXiy0Q0lkbbDCSF3fd/HR3hM9/3v3eSxXqveZxLd3O8pGKUyrN/C69GVKAAAAICuKXMAAAAAQ1XHi3/FcHS5CBjxsa3M0S+xoPdSDABPbuF1IjABq2RX4ihFAQAAADwVZQ4AAABgqEoRdOK5CBip+Anc52LolfeJMgcAAMcTpwC9C2vlwyEAAACAPlDmAAAAAIbqvQg6kYsAxzZdiJ+KXKRZvMBuJg0AAB5RmeymcKxEAQAAAPTJDyIAAAAABqoUwXEVaTYPm7kkGKlZOMYXYnBuBwBglGJJOE7i+99ltf5JkQMAAADoI5M5AAAAgCEql9V6K4ajy0XABI7xjRh6JU5dOhUDAADfqExM4QAAAAAGQpkDAAAAGKJLEXTiRARM4Bg/F0OvlCIAAOCB6rAuwnq3rNa1OAAAAIChUOYAAAAAhuhCBJ1YiICRy0XQL/HiuyLNNs4/AADcwyqs9+E1pP9HAAAAAAzSDyIAAAAABqZeVuuNGI6rSLNZ4mJqxm8WjnXHef+8FwEAALeI/z/gLKz/WVbrM0UOAAAAYMhM5gAAAACGphZBJ3IRMKFjXUGsX+IFea/FAABA6/8DvIuvE+MkN3EAAAAAY6HMAQAAAMBNTkTAhI71czH0R5y+VKTZNtycSQMAYLLqZFfy/c10TgAAAGCslDkAAACAocmLNMuX1boUxVEtRMBUziki6KV44d4LMQAATEqdKHAAAAAAE6LMAQAAAAzRH0WaxQs8LsPaX+CxWVbrrWgeTS4CJmIWzicLF4v1zvtEmQMAYArqRIEDAAAAmChlDgAAAGCoTpv1WZFm7btl63YseXw4uN++SKReVutapJ9zPJUCE5MfnBN4eqUIAABGK77/VuAAAAAAJk+ZAwAAABir/OD+nQWFgyJIvJhkP+XjsAhSN+vz945wIsjPDh8m5iSsczH0RzyvhvNymZgSBAAwFvF99m9hXfgwBQAAAIAdZQ4AAACALy0O7t+3CPLFxI+w/mzdL9tf6+MFLOGxzMPmhUOAiclF0Evv7RsAgMHaNu+B42u6ixF+CAIAAADAd1PmAAAAAHg8s+TuC49ft+8cTAMpW7djIeRjc/taQWRZrctj/fDh54k//+92I1N87objfxGeXxtR9EopAgCAQanDugjrMry2vhAHAAAAwN2UOQAAAAD6Ib/l9jUHBZB44fn+003r5GoKSLsAsr3PBerh343TR96GNbcrmPBzUJmjR+K5K5ybauclAIBe+1TeSHbTN2px8EgWIgAAAGAKlDkAAAAAhuteFzfcMQFkLxclJCdhnYuhd+LFgS/FAADQG5vmfeX7Y06OZPJmIgAAAGAKlDkAAAAApiUXAXhuDEj8lGdlDgCAp1Mnu/LGfvrGViQAAAAAj0OZAwAAAAAgSWZFmi2W1Xojiv4I++PiYLoQAADHVSdX5Y0yvB6rRQIAAABwHMocAAAAAAA7eVjKHP1zEdapGAAAjqJOlDcAAAAAnoQyBwAAAADAzklY52LonXhhoTIHAMDjiOXlMqwPifIGAAAAwJNS5gAAAAAA2MlF0EtxMsdbMQAAfJMy2ZVjP5U4ltV6KxIAAACAflDmAAAAAADYmRVpdrqs1hei6I/4adFhv8SLDxfSAAC406ZZ+6kbG5EAAAAA9JcyBwAAAADAlX8ku0kQ9EuZKHMAALTVSau4EW+bugEAAAAwLMocAAAAAABXTos0y5fVuhRFr7wP66UYAICJiiWNWNy4bLaxuFGLBQAAAGDYlDkAAAAAAK77vUizn5bVeiOKfojlmrBP4kWMM2kAACNXJ9cnbtSKGwAAAADjpMwBAAAAAHBdLAz8UaTZm7BdLav1ViS9UIZ1KgYAYGSvb+pkV9zYT9zw2hMAAABgIpQ5AAAAAAC+FAsdb+Mq0qxMdhfXfWy+Fm/vL7LzScndeZ8ocwAAw1QnV9M2Ns1rSFPgAAAAACZOmQMAAAAA4G55s25UpNn+Zix4tC/KaxdA6mZ9sqzWpVgf7CKsX8UAAPTY/jXf5f62130AAAAA3EaZAwAAAADgccRpHnnrfn7bN7YKIFF70kfcfmh9rWx/37Jab6cabnzsB7kBADyVT9M1kqtJG1ulDQAAAAAeSpkDAAAAAOBpLQ7un7Zuv25/4Y4pIJet29fKIctqvRlRVmVyR0kGAOAR7V9v7aetxdchcdJGLRoGYiMCAAAA6DdlDgAAAACA4fnWKSBl63Yd1p/N7WvlEJ8sDQBMxP410P51kSkbjO34BgAAAHpMmQMAAAAAYDry+3zTQQGkblYULwj70Ppa2f6+Dj6p+jIxmQMAeBiFDQAAAAB6SZkDAAAAAIC7zJu1d9q6/br9jXdMAYkuD+63vx4vqNzc42f50e6AJ7d/7uaiAHp4brps3b/v6wsAAAAAeBLKHAAAAAAAHEP+lft3FUHq5GoaSHR5y78BdGcV1qtltd4ePHcXYTNrPT9PPF+BI/g0TaPZfmzfPzwvAQAAAMBQKHMAAAAAANA38+T6NJBcJPDkXt10wXTrU+/Lm/5SkWb5wfP4ebIrfxw+z4HpqpsVzzEf2ueUcI4pxQMAAADAWClzAAAAAAAAcJdv/uT71oXY5U1fL9IsFjsWzd282Sp8wHjUyZdFjf1UjTqcI2oRAQAAADBVyhwAAAAAAADcZXusf7gpiZTN3fK272tN+IjFj1j0eJZclUDmidIHdK1uVnR5+GcmagAAAADA1ylzAAAAAAAA0Gtfm/Cx1yp9tCd+/JhclT32ZRDgS3VyVdCI2z+b2/tJGkoaAAAAAPCIlDkAAAAAAAC4Sz2UH/TgQvOLu763SLN2saN9u13+aJdCYGjaz4dYyPjYek7vn9d1eN7UogIAAACA7ilzAAAAAAAAcJc/x/igltV607pb3ufvtCZ/RPPkqvQRPU+uT/0wBYTH8HkqRuv+x1uOXcUMAAAAABgQZQ4AAAAAAAC4h4PJHw9SpNk8uV7+iPIbvvXkhj+76e/SX4cFjKhOvixG1cnB5JvvOcYAAAAAgGFR5gAAAAAAAIAjayYm1Ad/XH7vv3swLeTQPLl/CeRwsshD5T2I+aF5xv3xtckzNxUzPn8t7NetoxvoKecnAAAA6DllDgAAAAAAABgokxwAuOX3w6ZIM0EAAABAj/0gAgAAAAAAAAAAAAAAgO4ocwAAAAAAAAAAAAAAAHRImQMAAAAAAAAAAAAAAKBDyhwAAAAAAAAAAAAAAAAdUuYAAAAAAAAAAAAAAADokDIHAAAAAAAAAAAAAABAh5Q5AAAAAAAAAAAAAAAAOqTMAQAAAAAAAAAAAAAA0CFlDgAAAAAAAAAAAAAAgA4pcwAAAAAAAAAAAAAAAHRImQMAAAAAAAAAYHy2IgAAAID+UuYAAAAAAAAAABifzVB/8CLN5nYfAAAAY6fMAQAAAAAAAABAn8xFAAAAwNgpcwAAAAAAAAAAAAAAAHRImQMAAAAAAAAAAAAAAKBDyhwAAAAAAAAAAAAAAAAdUuYAAAAAAAAAAAAAAADokDIHAAAAAAAAAAAAAABAh5Q5AAAAAAAAAAAAAAAAOqTMAQAAAAAAAAAAAAAA0CFlDgAAAAAAAAAAAAAAgA4pcwAAAAAAAAAAAAAAAHRImQMAAAAAAAAAAAAAAKBDyhwAAAAAAAAAAAAAAAAdUuYAAAAAAAAAAAAAAADokDIHAAAAAAAAAMD4XIoAAAAA+kuZAwAAAAAAAAAAAAAAoEPKHAAAAAAAAAAAAAAAAB1S5gAAAAAAAAAAAAAAAOiQMgcAAAAAAAAAAAAAAECHlDkAAAAAAAAAAAAAAAA6pMwBAAAAAAAAAAAAAADQIWUOAAAAAAAAAAAAAACADilzAAAAAAAAAAAAAAAAdEiZAwAAAAAAAAAAAAAAoEPKHAAAAAAAAAAAAAAAAB1S5gAAAAAAAAAAAAAAAOiQMgcAAAAAAAAAAAAAAECHlDkAAAAAAAAAAAAAAAA6pMwBAAAAAAAAAAAAAADQIWUOAAAAAAAAAAAAAACADilzAAAAAAAAAAAAAAAAdEiZAwAAAAAAAAAAAAAAoEPKHAAAAAAAAAAAAAAAAB1S5gAAAAAAAAAAAAAAAOiQMgcAAAAAAAAAAAAAAECHlDkAAAAAAAAAAOiTuQgAAAAYO2UOAAAAAAAAAAD6ZC4CAAAAxk6ZAwAAAAAAAAAAAAAAoEPKHAAAAAAAAAAAAAAAAB1S5gAAAAAAAAAAAAAAAOiQMgcAAAAAAAAAAAAAAECHlDkAAAAAAAAAAMbnuQgAAACgv5Q5AAAAAAAAAADGZyYCAAAA6C9lDgAAAAAAAAAAAAAAgA4pcwAAAAAAAAAAAAAAAHRImQMAAAAAAAAAAAAAAKBDyhwAAAAAAAAAAAAAAAAdUuYAAAAAAAAAAAAAAADokDIHAAAAAAAAAAAAAABAh5Q5AAAAAAAAAAAAAAAAOqTMAQAAAAAAAAAAAAAA0CFlDgAAAAAAAACA8VmIAAAAAPpLmQMAAAAAAAAAYHxmIgAAAID+UuYAAAAAAAAAAAAAAADokDIHAAAAAAAAAAAAAABAh5Q5AAAAAAAAAAAAAAAAOqTMAQAAAAAAAAAAAAAA0CFlDgAAAAAAAACAESnSbCYFAAAA6DdlDgAAAAAAAACAcVmIAAAAAPpNmQMAAAAAAAAAAAAAAKBDyhwAAAAAAAAAAAAAAAAdUuYAAAAAAAAAAAAAAADokDIHAAAAAAAAAMC4zEUAAAAA/abMAQAAAAAAAAAwLnMRAAAAQL8pcwAAAAAAAAAAAAAAAHRImQMAAAAAAAAAAAAAAKBDyhwAAAAAAAAAAOPyfOA//492IQAAAGOnzAEAAAAAAAAAMC6zgf/8c7sQAACAsVPmAAAAAAAAAAAAAAAA6JAyBwAAAAAAAADAuCxEAAAAAP2mzAEAAAAAAAAAMC4zEQAAAEC/KXMAAAAAAAAAAAAAAAB0SJkDAAAAAAAAAGAkijRbSAEAAAD6T5kDAAAAAAAAAGA8ZiIAAACA/lPmAAAAAAAAAAAAAAAA6JAyBwAAAAAAAADAeCxEAAAAAP2nzAEAAAAAAAAAMB4zEQAAAED/KXMAAAAAAAAAAAAAAAB0SJkDAAAAAAAAAGA8TkbwGDZ2IwAAAGOnzAEAAAAAAAAAQJ98FAEAAABjp8wBAAAAAAAAADAeMxEAAABA/ylzAAAAAAAAAACMx0IEAAAA0H/KHAAAAAAAAAAA9MlWBAAAAIydMgcAAAAAAAAAwAgUaTYfyUPZ2JsAAACMnTIHAAAAAAAAAMA4zEUAAAAAw6DMAQAAAAAAAABAn9QiAAAAYOyUOQAAAAAAAAAAxmExhgexrNa1XQkAAMDYKXMAAAAAAAAAAIzDbASPobYbAQAAmAJlDgAAAAAAAAAA+qIWAQAAAFOgzAEAAAAAAAAAMA4nI3gMtd0IAADAFChzAAAAAAAAAADQF3+KAAAAgClQ5gAAAAAAAAAAoC9KEQAAADAFyhwAAAAAAAAAAOOQj+Ax1HYjAAAAU6DMAQAAAAAAAABAH2yX1boWAwAAAFOgzAEAAAAAAAAAQB9sRAAAAMBUKHMAAAAAAAAAAAxckWb5CB7GpT0JAADAVChzAAAAAAAAAADQByZzAAAAMBnKHAAAAAAAAAAA9EEpAgAAAKZCmQMAAAAAAAAAYPgWA//5N8tqvbUbAQAAmAplDgAAAAAAAACA4ZsN/Ocv7UIAAACmRJkDAAAAAAAAAGD4ng/857+0CwEAAJgSZQ4AAAAAAAAAgOHLB/7zl3YhAAAAU6LMAQAAAAAAAAAwYEWaLcJmNuCHcLGs1lt7EgAAgClR5gAAAAAAAAAAGLZ/Dvznv7QLAQAAmBplDgAAAAAAAACAgSrSbB42Lwb+MC7sSQAAAKZGmQMAAAAAAAAAYLjeDvzn3yyrdW03AgAAMDXKHAAAAAAAAAAAA1Sk2YuwOR34w/jNngQAAGCKlDkAAAAAAAAAAAamSLNFMvypHNHK3gQAAGCKlDkAAAAAAAAAAAakKXL8EdZs4A/lYlmtt/YoAAAAU6TMAQAAAAAAAAAwECMqckS/2aMAAABMlTIHAAAAAAAAAMAAjKzIUS+r9YW9CgAAwFQpcwAAAAAAAAAA9FyRZqfJeIockakcAAAATJoyBwAAAAAAAABAjxVp9iJsfk/GU+SIVvYsAAAAU6bMAQAAAAAAAADQU0WavQybX0f2sFbLal3buwAAAEzZX0UAAAAAAAAAANA/RZrFEseLET60N/YuAAAAU6fMAQAAAAAAAADQI0WazcLm97DyET680lQOAAAASJIfRAAAAAAAAAAA0A9Fms3D5o9knEWOyFQOAAAASJQ5AAAAAAAAAAB6oUizPGz+E9ZipA8xTuUo7WkAAABQ5gAAAAAAAAAAeHJFmr1MdhM5ZiN+mKZyAAAAQOOvIgAAAAAAAAAAeBpFmsXyxtuwXoz8oa5M5QAAAIAryhwAAAAAAAAAAE+gSLNF2Pwa1mICD9dUDgAAAGj5QQQAAAAAAAAAAN0q0uw0bP5IJlLkWFbr2l4HAACAKyZzAAAAAAAAAAB0pEizWdi8DuvlRB7yNqxzex4AAACuU+YAAAAAAAAAAOhAkWZxCsevyTSmcey9Wlbrrb0PAAAA1/0gAgAAAAAAAACA4yrSLE7i+E8yrSJHuazWK3sfAAAAvmQyBwAAAAAAAADAkRRpNk920zjyCT78M0cAAAAA3MxkDgAAAAAAAACAI2hN48gn+PDfLKt17SgAAACAm5nMAQAAAAAAAADwiCY+jSPaLKv1vxwJAAAAcDuTOQAAAAAAAAAAHsnEp3FE27DOHAkAAABwN5M5AAAAAAAAAAC+U5Fmi7B5m0y3xLH3ZlmtN44IAAAAuJsyBwAAAAAAAADANyrSbBY2cRrHa2kkF8tqfS4GAAAA+DplDgAAAAAAAACAb1Ck2Wmym8Yxl0ayDetMDAAAAHA/yhwAAAAAAAAAAA9QpNki2ZU4cml89tOyWm/FAAAAAPejzAEAAAAAAAAAcA9Fms2SXYnjhTSuebWs1hsxAAAAwP0pcwAAAAAAAAAA3KEpcbwM659hzSRyzWpZrc/FAAAAAA+jzAEAAAAAAAAAcIsizV4ku2kcShxfitM4XokBAAAAHk6ZAwAAAAAAAADgQFPieB3WXBo32ob107Jab0UBAAAAD6fMAQAAAAAAAADQUOK4F0UOAAAA+E7KHAAAAAAAAADA5ClxPMirZbXeiAEAAAC+nTIHAAAAAAAAADBJRZrNwuY0UeJ4iLNltV6JAQAAAL6PMgcAAAAAAAAAMClNieNlWP8MayaRe3ujyAEAAACPQ5kDAAAAAAAAAJiEIs3myW4KR5zGocTxMKtltf6XGAAAAOBxKHMAAAAAAAAAAKNWpFksb8QpHLk0vkkscpyJAQAAAB6PMgcAAAAAAAAAMDpFmsXJGy/D+kdYc4l8M0UOAAAAOAJlDgAAAAAAAABgNJopHD+H9UIa302RAwAAAI5EmQMAAAAAAAAAGLQizebJrrxhCsfjUeQAAACAI1LmAAAAAAAAAAAGp0izWdjEKRz/DGshkUelyAEAAABHpswBAAAAAAAAAAxCq8Dxc7Pl8SlyAAAAQAeUOQAAAAAAAACA3lLg6NSbZbX+lxgAAADg+JQ5AAAAAAAAuEspAgC6psDxJM6W1XolBgAAAOiGMgcAAAAAAAAA8OSKNFuETR7WP8JaSKQz27BeKXIAAABAt5Q5AAAAAAAAAIDONdM38mQ3fSNu51LpXCxy/LSs1htRAAAAQLeUOQAAAAAAAACATrSmb+wLHDydWOA4U+QAAACAp6HMAQAAAAAAAAAchekbvVWG9cuyWm9FAQAAAE9DmQMAAAAAAAAAeDTN9I3TsE4S0zf6aLWs1mdiAAAAgKelzAEAAAAAAAAAfLMizebJ9fLGTCq9dbas1isxAAAAwNNT5gAAAAAAAAAA7q0pb+TJVXljLpXe24b1y7Jal6IAAACAflDmAAAAAAAAAABuVaRZnLSRJ1fljYVUBmUT1k/Lar0VBQAAAPSHMgcAAAAAAAAA8JnyxqicL6v1KzEAAABA/yhzAAAAAAAAAMCEKW+MUpzCcbas1heiAAAAgH5S5gAAAAAAAACACSnSbJ5cL2/MpTIqm7B+WVbrWhQAAADQX8ocAAAAAAAAADBiRZrlyW7axr68MZPKaJ0vq/UrMQAAAED/KXMAAAAAAAAAwEgUaRaLGnlyvbzB+NVhnS2rdSkKAAAAGAZlDgAAAAAAAAAYqIOpG3E7l8rkXCS7IsdWFAAAADAcyhwAAAAAAAAAMABFmsWyRlzPm20ulUmL5Y1Y4rgQBQAAAAyPMgcAAAAAAAAA9EyRZvNkV9jYT93IpUKLaRwAAAAwcMocAAAAAAAAAPCEmokb8+SquBG3M8lwA9M4AAAAYCSUOQAAAAAAAACgI0Wa5cmuuPE82ZU2cqlwT+dhvTGNAwAAAMZBmQMAAAAAAAAAHlmRZnGyxr6s8WNzeyEZvsEmrFfLal2KAgAAAMZDmQMAAAAAAIC75GGVYgC43Q3TNuKaSYbvFCdwxEkc56IAAACA8VHmAAAAAAAA4C7PRQCw0yptxHXSug2PbZXspnFsRQEAAADjpMwBAAAAAADAXU7jxcvLal2KApiCcM6LEzXiZI15orRB9+Lv2zd+7wIAAMD4KXMAAAAAAADwNb8XafaLC0uBMQnntVjYiMWNPKwfk11ZY/9n0LU62ZU4VqIAAACAaVDmAAAAAAAA4Gvihc1/FGlWh+1FWB+S3UWn0WZZrbciAvrooLDxLLk+cQP6IP4OfRfWud+nAAAAMC1/+e9//ysFAACACfr33/7+R7K7kAEAAOCxbJLdRanRZbOtm5WY7AEcQ5FmeXMzbhU2GJI3iRLHrVzPAgAAwNiZzAEAAAAAAMBjWbRu54dfLNJsf3Nf+qjD+rO5/enPltV6I0bg4Nyxn66x3z5PrqZtwBCtwnoTfufVogAAAIDpUuYAAAAAAACga4vbvtAqfJTN9vLg/sYnmMN4hOf8rHVOyJvtSetcMZMSI7JKlDgAAACAxl+MpQQAAJimf//t738kPsESAAAYrv10j7j9mOymfHxaLpKFfrilqLGfqjFvFkzBKlHieDDXswAAADB2JnMAAAAAAAAwRIcXiH/WTPfYFz2i/XSPfQFE4QO+w0FJYz8949kNfwZTt0qUOAAAAIBbmMwBAAAwUSZzAAAAfFI221jy+NDcrpv16baLcJmCIs3mydWkjPbt/SSNKJcUfFX8fbIK653fH9/H9SwAAACMnTIHAADARClzAAAAPFidtEoeYf3Z3G5PAYk2y2q9FRdPqUiz9nv+9qSMH5ObSxvA94nn/Xdhnfsd8DhczwIAAMDY/VUEAAAAAAAAcC/z5J4Xvhdptr95WPSok6sSSNJ8rX3Rr0kgtI+j/OCP2vefJbuSxoOPT+BRxXP2m3DuXokCAAAAeAhlDgAAAAAAADieOA0hf8hfaBVB9sqD+7H88eGGv1re9O8tq3VpNxxf2G/t6RdtN/35YRFjf6wsJAmDEc+tb5xjAQAAgG/1F2MpAQAApunff/v7H8kDLygCAABgVA6nhtzk8oH/Ztmjx/fQcsSze3z/bYUNYDrnzVVY70xROj7XswAAADB2JnMAAAAAAADANN1nakj+wH/ztViBEYrFt3dhXSyr9VYcAAAAwGNQ5gAAAAAAAAAAuC6WNi6S3RSOjTgAAACA/2fvjm7bRvIADo+ugbgDswP7iQvui7kV3F0DAq6U6+BK2HAbcCpY+kmAnpwOlA68Ffg4RypifHYcxdZImvk+YEA6cZLdf5wAA8wv897EHAAAAAAAAAAAI7dwAAAAAEmIOQAAAAAAAACAksVo4/dhfXQLBwAAAJCKmAMAAAAAAAAAKNFtGAOOW6MAAAAAUhNzAAAAAAAAAACl6If1cVi3y/XqwTgAAACAYxFzAAAAAAAAAAA5uw+7gGNjHAAAAMApEHMAAAAAAAAAALkRcAAAAAAnTcwBAAAAAAAAAORAwAEAAACcDTEHAAAAAAAAAHCuBBwAAADAWRJzAAAAAAAAAADn5HZYd0HAAQAAAJwxMQcAAAAAAAAAcMoewrcBx4ORAAAAAOdOzAEAAAAAAAAAnJr7YfXD+rRcr3rjAAAAAHIj5gAAAAAAAAAATsH89o2NcQAAAAA5E3MAAAAAAAAAAMewCVPAsVyvbo0DAAAAKImYAwAAAAAAAABIxe0bAAAAAEHMAQAAAAAAAAAczia4fQMAAADg/4g5AAAAAAAAAID38jCsflif4tPtGwAAAADPE3MAAAAAAAAAAG/RD+tuWLfL9ereOAAAAABeJ+YAAAAAAAAAAPYRg40+jAFHvH3jwUgAAAAA9iPmAAAAAAAAAAC+ZxO+jTc2RgIAAADwNmIOAAAAAAAAAGAu3rTRD+tTEG8AAAAAHISYAwAAAAAAAADKto03tjdv3BsJAAAAwGGJOQAAAAAAAACgLOINAAAAgCMTcwAAAAAAAABA3jbDisGGeAMAAADgRIg5AAAAAAAAACAvm/DtzRsbIwEAAAA4LWIOAAAAAAAAADhv8aaNPuzijQcjAQAAADhtYg4AAAAAAAAAOB8x1OiH9TmM4UZvJAAAAADnR8wBAAAAAAAAAKfrflrx1o375Xp1byQAAAAA50/MAQAAAAAAAACnwa0bAAAAAIUQcwAAAAAAAADAcfRhunEjjLdubIwEAAAAoAxiDgAAAAAAAAA4vD6M0Ua8dSOGG/dGAgAAAFAuMQcAAAAAAAAAvK8+CDcAAAAA+A4xBwAAAAAAAAD8nIcwRht303Mj3AAAAADgR4g5AAAAAAAAAOB1/4s1wnjbRh/GcGNjLAAAAAD8DDEHAAAAAAAAAOzMb9vYhDHa6I0FAAAAgPck5gAAAAAAAACgRNtoI64v2/flevVgNAAAAAAcmpgDAAAAAAAAgJxtphVv2vgacIg2AAAAADgmMQcAAAAAAABv0c/eW+MAjvz30SbsbtnYLNere2MBAAAA4BSJOQAAAAAAAPgZ/x7Wf577l+27urkeHhfTiu8fpmfUGh3wBn0Yb9f4HHY3brhlAwAAAICzI+YAAAAAAABgX/9arle/v/SdT/4l/NvnPmcWfGyfl8OqZt8GlCn+/fEwPf/afjz8vdIbDQAAAAA5WTw+PpoCAABAgf745dc/g38RFwAA2F+/XK9+S/ELdXWz3bM8DT6C/QycpW2kEd1Nz6/xhts1gDnnWQAAAMidmzkAAAAAAADYx8dUv9DsX+LvX/qc2Q0f8xs9bqZnFXbxB3BY2ygjrs9P/uxuhj/PGyMCAAAAgB0xBwAAAAAAAPvoT+k/Zrle3c8+vH3p816IPuY3fWy/H9iZ36SxGdaXJ38PPDz5MwgAAAAA/KCFaykBAADK9Mcvv/45PFqTAAAA9rFcrxa5/z92dbPdK83Djw+z9/m3w7nZ3qCxff9reu9nf857YwKOzXkWAAAAcudmDgAAAAAAAJh5cpD99rXPn8Uf0fyGj3kAElVhdxMIvJf51+vd7P2baGP4un4wKgAAAAA4HWIOAAAAAAAAeIMn8Uf/oz+uq5t5+BG1Tz7l5snHTz+f/My/fua3ZmymFT0MX3P3RgUAAAAA503MAQAAAAAAAEfwzIH8fp8f/0wMEt+vn/nUm2e+rQpuCXlvm7ALLubunnw8vzFDmAEAAAAAhRJzAAAAAAAAwBl6IQK4fevP29VNFV4PPdo9f9oP4fnQ5BA2w/qy54+ZBxbf/bmHuW989QEAAAAAbyXmAAAAAAAAAL6aYoXNK5/WmxQAAAAAwM/7mxEAAAAAAAAAAAAAAACkI+YAAAAAAAAAAAAAAABISMwBAAAAAAAAAAAAAACQkJgDAAAAAAAAAAAAAAAgITEHAAAAAAAAAAAAAABAQmIOAAAAAAAAAAAAAACAhMQcAAAAAAAAAAAAAAAACYk5AAAAAAAAAAAAAAAAEhJzAAAAAAAAAAAAAAAAJCTmAAAAAAAAAAAAAAAASEjMAQAAAAAAAAAAAAAAkJCYAwAAAAAAAAAAAAAAICExBwAAAAAAAAAAAAAAQEJiDgAAAAAAAAAAAAAAgITEHAAAAAAAAAAAAAAAAAmJOQAAAAAAAAAAAAAAABIScwAAAAAAAAAAAAAAACQk5gAAAAAAAAAAAAAAAEhIzAEAAAAAAAAAAAAAAJCQmAMAAAAAAAAAAAAAACAhMQcAAAAAAAAAAAAAAEBCYg4AAAAAAAAAAAAAAICExBwAAAAAAAAAAAAAAAAJiTkAAAAAAAAAAAAAAAASEnMAAAAAAAAAAAAAAAAkJOYAAAAo150RAAAAAAAAAABAemIOAACAct0bAQAAAAAAAAAApCfmAAAAKNRyvboNgg4AAAAAAAAAAEhOzAEAAFC2fwZBBwAAAAAAAAAAJLV4fHw0BQAAgBI3hIvF1/eubv4xPP4+rPi8MB0AAOAly/VqYQoAwKE5zwIAAEDuxBwAAAClbggXz5+/6uqmGh7X07oa1vZjAAAAMQcAkITzLAAAAOROzAEAAFDqhnCx3/mrrm5i0FEFkQcAABRNzAEApOA8CwAAALkTcwAAAJS6IVy8z/mrKfK4GFY7rMswRh6tCQMAQJ7EHABACs6zAAAAkDsxBwAAQKkbwsVhz191dVOFXdgh8gAAgEyIOQCAFJxnAQAAIHdiDgAAgFI3hIvjnL96EnlcTe/XfkcAAOA8iDkAgBScZwEAACB3Yg4AAIBSN4SL0zp/1dVNDDqqMIYdIg8AADhRYg4AIAXnWQAAAMidmAMAAKDUDeHiPM5fPRN5bD8GAACOQMwBAKTgPAsAAAC5E3MAAACUuiFcnPf5q65u2jBGHXHdzN4BAIADEnMAACk4zwIAAEDuxBwAAAClbggXeZ6/miKPeHvH5fSM68LvOAAAvA8xBwCQgvMsAAAA5E7MAQAAUOqGcFHO+auubmLMsQ07rsJ4g0frqwAAAPYn5gAAUnCeBQAAgNyJOQAAAErdEC6cv+rqpgq7sGMbeVz76gAAgJeJOQCAFJxnAQAAIHdiDgAAgFI3hGKOF3V1E4OOKoxhx830XpkMAACIOQCANJxnAQAAIHdiDgAAgFI3hGKOvXV104Yx6oi3eFxP68JkAAAoiZgDAEjBeRYAAAByJ+YAAAAodUMo5ngXXd3EmCNGHe2wLsMYe7QmAwBArsQcAEAKzrMAAACQOzEHAABAqRtCMcdBdXVThd3tHfEmj+3HAABw1sQcAEAKzrMAAACQOzEHAABAqRtCMcdRdHXThjHsiOtm9g4AAGdBzAEApOA8CwAAALkTcwAAAJS6IRRznIyubi7C7haPy+nZmgwAAKdIzAEApOA8CwAAALkTcwAAAJS6IRRznLyubqow3trRDutqer82GQAAjknMAQCk4DwLAAAAuRNzAAAAlLohFHOcra5uYtBRhTHsuJneK5MBACAFMQcAkILzLAAAAOROzAEAAFDqhlDMkZ2ubtqwCzti5BFjjwuTAQDgPYk5AIAUnGcBAAAgd2IOAACAUjeEYo4idHUTY47raV1Oz9ZkAAD4WWIOACAF51kAAADInZgDAACg1A2hmKNoXd1UYbzBow27yOPaZAAAeI2YAwBIwXkWAAAAcifmAAAAKHVDKObgGV3dxKCjCmPYcTU9K5MBAGBLzAEApOA8CwAAALkTcwAAAJS6IRRzsIeubtowRh1x3YQx8rgwGQCA8og5AIAUnGcBAAAgd2IOAACAUjeEYg7eqKubGHNcT+ty9i7yAADImJgDAEjBeRYAAAByJ+YAAAAodUMo5uBAurqpwniDRxvGyGP7DgBABsQcAEAKzrMAAACQOzEHAABAqRtCMQeJdXUTb+2ownh7x9XsHQCAMyLmAABScJ4FAACA3Ik5AAAASt0Qijk4EV3dtGEMO+K6mb0DAHCCxBwAQArOswAAAJA7MQcAAECpG0IxByesq5uLMN7aEdfl7P3CdAAAjkvMAQCk4DwLAAAAuRNzAAAAlLohFHNwhrq6qcJ4a0cbxshj+w4AQCJiDgAgBedZAAAAyJ2YAwAAoNQNoZiDjHR1E2/tqMJ4e8fV7B0AgHcm5gAAUnCeBQAAgNyJOQAAAErdEIo5KMAUeWxDj5vpWZkMAMDPE3MAACk4zwIAAEDuxBwAAAClbgjFHBSsq5s2jJHH5fSM68JkAABeJ+YAAFJwngUAAIDciTkAAABK3RCKOeAbXd3EmCNGHW0YI49qegcAYEbMAQCk4DwLAAAAuRNzAAAAlLohFHPAD+nqpgq72zuuwhh5XJsMAFAqMQcAkILzLAAAAOROzAEAAFDqhlDMAW/S1c028KiGdTM9K5MBAHIn5gAAUnCeBQAAgNyJOQAAAErdEIo54CC6umnDGHlcht2NHhcmAwDkQswBAKTgPAsAAAC5E3MAAACUuiEUc0AyXd3EmCNGHW0YI49qegcAODtiDgAgBedZAAAAyJ2YAwAAoNQNoZgDjq6rmyrsbu+4CmPkcW0yAMApE3MAACk4zwIAAEDuxBwAAAClbgjFHHCyurrZBh7VsG6mZ2UyAMApEHMAACk4zwIAAEDu/itAe3dw28iRBWC4vHAA3AhUGwF5KqBObCeiXDaD3RQqgg1hbgJ0cgjjDJyBl+VugpwZjz3ySE9k1fcBDTYE6PJuD3g/WswBAAAw60Io5oC700pd0hp5PKTLFz12JgMARBJzAAAR3LMAAAAwOjEHAADArAuhmAOG0ErtMcc57Nin9Qsei8kAAG9FzAEARHDPAgAAwOjEHAAAALMuhGIOGForNadL2HGOPA4mAwB8LzEHABDBPQsAAACjE3MAAADMuhCKOWBKrdQedOS0hh3H7T2bDADwrcQcAEAE9ywAAACMTswBAAAw60Io5gCutFKXtEYd/Sseh+3ZmQwA8DkxBwAQwT0LAAAAoxNzAAAAzLoQijmAv9BK7THHOezokUc+PYvJAMDcxBwAQAT3LAAAAIxOzAEAADDrQijmAP6mVmpOl7DjHHkcTAYA5iDmAAAiuGcBAABgdGIOAACAWRdCMQfwylqpPejIaQ07jtt7NhkAGIuYAwCI4J4FAACA0Yk5AAAAZl0IxRxAkFbqktaoo3/F47A9O5MBgPsk5gAAIrhnAQAAYHRiDgAAgFkXQjEH8I5aqT3mOIcdPfLIp2cxGQC4fWIOACCCexYAAABGJ+YAAACYdSEUcwA3qJWa0yXsOEceB5MBgNsh5gAAIrhnAQAAYHRiDgAAgFkXQjEHcEdaqT3oyGkNO47bezYZAIgn5gAAIrhnAQAAYHRiDgAAgFkXQjEHMIBW6pIuYUePPHrssTMZAHg7Yg4AIIJ7FgAAAEYn5gAAAJh1IRRzAINqpfaY47A9D9vvYjIA8DrEHABABPcsAAAAjE7MAQAAMOtCKOYAJtNKzWn9gseSLpHHwWQA4GXEHABABPcsAAAAjE7MAQAAMOtCKOYA+F0rtQcdOa1hx377zSYDAH9MzAEARHDPAgAAwOjEHAAAALMuhGIOgD/VSl3SGnX055jWyGNnMgDMTswBAERwzwIAAMDoxBwAAACzLoRiDoAXa6X2mOOwPQ/b72IyAMxEzAEARHDPAgAAwOjEHAAAALMuhGIOgFfTSs1p/YLHki6Rx8FkABiRmAMAiOCeBQAAgNGJOQAAAGZdCMUcAG+uldqDjpzWsGN/9Q4Ad0vMAQBEcM8CAADA6MQcAAAAsy6EYg6Ad9NKXdIadvTnePUOADdPzAEARHDPAgAAwOjEHAAAALMuhGIOgJvSSt2l9asd/Xm4et+ZDgC3RMwBAERwzwIAAMDoxBwAAACzLoRiDoC70ErNaf1qx5LWyOP8DgDvQswBAERwzwIAAMDoxBwAAACzLoRiDoC71krtX+3Iaf16x/7qHQDelJgDAIjgngUAAIDRiTkAAABmXQjFHABD2iKPc+hx3H6zyQDwWsQcAEAE9ywAAACMTswBAAAw60Io5gCYSit1SWvk8bD99mdnMgC8lJgDAIjgngUAAIDRiTkAAABmXQjFHADTa6X2mKNHHUtaI4+8vQPAV4k5AIAI7lkAAAAYnZgDAABg1oVQzAHAV7RSc7p8vWOf1sjjYDIAdGIOACCCexYAAABGJ+YAAACYdSEUcwDwQq3Uc+CRT89x+80mAzAXMQcAEME9CwAAAKMTcwAAAMy6EIo5AHglrdQlrZHHQ7p80WNnMgBjEnMAABHcswAAADA6MQcAAMCsC6GYA4A31ErtMUePOpa0Rh55ewfgzok5AIAI7lkAAAAYnZgDAABg1oVQzAHAO2il5nT5esc+rZHHwWQA7oeYAwCI4J4FAACA0Yk5AAAAZl0IxRwA3JBW6jnwyKfnuP1mkwG4PWIOACCCexYAAABGJ+YAAACYdSEUcwBwB1qpS1ojj4d0+aLHzmQA3o+YAwCI4J4FAACA0Yk5AAAAZl0IxRwA3KlWao85etSxpDXyyNs7AAHEHABABPcsAAAAjE7MAQAAMOtCKOYAYDCt1JwuX+/YpzXyOJgMwOsScwAAEdyzAAAAMDoxBwAAwKwLoZgDgEm0Us+BRz49x+03mwzA3yPmAAAiuGcBAABgdGIOAACAWRdCMQcAk2ulLmmNPB7S5YseO5MB+HNiDgAggnsWAAAARifmAAAAmHUhFHMAwBdaqT3m6FHHktbII2/vAGzEHABABPcsAAAAjE7MAQAAMOtCKOYAgG/WSu2BR05r6LG/egeYjpgDAIjgngUAAIDRiTkAAABmXQjFHADw3VqpS1rDjv4cr94BhiXmAAAiuGcBAABgdGIOAACAWRdCMQcAvIlW6i6tX+3oz8P2u5gMMAoxBwAQwT0LAAAAoxNzAAAAzLoQijkAIFQrNaf1qx1LukQeB5MB7o2YAwCI4J4FAACA0Yk5AAAAZl0IxRwAcBNaqT3oyGkNO/bbbzYZ4FaJOQCACO5ZAAAAGJ2YAwAAYNaFUMwBADetlbqkNeo4Bx792ZkM8N7EHABABPcsAAAAjE7MAQAAMOtCKOYAgLvTSu0xxzns6JFHPj2LyQCRxBwAQAT3LAAAAIxOzAEAADDrQijmAIBhtFJz+jLyOJgM8BbEHABABPcsAAAAjE7MAQAAMOtCKOYAgOG1Us+BRz49x+03mwzwPcQcAEAE9ywAAACMTswBAAAw60Io5gCAKbVSd+nyFY+Hq/ed6QDfQswBAERwzwIAAMDoxBwAAACzLoRiDgDgSis1p/WrHUv6NPIA+ISYAwCI4J4FAACA0Yk5AAAAZl0IxRwAwDdopfagI6c17Dhu79lkYF5iDgAggnsWAAAARifmAAAAmHUhFHMAAN+hlbqkNerYp8tXPHYmA+MTcwAAEdyzAAAAMDoxBwAAwKwLoZgDAHhlrdQec/SoYzk9D2mNPRaTgbGIOQCACO5ZAAAAGJ2YAwAAYNaFUMwBAARppfbAI6c19NhfvQN3SMwBAERwzwIAAMDoxBwAAACzLoRiDgDgnbVSl7SGHf05pjXw2JkM3DYxBwAQwT0LAAAAoxNzAAAAzLoQijkAgBvUSu0xxyF9+hWPxWTgdog5AIAI7lkAAAAYnZgDAABg1oVQzAEA3JFWak5fRh4Hk4F4Yg4AIIJ7FgAAAEYn5gAAAJh1IRRzAAADaKUuaQ07+nNMa+CxMxl4O2IOACCCexYAAABGJ+YAAACYdSEUcwAAg2ql9pjj8694LCYDr0PMAQBEcM8CAADA6MQcAAAAsy6EYg4AYDKt1Jy+jDwOJgMvI+YAACK4ZwEAAGB0Yg4AAIBZF0IxBwDA71qpS1rDjv4c0xp47EwG/piYAwCI4J4FAACA0Yk5AAAAZl0IxRwAAF/VSu0xx+df8VhMBsQcAEAM9ywAAACMTswBAAAw60Io5gAAeLFWak5fRh4Hk2EmYg4AIIJ7FgAAAEYn5gAAAJh1IRRzAAC8mlbqktawoz/HtAYeO5NhRGIOACCCexYAAABGJ+YAAACYdSEUcwAAvKlWao85Pv+Kx2Iy3DsxBwAQwT0LAAAAoxNzAAAAzLoQijkAAN5FKzWnTyOP/ptNhnsh5gAAIrhnAQAAYHRiDgAAgFkXQjEHAMBNaaUuaY06zoFHf3Ymw60RcwAAEdyzAAAAMDoxBwAAwKwLoZgDAODmtVJ7zNGjjuX0PKQ19lhMhvck5gAAIrhnAQAAYHRiDgAAgFkXQjEHAMDdaqX2wCOnNfQ4bu/ZZAjw8fH56V/GAAC8NfcsAAAAjE7MAQAAMOtCKOYAABhOK3VJa+DxsP32Z2cyvKIPj89PPxkDAPDW3LMAAAAwuh+NAAAAAAAAxvD4/PTh9PPh+m+t1JzWr3Ysp2efLl/0AAAAAAAA4J2IOQAAAAAAYGCPz08fTz/9+XD991bq+csd+fQct99sYvyFj0YAAAAAAADfT8wBAAAAAAATenx++vn08/P131qpu7QGHv05f8VjMS2u/GIEAAAAAADw/X747bffTAEAAGDGhfCHHwwBAIBv0krN6RJ5HLffnclM6afH56cPxgAAvDX3LAAAAIxOzAEAADDrQijmAADgOwg8pvTr4/PTP40BAIjgngUAAIDR/WgEAAAAAADASz0+P308/fTnf+e/tVLPccf+9CzbO+P4rxEAAAAAAMDr8GUOAACAWRdCX+YAACBAK3VJl8DjHHtwf34+PT89Pj/9ahQAQAT3LAAAAIxOzAEAADDrQijmAADgnWyBR06XwCNvD7fpP6fn30IOACCSexYAAABGJ+YAAACYdSEUcwAAcGNaqT3s2KU18Nhtf95fvf+VnEQhX9O/rPGtMcbH0/PL9j8fRBwAwHtwzwIAAMDoxBwAAAAAAAAAAAAAAACB/mEEAAAAAAAAAAAAAAAAccQcAAAAAAAAAAAAAAAAgcQcAAAAAAAAAAAAAAAAgcQcAAAAAAAAAAAAAAAAgcQcAAAAAAAAAAAAAAAAgcQcAAAAAAAAAAAAAAAAgcQcAAAAAAAAAAAAAAAAgcQcAAAAAAAAAAAAAAAAgcQcAAAAAAAAAAAAAAAAgcQcAAAAAAAAAAAAAAAAgcQcAAAAAAAAAAAAAAAAgcQcAAAAAAAAAAAAAAAAgcQcAAAAAAAAAAAAAAAAgcQcAAAAAAAAAAAAAAAAgcQcAAAAAAAAAAAAAAAAgcQcAAAAAAAAAAAAAAAAgcQcAAAAAAAAAAAAAAAAgcQcAAAAAAAAAAAAAAAAgcQcAAAAAAAAAAAAAAAAgcQcAAAAAAAAAAAAAAAAgcQcAAAAAAAAAAAAAAAAgcQcAAAAAAAAAAAAAAAAgcQcAAAAAAAAAAAAAAAAgcQcAAAAAAAAAAAAAAAAgcQcAAAAAAAAAAAAAAAAgcQcAAAAAAAAAAAAAAAAgcQcAAAAAAAAAAAAAAAAgcQcAAAAAAAAAAAAAAAAgcQcAAAAAAAAAAAAAAAAgcQcAAAAAAAAAAAAAAAAgcQcAAAAAAAAAAAAAAAAgcQcAAAAAAAAAAAAAAAAgcQcAAAAAAAAAAAAAAAAgcQcAAAAAAAAAAAAAAAAgcQcAAAAAAAAAAAAAAAAgcQcAAAAAAAAAAAAAAAAgcQcAAAAAAAAAAAAAAAAgcQcAAAAAAAAAAAAAAAAgcQcAAAAAAAAAAAAAAAAgcQcAAAAAAAAAAAAAAAAgcQcAAAAAAAAAAAAAAAAgcQcAAAAAAAAAAAAAAAAgcQcAAAAAAAAAAAAAAAAgcQcAAAAAAAAAAAAAAAAgcQcAAAAAAAAAAAAAAAAgcQcAAAAAAAAAAAAAAAAgcQcAAAAAAAAAAAAAAAAgcQcAAAAAAAAAAAAAAAAgcQcAAAAAAAAAAAAAAAAgcQcAAAAAAAAAAAAAAAAgcQcAAAAAAAAAAAAAAAAgcQcAAAAAAAAAAAAAAAAgcQcAAAAAAAAAAAAAAAAgcQcAAAAAAAAAAAAAAAAgcQcAAAAAAAAAAAAAAAAgcQcAAAAAAAAAAAAAAAAgcQcAAAAAAAAAAAAAAAAgcQcAAAAAAAAAAAAAAAAgcQcAAAAAAAAAAAAAAAAgcQcAAAAAAAAAAAAAAAAgcQcAAAAAAAAAAAAAAAAgcQcAAAAAAAAAAAAAAAAgcQcAAAAAAAAAAAAAAAAgcQcAAAAAAAAAAAAAAAAgcQcAAAAAAAAAAAAAAAAgcQcAAAAAAAAAAAAAAAAgcQcAAAAAAAAAAAAAAAAgcQcAAAAAAAAAAAAAAAAgcQcAAAAAAAAAAAAAAAAgcQcAAAAAAAAAAAAAAAAgcQcAAAAAAAAAAAAAAAAgcQcAAAAAAAAAAAAAAAAgcQcAAAAAAAAAAAAAAAAgcQcAAAAAAAAAAAAAAAAgcQcAAAAAAAAAAAAAAAAgcQcAAAAAAAAAAAAAAAAgcQcAAAAAAAAAAAAAAAAgcQcAAAAAAAAAAAAAAAAgcQcAAAAAAAAAAAAAAAAgcQcAAAAAAAAAAAAAAAAgcQcAAAAAAAAAAAAAAAAgcQcAAAAAAAAAAAAAAAAgcQcAAAAAAAAAAAAAAAAgcQcAAAAAAAAAAAAAAAAgcQcAAAAAAAAAAAAAAAAgcQcAAAAAAAAAAAAAAAAgcQcAAAAAAAAAAAAAAAAgcQcAAAAAAAAAAAAAAAAgcQcAAAAAAAAAAAAAAAAgcQcAAAAAAAAAAAAAAAAgcQcAAAAAAAAAAAAAAAAgcQcAAAAAAAAAAAAAAAAgcQcAAAAAAAAAAAAAAAAgcQcAAAAAAAAAAAAAAAAgcQcAAAAAAAAAAAAAAAAgcQcAAAAAAAAAAAAAAAAgcQcAAAAAAAAAAAAAAAAgcQcAAAAAAAAAAAAAAAAgcQcAAAAAAAAAAAAAAAAgcQcAAAAAAAAAAAAAAAAgcQcAAAAAAAAAAAAAAAAgcQcAAAAAAAAAAAAAAAAgf4P2FFJZpgViP0AAAAASUVORK5CYII=;clipPath=inset(6.03% 30% 7.45% 28%);" vertex="1" parent="1">
          <mxGeometry x="880" y="225" width="113.61" height="110" as="geometry" />
        </mxCell>
        <mxCell id="Rx8Aes6J8T8P0xbG0pR--9" value="&lt;font size=&quot;1&quot; style=&quot;&quot;&gt;&lt;b style=&quot;font-size: 20px;&quot;&gt;I18nextProvider&lt;/b&gt;&lt;/font&gt;" style="text;html=1;align=center;verticalAlign=middle;whiteSpace=wrap;rounded=0;" vertex="1" parent="1">
          <mxGeometry x="80" y="-90" width="110" height="30" as="geometry" />
        </mxCell>
      </root>
    </mxGraphModel>
  </diagram>
</mxfile>
